<svg width="14" height="14" viewBox="0 0 14 14" fill="none" xmlns="http://www.w3.org/2000/svg">
<g clip-path="url(#clip0_4884_101574)">
<path d="M3.49836 4.66661V0.445609C3.49836 0.00577602 4.06886 -0.167474 4.31327 0.198859L5.24835 1.74994L6.58827 0.186609C6.80411 -0.0648073 7.19319 -0.0648073 7.40844 0.186609L8.74836 1.74994L9.68344 0.198859C9.92786 -0.167474 10.4984 0.00577602 10.4984 0.445609V4.66661C10.4984 6.59686 8.92861 8.16661 6.99835 8.16661C5.0681 8.16661 3.49836 6.59686 3.49836 4.66661Z" fill="#1B1B1D"/>
<path d="M6.99844 8.74995C4.39009 8.75285 2.27634 10.8666 2.27344 13.475C2.27344 13.7649 2.50848 13.9999 2.79843 13.9999H11.1984C11.4884 13.9999 11.7234 13.7649 11.7234 13.475C11.7205 10.8666 9.60678 8.75283 6.99844 8.74995Z" fill="#1B1B1D"/>
</g>
<defs>
<clipPath id="clip0_4884_101574">
<rect width="14" height="14" fill="white"/>
</clipPath>
</defs>
</svg>
