<svg width="20" height="21" viewBox="0 0 20 21" fill="none" xmlns="http://www.w3.org/2000/svg">
<path d="M17.0636 3.89265C15.6653 2.49495 13.8839 1.54327 11.9447 1.15798C10.0055 0.772679 7.99558 0.971063 6.16914 1.72804C4.34269 2.48502 2.78173 3.76659 1.68363 5.41071C0.585537 7.05482 -0.000370128 8.98763 1.7542e-07 10.9647C-1.60396e-07 13.6164 1.05304 16.1596 2.92762 18.0351C4.80219 19.9107 7.34483 20.965 9.99655 20.9663C11.3087 20.9664 12.6082 20.7099 13.822 20.2113C15.0316 19.7004 16.132 18.9622 17.0636 18.0368C17.9924 17.1081 18.7292 16.0056 19.2319 14.7922C19.7346 13.5787 19.9933 12.2782 19.9933 10.9647C19.9933 9.65129 19.7346 8.35072 19.2319 7.13728C18.7292 5.92384 17.9924 4.82131 17.0636 3.89265ZM16.3589 17.3221C14.9194 18.7678 13.0305 19.6803 11.0032 19.9093V13.3053H12.8958C13.1628 13.3053 13.4189 13.1992 13.6077 13.0105C13.7965 12.8217 13.9025 12.5656 13.9025 12.2986C13.9025 12.0316 13.7965 11.7756 13.6077 11.5868C13.4189 11.398 13.1628 11.2919 12.8958 11.2919H11.0032V8.53355C11.0032 8.26655 11.1093 8.01049 11.2981 7.8217C11.4869 7.63291 11.743 7.52685 12.0099 7.52685H13.218C13.485 7.52685 13.741 7.42078 13.9298 7.23199C14.1186 7.0432 14.2247 6.78714 14.2247 6.52014C14.2247 6.25315 14.1186 5.99709 13.9298 5.8083C13.741 5.61951 13.485 5.51344 13.218 5.51344H11.5066C10.8391 5.51344 10.199 5.7786 9.72698 6.25058C9.255 6.72257 8.98984 7.36271 8.98984 8.0302V11.2919H7.10731C6.84032 11.2919 6.58426 11.398 6.39547 11.5868C6.20667 11.7756 6.10061 12.0316 6.10061 12.2986C6.10061 12.5656 6.20667 12.8217 6.39547 13.0105C6.58426 13.1992 6.84032 13.3053 7.10731 13.3053H8.98984V19.9093C7.12029 19.696 5.36499 18.9007 3.97189 17.6358C2.57879 16.3709 1.61829 14.7003 1.22606 12.8599C0.833838 11.0196 1.02971 9.10252 1.78602 7.37952C2.54233 5.65652 3.82084 4.21468 5.44097 3.25765C7.0611 2.30062 8.94096 1.87677 10.815 2.04598C12.6891 2.21519 14.4626 2.9689 15.8851 4.20065C17.3076 5.4324 18.3072 7.07993 18.7426 8.91053C19.1781 10.7411 19.0274 12.6623 18.3119 14.4026C17.8553 15.4926 17.1921 16.484 16.3589 17.3221Z" fill="black"/>
</svg>
