<svg width="15" height="15" viewBox="0 0 15 15" fill="none" xmlns="http://www.w3.org/2000/svg">
<g clip-path="url(#clip0_5255_85519)">
<path d="M10.625 0C8.17188 0 6.25 1.09812 6.25 2.5V5.23625C5.68375 5.08625 5.05062 5 4.375 5C1.92188 5 0 6.09812 0 7.5V12.5C0 13.9019 1.92188 15 4.375 15C6.82812 15 8.75 13.9019 8.75 12.5V12.2594C9.33313 12.4144 9.97188 12.5 10.625 12.5C13.0781 12.5 15 11.4019 15 10V2.5C15 1.09812 13.0781 0 10.625 0ZM14.375 7.5C14.375 8.51625 12.6575 9.375 10.625 9.375C9.96188 9.375 9.32125 9.28063 8.75 9.11V7.5C8.75 7.41813 8.74188 7.3375 8.72938 7.25812C9.31563 7.41625 9.95937 7.5 10.625 7.5C12.2381 7.5 13.6169 7.02375 14.375 6.3V7.5ZM0.625 8.8C1.38313 9.52375 2.76187 10 4.375 10C5.98813 10 7.36687 9.52375 8.125 8.8V10C8.125 11.0163 6.4075 11.875 4.375 11.875C2.3425 11.875 0.625 11.0163 0.625 10V8.8ZM10.625 0.625C12.6575 0.625 14.375 1.48375 14.375 2.5C14.375 3.51625 12.6575 4.375 10.625 4.375C8.5925 4.375 6.875 3.51625 6.875 2.5C6.875 1.48375 8.5925 0.625 10.625 0.625ZM6.875 3.8C7.63313 4.52375 9.01187 5 10.625 5C12.2381 5 13.6169 4.52375 14.375 3.8V5C14.375 6.01625 12.6575 6.875 10.625 6.875C9.81437 6.875 9.04312 6.74188 8.39 6.49188C8.06625 6.06188 7.54 5.69813 6.875 5.43688V3.8ZM4.375 5.625C6.4075 5.625 8.125 6.48375 8.125 7.5C8.125 8.51625 6.4075 9.375 4.375 9.375C2.3425 9.375 0.625 8.51625 0.625 7.5C0.625 6.48375 2.3425 5.625 4.375 5.625ZM4.375 14.375C2.3425 14.375 0.625 13.5163 0.625 12.5V11.3C1.38313 12.0237 2.76187 12.5 4.375 12.5C5.98813 12.5 7.36687 12.0237 8.125 11.3V12.5C8.125 13.5163 6.4075 14.375 4.375 14.375ZM10.625 11.875C9.96437 11.875 9.32125 11.7819 8.75 11.6112V9.76C9.3325 9.915 9.97062 9.99937 10.625 9.99937C12.2381 9.99937 13.6169 9.52313 14.375 8.79938V9.99937C14.375 11.0156 12.6575 11.875 10.625 11.875Z" fill="#1B1B1D"/>
</g>
<defs>
<clipPath id="clip0_5255_85519">
<rect width="15" height="15" fill="white"/>
</clipPath>
</defs>
</svg>
