<svg width="15" height="15" viewBox="0 0 15 15" fill="none" xmlns="http://www.w3.org/2000/svg">
<path d="M13.125 3.7589H11.25C11.25 1.68617 9.54562 0 7.45188 0C5.41062 0 3.75 1.68617 3.75 3.7589H1.875C0.84125 3.7589 0 4.59948 0 5.63242V12.1897C0 13.7391 1.26188 15 2.8125 15H12.1875C13.7381 15 15 13.7391 15 12.1897V5.63242C15 4.59948 14.1587 3.7589 13.125 3.7589ZM7.45188 0.624506C9.20187 0.624506 10.625 2.03027 10.625 3.7589H4.375C4.375 2.03027 5.755 0.624506 7.45188 0.624506ZM14.375 12.1897C14.375 13.395 13.3938 14.3755 12.1875 14.3755H2.8125C1.60625 14.3755 0.625 13.395 0.625 12.1897V5.63242C0.625 4.94359 1.18562 4.38341 1.875 4.38341H3.75V6.56917C3.75 6.74154 3.89 6.88143 4.0625 6.88143C4.235 6.88143 4.375 6.74154 4.375 6.56917V4.38341H10.625V6.56917C10.625 6.74154 10.765 6.88143 10.9375 6.88143C11.11 6.88143 11.25 6.74154 11.25 6.56917V4.38341H13.125C13.8144 4.38341 14.375 4.94359 14.375 5.63242V12.1897Z" fill="#1B1B1D"/>
</svg>
