<svg width="21" height="20" viewBox="0 0 21 20" fill="none" xmlns="http://www.w3.org/2000/svg">
<path d="M19.2317 5.30047H16.9439C16.7648 4.63997 16.3731 4.05682 15.8296 3.64105C15.286 3.22528 14.6206 3 13.9363 3C13.2519 3 12.5866 3.22528 12.043 3.64105C11.4994 4.05682 11.1078 4.63997 10.9286 5.30047H0.836159C0.614396 5.30047 0.401716 5.38856 0.244905 5.54537C0.0880951 5.70218 0 5.91486 0 6.13663C0 6.35839 0.0880951 6.57107 0.244905 6.72788C0.401716 6.88469 0.614396 6.97279 0.836159 6.97279H10.9286C11.1078 7.63328 11.4994 8.21643 12.043 8.6322C12.5866 9.04798 13.2519 9.27326 13.9363 9.27326C14.6206 9.27326 15.286 9.04798 15.8296 8.6322C16.3731 8.21643 16.7648 7.63328 16.9439 6.97279H19.2317C19.4534 6.97279 19.6661 6.88469 19.8229 6.72788C19.9797 6.57107 20.0678 6.35839 20.0678 6.13663C20.0678 5.91486 19.9797 5.70218 19.8229 5.54537C19.6661 5.38856 19.4534 5.30047 19.2317 5.30047ZM13.9363 7.59991C13.6469 7.59991 13.3639 7.51409 13.1233 7.3533C12.8827 7.19251 12.6951 6.96398 12.5844 6.6966C12.4736 6.42922 12.4446 6.135 12.5011 5.85116C12.5576 5.56731 12.6969 5.30658 12.9016 5.10193C13.1062 4.89729 13.3669 4.75793 13.6508 4.70147C13.9346 4.64501 14.2289 4.67398 14.4962 4.78474C14.7636 4.89549 14.9921 5.08304 15.1529 5.32367C15.3137 5.56431 15.3995 5.84722 15.3995 6.13663C15.3991 6.52458 15.2448 6.89651 14.9705 7.17083C14.6961 7.44516 14.3242 7.59946 13.9363 7.59991Z" fill="black"/>
<path d="M19.2317 13.7951H9.14006C8.96059 13.1348 8.56881 12.5519 8.02518 12.1363C7.48155 11.7206 6.81627 11.4955 6.13197 11.4955C5.44768 11.4955 4.78239 11.7206 4.23876 12.1363C3.69513 12.5519 3.30336 13.1348 3.12389 13.7951H0.836159C0.614396 13.7951 0.401716 13.8832 0.244905 14.04C0.0880951 14.1968 0 14.4095 0 14.6313C0 14.8531 0.0880951 15.0657 0.244905 15.2225C0.401716 15.3794 0.614396 15.4675 0.836159 15.4675H3.12389C3.30336 16.1278 3.69513 16.7107 4.23876 17.1263C4.78239 17.5419 5.44768 17.7671 6.13197 17.7671C6.81627 17.7671 7.48155 17.5419 8.02518 17.1263C8.56881 16.7107 8.96059 16.1278 9.14006 15.4675H19.2317C19.4534 15.4675 19.6661 15.3794 19.8229 15.2225C19.9797 15.0657 20.0678 14.8531 20.0678 14.6313C20.0678 14.4095 19.9797 14.1968 19.8229 14.04C19.6661 13.8832 19.4534 13.7951 19.2317 13.7951ZM6.13156 16.0946C5.84215 16.0946 5.55924 16.0087 5.3186 15.848C5.07797 15.6872 4.89041 15.4586 4.77966 15.1913C4.66891 14.9239 4.63993 14.6297 4.69639 14.3458C4.75285 14.062 4.89222 13.8012 5.09686 13.5966C5.3015 13.392 5.56223 13.2526 5.84608 13.1961C6.12993 13.1397 6.42415 13.1686 6.69153 13.2794C6.95891 13.3902 7.18744 13.5777 7.34823 13.8183C7.50901 14.059 7.59483 14.3419 7.59483 14.6313C7.59417 15.0192 7.43979 15.391 7.16552 15.6653C6.89124 15.9395 6.51944 16.0939 6.13156 16.0946Z" fill="black"/>
</svg>
