<svg width="20" height="21" viewBox="0 0 20 21" fill="none" xmlns="http://www.w3.org/2000/svg">
<g clip-path="url(#clip0_3040_57773)">
<path d="M10.833 1.8C10.833 1.57898 10.9208 1.36702 11.0771 1.21074C11.2334 1.05446 11.4453 0.966663 11.6663 0.966663C13.8757 0.969089 15.9939 1.84784 17.5562 3.41012C19.1185 4.9724 19.9972 7.0906 19.9997 9.3C19.9997 9.52101 19.9119 9.73297 19.7556 9.88925C19.5993 10.0455 19.3873 10.1333 19.1663 10.1333C18.9453 10.1333 18.7334 10.0455 18.5771 9.88925C18.4208 9.73297 18.333 9.52101 18.333 9.3C18.331 7.5325 17.628 5.83796 16.3782 4.58814C15.1284 3.33833 13.4338 2.63531 11.6663 2.63333C11.4453 2.63333 11.2334 2.54553 11.0771 2.38925C10.9208 2.23297 10.833 2.02101 10.833 1.8ZM11.6663 5.96666C12.5504 5.96666 13.3982 6.31785 14.0234 6.94297C14.6485 7.56809 14.9997 8.41594 14.9997 9.3C14.9997 9.52101 15.0875 9.73297 15.2437 9.88925C15.4 10.0455 15.612 10.1333 15.833 10.1333C16.054 10.1333 16.266 10.0455 16.4223 9.88925C16.5785 9.73297 16.6663 9.52101 16.6663 9.3C16.665 7.97432 16.1378 6.70332 15.2004 5.76592C14.263 4.82853 12.992 4.30132 11.6663 4.3C11.4453 4.3 11.2334 4.38779 11.0771 4.54407C10.9208 4.70035 10.833 4.91232 10.833 5.13333C10.833 5.35434 10.9208 5.5663 11.0771 5.72259C11.2334 5.87887 11.4453 5.96666 11.6663 5.96666ZM19.2438 14.9158C19.7268 15.4001 19.9979 16.0561 19.9979 16.74C19.9979 17.4239 19.7268 18.0799 19.2438 18.5642L18.4855 19.4383C11.6605 25.9725 -4.94784 9.36833 1.4855 2.52166L2.44383 1.68833C2.92864 1.21889 3.57877 0.959204 4.25358 0.965442C4.92839 0.97168 5.57362 1.24334 6.04966 1.72166C6.0755 1.7475 7.61966 3.75333 7.61966 3.75333C8.07785 4.23469 8.33292 4.8741 8.33183 5.53867C8.33074 6.20323 8.07359 6.84181 7.61383 7.32166L6.64883 8.535C7.18287 9.83259 7.96805 11.0119 8.95925 12.0051C9.95046 12.9983 11.1281 13.7858 12.4247 14.3225L13.6455 13.3517C14.1254 12.8923 14.7639 12.6354 15.4282 12.6345C16.0926 12.6335 16.7318 12.8886 17.213 13.3467C17.213 13.3467 19.218 14.89 19.2438 14.9158ZM18.0972 16.1275C18.0972 16.1275 16.103 14.5933 16.0772 14.5675C15.9055 14.3973 15.6735 14.3018 15.4317 14.3018C15.19 14.3018 14.958 14.3973 14.7863 14.5675C14.7638 14.5908 13.083 15.93 13.083 15.93C12.9697 16.0202 12.8349 16.0793 12.6919 16.1015C12.5488 16.1237 12.4024 16.1082 12.2672 16.0567C10.5875 15.4313 9.06194 14.4523 7.79369 13.1859C6.52544 11.9195 5.54416 10.3954 4.91633 8.71666C4.86066 8.57954 4.84251 8.43007 4.86375 8.28361C4.88499 8.13715 4.94484 7.99899 5.03716 7.88333C5.03716 7.88333 6.37633 6.20166 6.39883 6.18C6.56905 6.00832 6.66456 5.77634 6.66456 5.53458C6.66456 5.29282 6.56905 5.06084 6.39883 4.88916C6.373 4.86416 4.83883 2.86833 4.83883 2.86833C4.66458 2.71209 4.43717 2.62841 4.2032 2.63445C3.96924 2.64049 3.74645 2.7358 3.5805 2.90083L2.62216 3.73416C-2.0795 9.3875 12.313 22.9817 17.2672 18.3L18.0263 17.425C18.2042 17.2602 18.3111 17.0327 18.3243 16.7906C18.3375 16.5484 18.2561 16.3107 18.0972 16.1275Z" fill="#1B1B1D"/>
</g>
<defs>
<clipPath id="clip0_3040_57773">
<rect width="20" height="20" fill="white" transform="translate(0 0.966309)"/>
</clipPath>
</defs>
</svg>
