<svg width="20" height="20" viewBox="0 0 20 20" fill="none" xmlns="http://www.w3.org/2000/svg">
<g clip-path="url(#clip0_5823_109990)">
<path d="M18.9083 7.35943L12.6375 1.08859C11.9333 0.383594 10.9967 -0.00390625 10.0008 -0.00390625C9.005 -0.00390625 8.06833 0.383594 7.36333 1.08859L1.0925 7.35943C0.388333 8.06359 0 9.00026 0 9.99609C0 10.9919 0.3875 11.9278 1.09167 12.6319L7.3625 18.9028C8.06667 19.6078 9.00333 19.9961 10 19.9961C10.9967 19.9961 11.9325 19.6078 12.6367 18.9028L18.9075 12.6319C19.6117 11.9278 20 10.9911 20 9.99609C20 9.00109 19.6125 8.06359 18.9075 7.35943H18.9083ZM18.3192 12.0428L12.0483 18.3136C10.9542 19.4069 9.04583 19.4069 7.9525 18.3136L1.68167 12.0428C0.553333 10.9144 0.553333 9.07693 1.68167 7.94859L7.9525 1.67776C8.49917 1.13109 9.22667 0.829427 10.0008 0.829427C10.775 0.829427 11.5017 1.13026 12.0483 1.67776L18.3192 7.94859C19.4475 9.07693 19.4475 10.9144 18.3192 12.0428ZM10.8333 14.1669C10.8333 14.6269 10.46 15.0003 10 15.0003C9.54 15.0003 9.16667 14.6269 9.16667 14.1669C9.16667 13.7069 9.54 13.3336 10 13.3336C10.46 13.3336 10.8333 13.7069 10.8333 14.1669ZM9.58333 11.2503V5.41693C9.58333 5.18693 9.77 5.00026 10 5.00026C10.23 5.00026 10.4167 5.18693 10.4167 5.41693V11.2503C10.4167 11.4803 10.23 11.6669 10 11.6669C9.77 11.6669 9.58333 11.4803 9.58333 11.2503Z" fill="#1B1B1D"/>
</g>
<defs>
<clipPath id="clip0_5823_109990">
<rect width="20" height="20" fill="white"/>
</clipPath>
</defs>
</svg>
