<?xml version="1.0" standalone="no"?>
<!DOCTYPE svg PUBLIC "-//W3C//DTD SVG 1.1//EN" "http://www.w3.org/Graphics/SVG/1.1/DTD/svg11.dtd" >
<svg xmlns="http://www.w3.org/2000/svg">
<metadata>Generated by IcoMoon</metadata>
<defs>
<font id="BS_new" horiz-adv-x="1024">
<font-face units-per-em="1024" ascent="960" descent="-64" />
<missing-glyph horiz-adv-x="1024" />
<glyph unicode="&#x20;" horiz-adv-x="512" d="" />
<glyph unicode="&#xe900;" glyph-name="Property-1Instagram" d="M512 867.8c136.801 0 153.001-0.6 206.802-3 49.997-2.2 77-10.6 94.996-17.601 23.803-9.2 41.001-20.4 58.803-38.2 17.997-18 29-35 38.2-58.8 6.999-18 15.396-45.2 17.597-95 2.401-54 3-70.2 3-206.8 0-136.802-0.599-153.001-3-206.802-2.202-49.997-10.598-77-17.597-94.996-9.201-23.803-20.403-41.001-38.2-58.803-18.002-17.997-35-29-58.803-38.2-17.997-6.999-45.199-15.396-94.996-17.597-54.001-2.401-70.2-3-206.802-3-136.8 0-153 0.599-206.8 3-50 2.202-77 10.598-95 17.597-23.8 9.201-41 20.403-58.8 38.2-18 18.002-29 35-38.2 58.803-7 17.997-15.4 45.199-17.6 94.996-2.4 54.001-3 70.2-3 206.802 0 136.8 0.6 153 3 206.8 2.2 50 10.6 77 17.6 95 9.2 23.8 20.4 41 38.2 58.8 18 18 35 29 58.8 38.2 18 7 45.2 15.4 95 17.601 53.8 2.4 70 3 206.8 3zM512 960c-139 0-156.4-0.6-211-3-54.4-2.4-91.8-11.2-124.2-23.8-33.8-13.2-62.4-30.6-90.8-59.2-28.6-28.4-46-57-59.2-90.6-12.6-32.6-21.4-69.8-23.8-124.2-2.4-54.8-3-72.2-3-211.2 0-138.998 0.6-156.401 3-211 2.4-54.4 11.2-91.802 23.8-124.201 13.2-33.797 30.6-62.397 59.2-90.798 28.4-28.401 57-46.003 90.6-59.003 32.6-12.6 69.8-21.396 124.2-23.798 54.6-2.401 72-3 211-3 138.998 0 156.401 0.599 211.001 3 54.4 2.401 91.802 11.197 124.201 23.798 33.597 13 62.198 30.602 90.598 59.003s45.998 57.001 58.998 90.598c12.6 32.599 21.402 69.801 23.803 124.201 2.401 54.6 3 71.997 3 211 0 139-0.599 156.4-3 211-2.401 54.4-11.203 91.8-23.803 124.2-12.595 34-29.998 62.6-58.598 91-28.401 28.4-57.001 46-90.598 59-32.599 12.6-69.801 21.4-124.201 23.8-54.799 2.6-72.202 3.2-211.2 3.2zM512 711c-145.2 0-263-117.8-263-263 0-145.198 117.8-262.999 263-262.999 145.198 0 262.999 117.801 262.999 262.999 0 145.2-117.801 263-262.999 263zM512 277.402c-94.2 0-170.6 76.401-170.6 170.598 0 94.2 76.4 170.6 170.6 170.6 94.198 0 170.598-76.4 170.598-170.6 0-94.198-76.401-170.598-170.598-170.598zM846.802 721.399c0-34-27.602-61.4-61.404-61.4-33.997 0-61.399 27.6-61.399 61.4 0 34 27.602 61.4 61.399 61.4 33.802 0 61.404-27.6 61.404-61.4z" />
<glyph unicode="&#xe901;" glyph-name="Property-1" d="M725.335 170.68v-42.67c0-105.81-86.19-192-192-192h-341.335c-105.814 0-192 86.19-192 192v341.335c0 105.813 86.186 192 192 192h85.334c11.946 0 21.333-9.387 21.333-21.334s-9.386-21.334-21.333-21.334h-85.334c-82.346 0-149.333-66.986-149.333-149.333v-341.335c0-82.345 66.987-149.33 149.333-149.33h341.335c82.345 0 149.33 66.985 149.33 149.33v42.67c0 11.945 9.39 21.33 21.335 21.33s21.335-9.385 21.335-21.33zM992.855 715.105l-230.83 238.506c-8.105 8.533-21.76 8.533-30.29 0.427-8.535-8.107-8.535-21.76-0.43-30.293l231.255-238.507c7.255-7.253 11.945-15.786 14.935-25.173-1.71 0.426-3.84 1.28-5.975 1.28h-438.185c-105.815 0-192.002-86.187-192.002-192v-255.999c0-11.945 9.386-21.335 21.333-21.335s21.334 9.39 21.334 21.335v255.999c0 82.346 66.986 149.333 149.335 149.333h438.185c0 0 3.84 0.427 5.975 1.28-2.99-9.386-7.68-17.92-14.935-25.173l-230.825-238.079c-8.11-8.535-8.11-21.76 0.425-30.295 4.265-3.84 9.385-5.97 14.935-5.97 5.545 0 11.090 2.13 15.36 6.4l230.825 238.077c41.385 41.387 41.385 109.227 0 150.614l-0.425-0.426z" />
<glyph unicode="&#xe902;" glyph-name="Property-11" d="M804.398 399.104c8.361-8.279 8.361-21.847 0.082-30.167-4.178-4.224-9.682-6.272-15.104-6.272-5.417 0-10.88 2.094-15.058 6.231l-240.384 239.146-0.558-650.666c0-11.776-9.554-21.335-21.33-21.335-11.778 0-21.336 9.6-21.336 21.335l0.554 650.624-241.578-239.145c-8.362-8.32-21.888-8.192-30.166 0.169s-8.192 21.888 0.171 30.167l244.65 242.217c25.642 25.686 70.744 25.77 96.641-0.086l243.415-242.218zM512 960c-275.071 0-499.753-215.126-511.529-489.77-0.512-11.776 8.619-21.718 20.395-22.23 12.203-0.087 21.76 8.618 22.229 20.438 10.794 251.733 216.746 448.896 468.905 448.896s458.112-197.163 468.864-448.896c0.512-11.478 9.943-20.438 21.335-20.438h0.896c11.735 0.554 20.905 10.454 20.439 22.23-11.735 274.645-236.462 489.77-511.534 489.77z" />
<glyph unicode="&#xe903;" glyph-name="tg" d="M834.25 832.125c-10.75-0.5-20.875-3.625-29.875-7.125h-0.125c-9.125-3.625-52.5-21.875-118.375-49.5-65.875-27.75-151.375-63.75-236.25-99.5-169.5-71.375-336.125-141.625-336.125-141.625l2 0.75c0 0-11.5-3.75-23.5-12-6.125-4-12.875-9.5-18.75-18.125s-10.625-21.875-8.875-35.5c2.875-23.125 17.875-37 28.625-44.625 10.875-7.75 21.25-11.375 21.25-11.375h0.25l156.25-52.625c7-22.5 47.625-156 57.375-186.75 5.75-18.375 11.375-29.875 18.375-38.625 3.375-4.5 7.375-8.25 12.125-11.25 1.875-1.125 3.875-2 5.875-2.75 0.625-0.375 1.25-0.5 2-0.625l-1.625 0.375c0.5-0.125 0.875-0.5 1.25-0.625 1.25-0.375 2.125-0.5 3.75-0.75 24.75-7.5 44.625 7.875 44.625 7.875l1.125 0.875 92.25 84 154.625-118.625 3.5-1.5c32.25-14.125 64.875-6.25 82.125 7.625 17.375 14 24.125 31.875 24.125 31.875l1.125 2.875 119.5 612.125c3.375 15.125 4.25 29.25 0.5 43s-13.375 26.625-25 33.5c-11.75 7-23.375 9.125-34.125 8.625zM831 766.5c-0.125-2 0.25-1.75-0.625-5.625v-0.375l-118.375-605.75c-0.5-0.875-1.375-2.75-3.75-4.625-2.5-2-4.5-3.25-14.875 0.875l-189.125 145-114.25-104.125 24 153.25c0 0 296.25 276.125 309 288s8.5 14.375 8.5 14.375c0.875 14.5-19.25 4.25-19.25 4.25l-389.625-241.375-0.125 0.625-186.75 63c-0.125 0-0.375 0.125-0.5 0.125 0.125 0 1 0.375 1 0.375l1 0.5 1 0.375c0 0 166.75 70.25 336.25 141.625 84.875 35.75 170.375 71.75 236.125 99.5 65.75 27.625 114.375 47.875 117.125 49 2.625 1 1.375 1 3.25 1z" />
<glyph unicode="&#xe904;" glyph-name="vip_icon" d="M255.994 618.666v308.736c0 32.171 41.728 44.843 59.606 18.048l68.394-113.451 98.006 114.347c15.786 18.389 44.244 18.389 59.988 0l98.007-114.347 68.393 113.451c17.879 26.795 59.607 14.123 59.607-18.048v-308.736c0-141.184-114.816-256.002-256.001-256.002s-256 114.818-256 256.002zM512 320c-190.782-0.215-345.388-154.819-345.6-345.6 0-21.207 17.192-38.4 38.399-38.4h614.401c21.207 0 38.4 17.193 38.4 38.4-0.215 190.781-154.819 345.39-345.6 345.6z" />
<glyph unicode="&#xe905;" glyph-name="Property-1-" d="M1011.415 246.733l-55.552 148.137c-11.822 31.447-30.766 58.922-54.528 80.982 39.721 22.826 90.409 62.421 118.656 125.354 9.641 21.504 0 46.762-21.463 56.362-21.417 9.643-46.761 0-56.407-21.461-41.897-85.419-112.041-107.179-141.010-108.246l8.96 168.534 39.68 128.554c7.552 36.394-6.272 73.77-35.159 95.36-37.417 27.904-93.056 38.997-131.712 39.68-38.441-0.256-95.191-11.904-132.777-40.064-28.8-21.632-42.541-59.050-33.966-99.328l38.574-124.202 8.873-163.030h-94.55v128c0 31.446-17.28 58.666-42.666 73.472v180.437c0 15.616-7.936 29.824-21.206 38.016-13.312 8.149-29.568 8.96-43.477 1.963l-70.016-35.029c-22.187-11.051-35.968-33.365-35.968-58.155v-127.274c-25.387-14.806-42.667-42.027-42.667-73.472v-135.723c-65.664-17.578-120.96-65.621-145.365-131.074l-55.638-149.289c-8.021-23.977-12.032-48.983-12.032-74.281 0-129.536 105.386-234.967 234.966-234.967h554.067c129.582 0 234.967 105.431 234.967 234.967 0 25.344-4.055 50.345-12.585 75.776zM601.303 851.616c17.577 13.184 55.040 24.192 81.618 23.040 28.718-1.066 63.191-9.77 80.64-22.741 2.478-1.835 3.502-6.016 3.671-5.632l-30.935-99.627h-107.858l-29.742 95.275c-0.809 3.882 0.256 7.978 2.606 9.685zM722.688 661.323l-6.784-128h-66.857l-6.999 128h80.64zM298.368 661.323h85.334v-128h-85.334v128zM789.033 21.325h-554.067c-82.518 0-149.632 67.113-149.632 149.632 0 16.128 2.602 32.041 7.168 45.865l55.125 147.881c18.603 49.838 66.774 83.287 119.936 83.287h488.534c53.079 0 101.207-33.367 119.849-83.072l55.086-146.688c5.074-15.232 7.68-31.145 7.68-47.273 0-82.519-67.159-149.632-149.678-149.632z" />
<glyph unicode="&#xe906;" glyph-name="resident" d="M512 448c141.384 0 256 114.615 256 256s-114.616 256-256 256c-141.385 0-256-114.615-256-256s114.615-256 256-256zM512 362.665c-211.98-0.236-383.764-172.017-384-384 0-23.562 19.102-42.665 42.666-42.665h682.664c23.567 0 42.67 19.103 42.67 42.665-0.236 211.983-172.022 383.77-384 384z" />
<glyph unicode="&#xe907;" glyph-name="Property-15" d="M682.665 960h-5.545c-19.092-0.181-37.591-6.699-52.577-18.53-14.991-11.831-25.626-28.305-30.239-46.835-4.941-18.041-15.672-33.959-30.541-45.306-14.874-11.346-33.060-17.492-51.763-17.492-18.705 0-36.892 6.146-51.763 17.492s-25.602 27.265-30.541 45.306c-4.613 18.531-15.248 35.005-30.238 46.835s-33.483 18.349-52.578 18.53h-5.546c-56.559-0.068-110.782-22.566-150.775-62.559s-62.491-94.216-62.559-150.775v-682.666c0-33.946 13.486-66.504 37.49-90.511 24.005-24.003 56.562-37.489 90.51-37.489h90.88c19.095 0.179 37.589 6.697 52.578 18.529s25.625 28.303 30.238 46.838c4.94 18.038 15.67 33.956 30.541 45.302 14.871 11.351 33.058 17.495 51.763 17.495 18.703 0 36.89-6.144 51.763-17.495 14.868-11.346 25.6-27.264 30.541-45.302 4.613-18.534 15.247-35.005 30.239-46.838 14.986-11.832 33.485-18.35 52.577-18.529h90.88c33.946 0 66.504 13.486 90.511 37.489 24.003 24.008 37.489 56.566 37.489 90.511v682.666c-0.067 56.559-22.564 110.782-62.556 150.775-39.997 39.993-94.218 62.491-150.779 62.559zM768 21.335l-91.433 2.688c-10.025 36.204-31.708 68.091-61.701 90.716s-66.606 34.724-104.175 34.417c-37.566-0.307-73.981-13-103.599-36.111-29.618-23.107-50.783-55.347-60.212-91.709h-90.88c-11.316 0-22.169 4.495-30.17 12.493-8.002 8.003-12.496 18.857-12.496 30.172v170.665h85.333c11.316 0 22.169 4.495 30.17 12.498s12.497 18.857 12.497 30.172c0 11.315-4.495 22.164-12.497 30.167s-18.854 12.498-30.17 12.498h-85.333v426.666c0 33.948 13.486 66.505 37.49 90.51s56.562 37.49 90.51 37.49l6.101-2.688c9.994-35.986 31.488-67.714 61.202-90.34s66.016-34.908 103.364-34.972c37.852 0.322 74.563 13.001 104.545 36.106s51.599 55.374 61.558 91.894h4.562c33.951 0 66.509-13.486 90.511-37.49s37.489-56.562 37.489-90.51v-426.666h-85.33c-11.315 0-22.17-4.495-30.172-12.498s-12.498-18.852-12.498-30.167c0-11.315 4.495-22.17 12.498-30.172s18.857-12.498 30.172-12.498h85.33v-170.665c0-11.315-4.495-22.17-12.493-30.172-8.003-7.997-18.857-12.493-30.172-12.493zM554.675 320h-85.334c-11.316 0-22.169-4.495-30.17-12.498s-12.496-18.852-12.496-30.167c0-11.315 4.495-22.17 12.496-30.172s18.854-12.498 30.17-12.498h85.334c11.315 0 22.17 4.495 30.172 12.498 7.997 8.003 12.493 18.857 12.493 30.172s-4.495 22.164-12.493 30.167c-8.003 8.003-18.857 12.498-30.172 12.498z" />
<glyph unicode="&#xe908;" glyph-name="Property-16" d="M832 960c-105.856 0-192-86.144-192-192 0-13.354 1.408-26.368 4.009-38.954-46.93-25.6-87.122-41.515-132.009-46.422v42.752c0 58.794-47.83 106.666-106.666 106.666h-42.667c-58.837 0-106.666-47.872-106.666-106.666v-128.896c-41.642-14.678-80.854-36.352-115.712-64.982-89.173-73.301-140.288-181.459-140.288-296.746 0-66.816 17.152-133.335 49.664-192.297 36.138-65.623 106.922-106.368 184.746-106.368h299.094c78.167 0 149.248 41.216 185.513 107.52 75.863 138.834 63.662 302.377-31.826 426.878-45.271 59.008-106.327 102.57-175.15 126.549 58.030 5.163 110.423 23.808 168.32 54.699 35.118-45.654 89.728-75.648 151.68-75.648 105.856 0 192 86.144 192 192s-86.185 191.914-192.041 191.914zM341.334 725.334c0 11.776 9.6 21.333 21.333 21.333h42.667c11.733 0 21.333-9.557 21.333-21.333v-109.355c-28.672 3.072-57.258 2.987-85.333-0.17v109.526zM619.52 418.432c89.216-116.265 71.209-248.791 24.576-333.993-21.248-38.912-63.616-63.104-110.592-63.104h-299.094c-46.762 0-88.874 23.849-109.994 62.208-25.6 46.418-39.082 98.688-39.082 151.122 0 89.687 39.808 173.824 109.141 230.829 53.846 44.245 120.918 67.712 190.336 67.712 20.054 0 40.235-1.963 60.416-5.931 67.966-13.397 131.454-53.077 174.294-108.842zM832 661.334c-58.839 0-106.665 47.872-106.665 106.666s47.826 106.666 106.665 106.666c58.839 0 106.665-47.872 106.665-106.666s-47.826-106.666-106.665-106.666z" />
<glyph unicode="&#xe909;" glyph-name="Property-17" d="M613.545 874.676c33.792 0 66.606-9.899 94.464-28.502l80.384-54.4c19.502-13.184 45.998-8.15 59.264 11.434 13.23 19.499 8.064 46.038-11.433 59.264l-80.64 54.571c-42.199 28.117-91.351 43.008-142.039 43.008h-250.878c-82.346 0-149.333-66.987-149.333-149.333v-75.094c-127.616-58.112-213.334-187.52-213.334-330.285v-256c0-117.632 95.702-213.33 213.334-213.33h256c117.634 0 213.331 95.698 213.331 213.33v256c0 142.765-85.714 272.173-213.331 330.242v139.094h144.211zM298.666 810.676c0 35.285 28.715 64 64 64h21.334v-128h-85.334v64zM597.335 405.34v-256c0-70.569-57.431-128-128.002-128h-256c-70.571 0-128 57.431-128 128v256c0 112.642 70.101 213.848 172.842 256.002h166.314c102.742-42.154 172.845-143.36 172.845-256.002zM405.632 444.851c-36.096 35.201-92.502 35.243-128.598 0l-41.301-40.407c-58.24-58.194-58.24-153.001 0-211.2 28.202-28.201 65.706-43.73 105.6-43.73s77.354 15.529 105.6 43.73c58.24 58.199 58.24 153.006-0.342 211.543l-40.96 40.064zM386.602 253.532c-24.149-24.146-66.346-24.146-90.496 0-24.96 24.96-24.96 65.582-0.341 90.199l40.96 40.023c2.56 2.56 6.656 2.56 9.258 0l40.618-39.726c24.96-24.96 24.96-65.536 0-90.496zM896 618.676c47.145 0 85.335-38.187 85.335-85.334s-38.19-85.334-85.335-85.334c-47.145 0-85.335 38.187-85.335 85.334s38.19 85.334 85.335 85.334zM909.993 229.98c4.695 11.31 7.342 23.68 7.342 36.695 0 53.033-42.967 96-96 96-53.038 0-96-42.967-96-96 0-32.681 16.384-61.44 41.344-78.761-25.431-26.798-41.344-62.766-41.344-102.574 0-82.345 66.985-149.33 149.33-149.33 82.35 0 149.335 66.985 149.335 149.33 0 70.103-48.768 128.686-114.007 144.64zM874.665 21.34c-35.282 0-64 28.718-64 64 0 35.287 28.718 64 64 64 35.287 0 64-28.713 64-64 0-35.282-28.713-64-64-64z" />
<glyph unicode="&#xe90a;" glyph-name="Property-1-2" d="M1024.005 85.335c0-82.35-66.985-149.335-149.335-149.335h-256c-23.552 0-42.665 19.072-42.665 42.665 0 23.598 19.113 42.67 42.665 42.67h256c35.287 0 64 28.713 64 64 0 35.282-28.713 64-64 64h-234.665c-23.552 0-42.665 19.072-42.665 42.665s19.113 42.665 42.665 42.665h131.031c45.353 0 82.304 36.91 82.304 82.304 0 82.903-54.19 120.704-54.19 120.704-20.178-44.201-64.809-74.962-116.48-74.962-23.552 0-42.665 19.072-42.665 42.665s19.113 42.666 42.665 42.666c23.552 0 42.67 19.158 42.67 42.667v21.333c0 15.19 8.105 29.27 21.248 36.907 13.184 7.637 29.394 7.637 42.578 0.128 157.23-89.814 152.622-208.941 149.463-235.181-0.553-31.186-10.199-59.986-25.641-84.818 63.698-17.070 110.976-74.711 110.976-143.703l0.041-0.041zM512.005 187.991v-102.656c0-82.35-66.988-149.335-149.334-149.335h-128c-82.347 0-149.334 66.985-149.334 149.335v102.656c-7.168 37.76-65.877 352.638-84.736 587.091-3.84 47.616 12.501 95.062 44.8 130.048 32.17 34.859 77.824 54.87 125.269 54.87h256c47.446 0 93.101-19.968 125.229-54.826 32.338-35.030 48.681-82.432 44.841-130.091-18.857-234.453-77.609-549.331-84.78-587.091h0.044zM85.637 781.91c15.914-197.675 61.013-455.126 77.823-547.245h270.422c16.854 92.119 61.952 349.57 77.866 547.245 1.921 24.32-6.058 47.53-22.528 65.365-16.256 17.664-38.485 27.392-62.506 27.392h-256c-24.022 0-46.25-9.728-62.549-27.392-16.47-17.834-24.491-41.045-22.528-65.365zM426.671 149.335h-256v-64c0-35.287 28.714-64 64-64h128c35.285 0 64 28.713 64 64v64z" />
<glyph unicode="&#xe90b;" d="M889.099 369.566l-0.111 0.223-0.076 0.187-129.594 323.97c-14.171 35.432-47.972 58.323-86.114 58.323h-209.475v55.615c0 10.24-8.308 18.551-18.549 18.551s-18.551-8.311-18.551-18.551v-55.652h-209.438c-38.14 0-71.94-22.891-86.112-58.323l-129.744-324.342c-0.89-2.186-1.336-40.849-1.336-40.849 0-81.51 54.057-149.927 131.45-166.36 11.65-2.489 23.522-3.749 35.247-3.749h0.297c92.012 0.147 166.92 75.055 166.92 166.957 0 0-0.445 41.775-1.336 44.001l-0.111 0.223-0.074 0.187-136.385 341c6.567 2.708 13.727 4.155 21.185 4.155h209.475v-742.030h-259.71c-10.24 0-18.551-8.308-18.551-18.548s8.311-18.552 18.551-18.552h556.522c10.24 0 18.552 8.312 18.552 18.552s-8.312 18.548-18.552 18.548h-259.709v742.030h209.475c7.457 0 14.652-1.447 21.183-4.155l-136.57-341.409c-0.89-2.186-1.336-44.001-1.336-44.001 0-91.902 74.908-166.81 166.921-166.957h0.294c11.727 0 23.597 1.26 35.212 3.749 77.428 16.473 131.486 84.885 131.486 166.36 0 0-0.445 38.663-1.336 40.849zM166.92 195.709c-10.5-0.592-18.551 0.966-27.752 2.934-60.067 12.76-102.066 66.262-102.066 130.075v15.4h259.71v-18.552c0-71.457-58.25-129.745-129.892-129.857zM287.981 381.217h-242.050c0 0 120.543 301.227 121.099 302.34l120.95-302.34zM723.403 683.557c0.557-1.113 121.064-302.34 121.064-302.34h-242.011l120.948 302.34zM751.229 198.643c-9.163-1.968-17.288-3.602-27.715-2.934-71.64 0.111-129.892 58.399-129.892 129.857v18.552h259.713v-15.4c0-63.813-42.002-117.315-102.106-130.075z" />
<glyph unicode="&#xe90c;" glyph-name="Property-19" d="M1024 533.324c-1.664 92.672-80.425 170.667-176.809 170.667-17.070 0-34.222-2.262-51.246-6.315 8.96 24.576 14.679 50.603 14.679 78.806 0 101.162-76.544 183.467-170.624 183.467-48.343 0-93.783-21.76-127.831-62.464-32.553 39.808-78.889 62.464-128.169 62.464-94.122 0-170.71-82.304-170.71-183.467 0-28.246 5.718-54.272 14.72-78.848-17.066 4.054-34.218 6.314-51.328 6.314-97.45 0.043-176.682-76.544-176.682-170.666 0-49.238 21.888-95.486 60.288-127.957-38.4-32.553-60.288-78.807-60.288-128.041 0-94.080 79.232-170.624 176.726-170.624 107.776 0 217.13 87.977 288.981 160.338 5.504-101.888 50.262-240.256 195.454-325.202 6.743-3.968 14.167-5.847 21.504-5.847 14.679 0 28.928 7.552 36.864 21.12 11.863 20.352 5.038 46.464-15.273 58.368-129.495 75.776-152.064 196.439-153.431 265.431 75.648-74.030 196.439-174.254 296.448-174.254 97.495 0 176.814 76.544 176.814 170.624 0 49.239-21.934 95.534-60.375 128.046 38.441 32.466 60.375 78.76 60.375 127.998l-0.087 0.042zM176.726 191.99c-50.39 0-91.392 38.272-91.392 85.335 0 24.407 11.392 47.575 31.317 63.872 15.958 10.583 32.683 32.553 32.683 64.128s-16.726 53.546-32.726 64.085c-19.926 16.298-31.274 39.466-31.274 63.958 0 47.018 41.002 85.29 91.392 85.29 101.546 0 234.752-134.23 297.856-213.333-49.707-63.575-189.824-213.335-297.856-213.335zM458.794 554.146c-78.762 67.158-160.128 136.618-160.128 222.378 0 54.144 38.272 98.134 85.376 98.134 24.619 0 48.171-12.502 62.55-31.36 9.898-15.786 32.298-32.64 65.408-32.64 33.111 0 55.465 16.81 63.36 29.61 16.471 21.846 40.023 34.39 64.681 34.39 47.063 0 85.294-44.032 85.294-98.134 0-85.76-81.367-155.221-160.128-222.378-18.56-15.872-36.48-31.146-53.207-46.506-16.726 15.36-34.646 30.677-53.206 46.506zM847.232 191.99c-81.239 0-222.976 128.471-297.513 213.632 60.457 76.46 195.072 213.036 297.513 213.036 50.391 0 91.433-40.406 91.433-87.424-0.64-23.638-11.945-45.952-31.314-61.782-15.918-10.581-32.64-32.511-32.64-64.127s16.722-53.591 32.64-64.128c19.968-16.343 31.36-39.511 31.36-63.913 0-47.063-41.047-85.294-91.479-85.294z" />
<glyph unicode="&#xe90d;" glyph-name="Property-110" d="M670.157 460.502l-97.833-97.837 97.833-97.833c16.681-16.681 16.681-43.648 0-60.329-8.32-8.32-19.241-12.503-30.167-12.503-10.921 0-21.842 4.183-30.162 12.503l-97.837 97.833-97.835-97.833c-8.32-8.32-19.242-12.503-30.165-12.503s-21.846 4.183-30.166 12.503c-16.682 16.681-16.682 43.648 0 60.329l97.834 97.833-97.834 97.837c-16.682 16.682-16.682 43.648 0 60.33s43.648 16.682 60.33 0l97.835-97.833 97.837 97.833c16.681 16.682 43.648 16.682 60.329 0s16.681-43.648 0-60.33zM981.325 746.666c0-23.594-19.113-42.666-42.665-42.666h-37.76l-54.446-574.807c-10.45-110.121-101.76-193.193-212.393-193.193h-244.353c-110.464 0-201.77 82.903-212.352 192.896l-55.296 575.104h-36.693c-23.552 0-42.667 19.072-42.667 42.666s19.115 42.667 42.667 42.667h174.976c19.84 97.237 106.026 170.666 209.024 170.666h85.334c102.999 0 189.225-73.43 209.024-170.666h174.976c23.552 0 42.624-19.072 42.624-42.667zM348.663 789.334h326.655c-17.618 49.664-65.024 85.333-120.658 85.333h-85.336c-55.637 0-103.040-35.669-120.661-85.333zM815.181 704h-607.404l54.528-566.912c6.314-66.007 61.098-115.753 127.402-115.753h244.353c66.391 0 121.175 49.833 127.447 115.968l53.673 566.697z" />
<glyph unicode="&#xe90e;" glyph-name="Property-1Info" d="M512 960c-101.264 0-200.254-30.028-284.452-86.287s-149.822-136.223-188.574-229.779c-38.752-93.556-48.891-196.502-29.136-295.82s68.519-190.546 140.124-262.154c71.604-71.603 162.834-120.366 262.152-140.124 99.318-19.753 202.266-9.615 295.818 29.138 93.558 38.753 173.522 104.376 229.78 188.575s86.287 183.188 86.287 284.452c-0.148 135.746-54.139 265.89-150.124 361.876s-226.13 149.977-361.876 150.124zM512 21.335c-84.386 0-166.878 25.021-237.043 71.905s-124.852 113.521-157.145 191.483c-32.293 77.962-40.743 163.75-24.28 246.515s57.099 158.79 116.77 218.461c59.671 59.67 135.695 100.306 218.46 116.769s168.553 8.014 246.515-24.28c77.967-32.293 144.599-86.981 191.483-157.146s71.905-152.656 71.905-237.043c-0.123-113.121-45.112-221.573-125.102-301.563s-188.442-124.979-301.563-125.102zM512.010 533.334h-42.669c-11.316 0-22.169-4.495-30.17-12.497s-12.496-18.854-12.496-30.17c0-11.316 4.495-22.169 12.496-30.17s18.854-12.496 30.17-12.496h42.669v-256.001c0-11.315 4.495-22.17 12.493-30.172 8.003-7.997 18.857-12.493 30.172-12.493s22.17 4.495 30.172 12.493c7.997 8.003 12.493 18.857 12.493 30.172v256.001c0 22.631-8.991 44.337-24.991 60.34-16.005 16.003-37.709 24.993-60.339 24.993zM512 618.666c35.348 0 64 28.654 64 64s-28.652 64-64 64c-35.346 0-64-28.654-64-64s28.654-64 64-64z" />
<glyph unicode="&#xe90f;" glyph-name="Property-111" d="M1024.005 619.094c0 48.469-26.921 92.885-73.769 119.765l-330.921 151.126c-65.152 37.504-149.42 37.461-212.908 0.896l-332.629-152.064c-0.598-0.298-1.195-0.598-1.75-0.896-45.099-25.942-71.979-70.358-71.979-118.826s26.923-92.886 73.771-119.766l96.896-44.246v-263.81c0-82.345 50.986-154.921 126.89-180.608 62.763-21.248 134.912-32 214.444-32 79.529 0 151.721 10.752 214.441 32 75.863 25.728 126.889 98.304 126.889 180.608v263.853l98.647 45.098c10.88 6.272 20.695 13.696 29.353 21.888v-436.824c0-11.776 9.559-21.33 21.335-21.33s21.335 9.554 21.335 21.33v533.336c0 0 0 0.086 0 0.128 0 0.086 0 0.214 0 0.298l-0.046 0.043zM810.675 191.319c0-64.046-39.342-120.366-97.879-140.206-58.327-19.753-125.911-29.737-200.791-29.737-74.878 0-142.462 9.984-200.787 29.737-58.539 19.84-97.878 76.16-97.878 140.206v244.306l191.318-87.337c32.81-18.857 70.4-28.247 107.777-28.247 36.905 0 73.6 9.175 105.129 27.351l193.065 88.279 0.046-244.352zM932.485 538.198l-334.418-152.918c-52.352-30.121-119.937-30.121-173.911 0.896l-330.922 151.083c-32.128 18.518-50.603 48.342-50.603 81.835 0 33.194 18.133 62.848 49.792 81.365l333.44 152.491c52.352 30.165 119.934 30.080 173.909-0.896l330.921-151.126c32.128-18.518 50.606-48.342 50.606-81.834s-18.432-63.318-48.814-80.896z" />
<glyph unicode="&#xe910;" glyph-name="Property-112" d="M1024 597.334c0 58.794-47.831 106.666-106.665 106.666-58.839 0-106.67-47.872-106.67-106.666 0-51.499 36.695-94.592 85.335-104.491v-215.507c0-164.695-134.016-298.67-298.665-298.67-164.653 0-298.669 133.975-298.669 298.67v43.73c142.976 10.967 255.998 130.519 255.998 276.269v213.333c0 82.347-66.985 149.334-149.331 149.334h-42.667c-11.776 0-21.333-9.557-21.333-21.333s9.557-21.333 21.333-21.333h42.667c58.837 0 106.666-47.872 106.666-106.667v-213.333c0-129.408-105.302-234.669-234.666-234.669s-234.667 105.261-234.667 234.669v213.333c0 58.795 47.829 106.667 106.667 106.667h42.666c11.776 0 21.334 9.557 21.334 21.333s-9.558 21.333-21.334 21.333h-42.666c-82.347 0-149.334-66.986-149.334-149.334v-213.333c0-145.707 113.024-265.302 256-276.269v-43.73c0-188.206 153.13-341.335 341.335-341.335 188.201 0 341.33 153.129 341.33 341.335v215.507c48.64 9.899 85.335 52.992 85.335 104.491zM917.335 533.334c-35.287 0-64 28.714-64 64s28.713 64 64 64c35.282 0 64-28.715 64-64s-28.718-64-64-64z" />
<glyph unicode="&#xe911;" glyph-name="Property-113" d="M170.454 319.959c11.221-2.56 22.912 4.69 25.429 16.256 18.859 85.545 49.238 223.486 67.712 307.113 27.35-111.915 128.214-195.328 248.446-195.328 71.168 0 137.303 28.501 186.158 80.298 8.064 8.576 7.721 22.058-0.855 30.166s-22.144 7.722-30.167-0.854c-40.745-43.136-95.872-66.902-155.177-66.902-103.040 0-189.226 73.472-209.024 170.752h38.998c134.869 4.011 250.451 94.123 290.259 221.398 54.062-34.218 94.254-92.374 112.43-168.362 2.217-9.174 55.593-251.435 83.497-378.241 2.519-11.561 14.167-18.816 25.431-16.256 11.52 2.56 18.77 13.911 16.256 25.431-3.287 14.976-80.855 367.145-83.671 379.006-34.688 145.323-139.735 235.605-274.135 235.605-13.438 0-26.494-1.365-39.379-3.371-115.158-16-203.52-101.547-234.752-232.235-2.816-11.861-80.384-364.030-83.67-379.006-2.56-11.52 4.736-22.871 16.256-25.431l-0.042-0.041zM341.29 704.129h-42.624c0 117.546 95.744 213.205 213.334 213.205 29.097 0 56.535-5.248 81.833-14.933-32.256-113.75-134.057-194.774-252.542-198.272zM512 362.665c-211.754 0-384-172.288-384-384v-21.33c0-11.776 9.558-21.335 21.334-21.335s21.333 9.559 21.333 21.335v21.33c0 125.998 68.822 236.032 170.667 295.168v-127.529c-36.694-9.559-64-42.665-64-82.304 0-47.063 38.272-85.335 85.333-85.335s85.334 38.272 85.334 85.335c0 39.639-27.306 72.745-64 82.304v148.567c39.552 16.082 82.73 25.129 128 25.129s88.448-9.047 128-25.129v-147.712c-48.64-9.902-85.335-52.992-85.335-104.494v-85.33c0-11.776 9.559-21.335 21.335-21.335s21.335 9.559 21.335 21.335v85.33c0 35.287 28.713 64 64 64 35.282 0 64-28.713 64-64v-85.33c0-11.776 9.554-21.335 21.33-21.335s21.335 9.559 21.335 21.335v85.33c0 51.502-36.695 94.592-85.335 104.494v126.633c101.847-59.136 170.67-169.129 170.67-295.168v-21.335c0-11.776 9.554-21.33 21.33-21.33s21.335 9.554 21.335 21.33v21.335c0 211.712-172.247 384-384 384v0.041zM405.334 64c0-23.511-19.115-42.665-42.667-42.665s-42.666 19.154-42.666 42.665c0 23.511 19.114 42.665 42.666 42.665s42.667-19.154 42.667-42.665z" />
<glyph unicode="&#xe912;" glyph-name="Property-1-1" d="M358.022 787.882l47.744-38.869-18.858-56.704c-5.888-18.688 0.725-39.126 16.426-50.902 8.064-6.016 17.664-9.174 27.69-9.174 9.174 0 18.048 2.688 25.728 7.808l55.678 37.291 56.75-36.992c16.425-10.667 37.888-9.771 53.417 2.133 15.529 11.99 21.847 32.555 15.529 51.499l-19.41 55.296 47.529 38.741c14.807 12.459 20.311 33.024 13.655 51.2s-24.064 30.379-43.438 30.379h-59.648l-21.458 60.245c-6.656 18.048-24.064 30.165-43.31 30.165-19.24 0-36.648-12.117-43.432-30.379l-21.376-59.989h-59.648c-19.328 0-36.736-12.16-43.392-30.208-6.698-18.090-1.28-38.742 13.824-51.542zM387.59 826.966h74.666c9.003 0 17.067 5.674 20.097 14.165l26.453 74.155h6.399l26.455-74.155c3.026-8.49 11.090-14.165 20.096-14.165h74.665l2.56-6.059-58.88-48c-6.953-5.674-9.641-15.104-6.656-23.594l24.361-69.462-5.417-3.754-68.521 44.63c-7.168 4.693-16.385 4.565-23.511-0.128l-67.37-45.099c-0.768-0.512-1.494-0.597-2.006-0.597l-3.498 4.309 23.424 70.358c2.773 8.406 0.085 17.706-6.784 23.254l-59.178 48.128 2.645 6.016zM1021.23 715.862c-6.656 18.176-24.064 30.378-43.433 30.378h-59.648l-21.463 60.246c-6.656 18.048-24.064 30.165-43.305 30.165s-36.649-12.117-43.433-30.378l-21.376-59.99h-59.648c-19.328 0-36.782-12.202-43.351-30.208-6.697-18.133-1.321-38.698 13.783-51.498l47.744-38.87-18.862-56.704c-5.888-18.688 0.727-39.125 16.384-50.858 8.023-6.058 17.623-9.216 27.735-9.216 9.175 0 18.048 2.688 25.728 7.808l55.68 37.29 56.745-36.992c16.384-10.666 37.888-9.77 53.422 2.134 15.529 11.99 21.842 32.554 15.529 51.498l-19.415 55.296 47.534 38.742c14.802 12.458 20.306 32.982 13.65 51.158zM921.477 649.558c-6.953-5.675-9.641-15.104-6.656-23.595l24.361-69.461-5.417-3.755-68.521 44.63c-7.168 4.65-16.43 4.566-23.511-0.128l-67.369-45.098c-0.768-0.512-1.495-0.598-2.007-0.598l-3.497 4.31 23.424 70.357c2.77 8.406 0.082 17.707-6.784 23.254l-59.182 48.128 2.647 5.974h74.665c9.006 0 17.070 5.674 20.096 14.165l26.455 74.155h6.4l26.455-74.155c3.026-8.49 11.090-14.165 20.096-14.165h74.665l2.56-6.059-58.88-47.957zM227.803 516.992c16.426-10.666 37.888-9.77 53.418 2.134 15.531 11.989 21.846 32.554 15.531 51.498l-19.414 55.296 47.53 38.742c14.806 12.458 20.31 33.024 13.654 51.2s-24.064 30.378-43.435 30.378h-59.647l-21.462 60.246c-6.656 18.048-24.064 30.165-43.306 30.165s-36.651-12.117-43.435-30.378l-21.376-59.99h-59.648c-19.328 0-36.779-12.202-43.349-30.208-6.699-18.133-1.323-38.698 13.781-51.498l47.744-38.87-18.859-56.704c-5.888-18.688 0.725-39.125 16.384-50.858 8.022-6.058 17.622-9.216 27.734-9.216 9.173 0 18.048 2.688 25.728 7.808l55.68 37.29 56.746-37.034zM159.025 597.248l-67.371-45.098c-0.768-0.512-1.493-0.598-2.005-0.598l-3.499 4.31 23.424 70.357c2.774 8.406 0.086 17.707-6.784 23.254l-59.179 48.128 2.645 5.974h74.667c9.002 0 17.066 5.674 20.096 14.165l26.454 74.155h6.4l26.453-74.155c3.030-8.49 11.094-14.165 20.096-14.165h74.666l2.561-6.059-58.88-48c-6.955-5.674-9.643-15.104-6.656-23.594l24.362-69.462-5.418-3.754-68.523 44.63c-7.125 4.65-16.384 4.565-23.509-0.128v0.042zM725.34 362.665h-178.478l25.047 142.082c0.655 14.45 0.655 22.030 0 22.742-5.161 18.944-17.152 33.878-33.751 42.026-16.809 8.192-36.179 8.534-54.654 0.854-10.837-4.48-21.418-15.658-28.97-30.378l-93.696-177.278h-62.122c-70.57 0-128-57.431-128-128v-170.67c0-70.569 57.43-128 128-128h357.505c81.065 0 151.465 57.728 167.378 137.216l27.264 136.366c7.552 37.76-2.13 76.457-26.537 106.24-24.407 29.778-60.457 46.848-98.985 46.848v-0.046zM213.382 64v170.665c0 47.063 38.272 85.335 85.334 85.335h42.666v-341.335h-42.666c-47.062 0-85.334 38.272-85.334 85.335zM809.006 217.943l-27.264-136.366c-11.945-59.602-64.722-102.912-125.522-102.912h-272.172v348.206c6.015 3.881 11.050 9.298 14.506 15.872l93.866 177.534c4.010 7.85 7.766 10.709 7.552 10.709 6.954 2.902 13.823 2.944 19.415 0.214 4.265-2.090 7.634-5.76 10.537-12.416l-25.002-148.649c-2.219-12.462 1.152-25.134 9.299-34.903 8.151-9.687 20.055-15.232 32.686-15.232h178.473c25.687 0 49.705-11.392 65.961-31.232 16.302-19.84 22.702-45.655 17.664-70.825z" />
<glyph unicode="&#xe913;" glyph-name="Property-114" d="M767.437 862.721c-81.582 72.746-191.104 107.264-300.801 94.634-170.368-19.541-311.168-156.8-334.763-326.272-17.962-128.598 28.928-256.427 125.398-341.89 53.418-47.314 84.054-116.265 84.054-189.056v-14.848c0-82.345 66.986-149.33 149.333-149.33h42.668c82.345 0 149.33 66.985 149.33 149.33v15.063c0 71.936 32.087 141.184 90.368 195.031 78.126 72.274 122.967 174.548 122.967 280.574 0 109.354-46.848 213.888-128.553 286.763zM639.99 85.335c0-58.798-47.831-106.67-106.665-106.67h-42.668c-58.837 0-106.666 47.872-106.666 106.67v14.848c0 16.594-1.408 33.065-4.054 49.152h264.318c-2.816-16.087-4.265-32.43-4.265-48.942v-15.058zM744.054 326.743c-42.112-38.912-72.32-85.038-89.047-134.743h-121.728v321.792c60.462 10.198 106.67 62.891 106.67 126.209 0 11.776-9.559 21.333-21.335 21.333s-21.335-9.557-21.335-21.333c0-47.062-38.272-85.334-85.331-85.334-47.062 0-85.334 38.272-85.334 85.334 0 11.776-9.558 21.333-21.334 21.333s-21.333-9.557-21.333-21.333c0-63.318 46.208-116.011 106.666-126.209v-321.792h-121.046c-15.957 49.536-44.714 94.295-84.010 129.152-85.76 75.945-127.402 189.611-111.446 304.043 20.95 150.528 146.006 272.384 297.344 289.792 13.782 1.579 27.478 2.347 41.045 2.347 83.968 0 163.2-29.995 226.601-86.486 72.576-64.767 114.263-157.653 114.263-254.848 0-95.573-38.784-184.105-109.271-249.257h-0.041z" />
<glyph unicode="&#xe914;" glyph-name="Property-115" d="M824.868 834.56l54.19-19.158 18.048-54.144c2.898-8.704 11.090-14.592 20.265-14.592s17.321 5.888 20.265 14.592l17.966 53.888 53.888 17.963c8.704 2.901 14.592 11.050 14.592 20.224s-5.888 17.322-14.592 20.224l-53.888 17.962-17.966 53.888c-5.842 17.408-34.642 17.408-40.489 0l-17.879-53.632-53.586-16.768c-8.75-2.73-14.807-10.752-14.976-19.968-0.174-9.216 5.504-17.45 14.162-20.48zM1010.616 147.799l-113.408 45.353-45.358 113.408c-6.4 16.215-33.152 16.215-39.593 0l-45.312-113.193-113.111-42.798c-8.146-3.113-13.609-10.834-13.778-19.538-0.174-8.704 4.992-16.686 13.056-20.055l113.705-47.913 45.44-113.623c3.2-8.105 11.095-13.399 19.799-13.399s16.594 5.335 19.794 13.399l45.358 113.408 113.408 45.353c8.105 3.246 13.394 11.095 13.394 19.799s-5.289 16.553-13.394 19.799zM872.842 99.031c-5.417-2.176-9.728-6.487-11.858-11.904l-28.974-72.366-28.969 72.366c-2.089 5.289-6.231 9.513-11.52 11.73l-72.745 30.679 72.018 27.264c5.591 2.135 10.030 6.487 12.247 12.032l28.969 72.361 28.974-72.361c2.176-5.417 6.441-9.728 11.858-11.904l72.366-28.969-72.366-28.928zM807.9 428.416c27.607 8.832 45.44 33.28 45.44 62.25s-17.833 53.419-45.952 62.422l-246.057 72.192-71.597 245.718c-8.448 27.733-32.682 45.909-61.654 46.293-28.416-1.195-53.632-17.152-63.104-45.355l-72.917-246.614-245.76-71.637c-27.733-8.448-45.909-32.683-46.293-61.654s17.152-53.632 45.355-63.104l246.699-72.919 72.362-246.61c8.832-27.607 33.28-45.44 62.25-45.44s53.419 17.833 62.422 45.952l72.237 246.057 246.569 72.448zM795.1 469.12l-256.937-75.433c-6.999-2.048-12.416-7.511-14.464-14.464l-75.352-256.768c-4.694-14.638-17.75-15.79-21.632-15.79s-16.939 1.152-21.462 15.278l-75.52 257.234c-2.048 6.958-7.466 12.416-14.422 14.464l-257.066 75.991c-14.592 4.864-15.531 17.962-15.488 21.846s1.365 16.938 15.829 21.333l256.725 74.795c6.998 2.005 12.459 7.466 14.507 14.421l75.989 257.067c4.779 14.25 17.366 15.488 21.547 15.488h0.256c3.882-0.043 16.938-1.366 21.333-15.83l74.796-256.682c2.048-6.998 7.465-12.459 14.464-14.507l256.768-75.349c14.679-4.694 15.785-17.75 15.785-21.632s-1.106-16.811-15.57-21.547l-0.087 0.086z" />
<glyph unicode="&#xe915;" glyph-name="Property-116" d="M1024 618.667c0-62.464-21.463-130.688-63.744-202.795-4.009-6.784-11.136-10.537-18.432-10.537-3.712 0-7.424 0.937-10.793 2.944-10.158 5.97-13.568 19.026-7.639 29.184 38.4 65.492 57.897 126.42 57.897 181.204 0 133.974-111.826 256-234.665 256-100.439 0-151.849-39.552-199.808-83.584l-183.082-181.248c-25.131-25.131-29.824-64.042-10.795-90.454 12.075-16.768 29.824-26.88 50.006-28.502 19.882-1.493 39.424 5.547 53.504 19.627l189.865 187.306c8.366 8.278 21.934 8.192 30.167-0.214 8.279-8.362 8.192-21.888-0.169-30.165l-61.271-60.459 226.857-199.127c41.134-36.050 51.456-96.297 24.023-140.16-16.896-27.049-44.544-45.225-75.735-49.792-10.025-1.49-20.137-1.577-30.034-0.169 5.545-26.281 1.577-54.016-12.887-77.184-16.937-27.095-44.585-45.225-75.776-49.792-14.807-2.176-29.609-1.239-43.607 2.601 1.71-21.929-3.026-44.114-15.017-63.186-16.896-27.054-44.544-45.23-75.735-49.792-5.248-0.768-10.45-1.152-15.657-1.152-25.898 0-51.072 9.344-70.784 26.665l-138.282 124.073c-210.219 189.998-312.406 349.826-312.406 488.706 0 159.104 129.622 298.667 277.334 298.667 49.493 0 98.944-16.043 143.104-46.422 9.728-6.698 12.16-19.967 5.504-29.653-6.656-9.77-19.926-12.202-29.654-5.504-36.992 25.472-78.122 38.912-118.912 38.912-122.794 0-234.667-122.026-234.667-256 0-124.374 100.352-278.146 298.283-457.003l138.026-123.863c14.123-12.416 33.069-17.92 51.966-15.232 19.072 2.775 35.374 13.527 45.783 30.208 16.471 26.286 9.6 63.063-16 85.504l-142.336 135.296c-8.534 8.11-8.874 21.591-0.768 30.126 8.064 8.576 21.59 8.914 30.122 0.85l166.014-156.713c13.696-12.032 32.686-17.751 51.543-14.889 19.072 2.77 35.369 13.522 45.824 30.208 16.425 26.24 9.559 63.017-16.041 85.458l-158.51 143.488c-8.704 7.895-9.426 21.335-1.577 30.080 7.808 8.791 21.248 9.518 30.080 1.71l166.871-148.526c14.208-12.416 33.065-18.002 52.050-15.273 19.072 2.816 35.328 13.527 45.783 30.208 16.425 26.281 9.559 63.063-16.041 85.463l-229.166 201.172-98.046-96.726c-22.869-22.87-54.613-34.349-86.997-31.914-32.384 2.645-61.995 19.413-81.195 46.122-31.104 43.178-24.533 105.77 15.318 145.622l183.721 181.846c52.823 48.554 113.536 95.402 229.248 95.402 147.758 0 277.335-139.563 277.335-298.667v0.043z" />
<glyph unicode="&#xe916;" glyph-name="Property-117" d="M683.013 576.552c26.926-20.053 42.327-48.895 42.327-79.103v-28.075c0-35.284 28.713-63.997 64-63.997h42.665c35.287 0 64 28.713 64 63.997v28.032c0 30.166 15.616 59.178 42.839 79.574 54.144 40.618 85.161 102.442 85.161 169.728 0 64.597-28.8 125.013-79.017 165.717-50.176 40.747-115.927 56.32-180.48 42.709-85.207-17.92-151.337-88.277-164.608-175.104-11.945-78.422 19.927-156.416 83.113-203.478zM832.005 448h-42.665c-11.735 0-21.335 9.555-21.335 21.331v21.333h85.335v-21.333c0-11.776-9.6-21.331-21.335-21.331zM642.053 773.587c10.455 68.224 64.43 125.738 131.246 139.776 12.329 2.603 24.704 3.883 36.946 3.883 39.296 0 77.271-13.142 107.863-37.974 40.151-32.597 63.191-80.938 63.191-132.608 0-53.717-24.832-103.125-68.096-135.594-27.392-20.522-45.952-47.83-54.446-77.738h-26.793v173.696c36.695 9.557 64 42.666 64 82.304 0 11.776-9.559 21.333-21.335 21.333s-21.33-9.557-21.33-21.333c0-23.51-19.118-42.667-42.67-42.667s-42.665 19.158-42.665 42.667c0 11.776-9.559 21.333-21.335 21.333s-21.33-9.557-21.33-21.333c0-39.638 27.305-72.747 64-82.304v-173.696h-26.711c-8.448 29.952-26.921 57.173-54.103 77.397-51.282 38.23-76.16 99.115-66.473 162.816l0.041 0.043zM1022.003 468.648c-3.072-94.12-32.512-182.184-85.166-254.719-26.706-36.823-40.832-77.143-40.832-116.608v-54.615c0-62.802-43.858-106.665-106.665-106.665h-341.333c-58.794 0-106.666 47.872-106.666 106.665v21.335h-42.112c-90.112 0-169.13 64-187.818 152.151l-22.016 103.849h-23.424c-48.384 0-65.92 37.12-65.92 62.080 0 54.697 121.643 317.652 180.779 390.783 92.886 123.99 242.006 194.006 396.159 186.539 11.776-0.555 20.864-10.581 20.311-22.315-0.558-11.776-10.414-20.907-22.272-20.309-140.887 6.528-275.671-56.917-360.577-170.197-60.502-74.88-171.734-327.677-171.734-364.588 0.299-8.658 4.565-19.41 23.254-19.41h40.832c10.069 0 18.688-7.040 20.778-16.896l25.6-120.75c14.55-68.562 75.99-118.313 146.090-118.313h63.446c11.776 0 21.334-9.559 21.334-21.335v-42.665c0-35.287 28.714-64 64-64h341.331c29.527 0 64 16.768 64 64v54.615c0 48.553 16.942 97.536 48.983 141.696 47.575 65.618 74.199 145.49 77.015 231.037 0.384 11.734 8.233 21.418 22.057 20.608 11.735-0.384 20.992-10.24 20.608-22.016l-0.041 0.043z" />
<glyph unicode="&#xe917;" glyph-name="Property-118" d="M767.017 547.235c7.895 111.786-32.896 221.226-111.872 300.202s-188.030 119.168-298.963 111.616c-193.067-13.696-356.182-195.2-356.182-396.373v-221.356c0-97.705 51.626-149.335 149.334-149.335h221.226c201.303 0 382.889 162.647 396.457 355.245zM370.56 234.66h-221.226c-73.771 0-106.667 32.896-106.667 106.665v221.356c0 188.245 158.677 356.352 340.651 354.645 192.938 4.224 359.042-174.592 341.122-367.104-12.078-171.096-174.167-315.561-353.922-315.561h0.042zM1024 265.59v-201.641c0-78.935-49.024-127.959-128-127.959h-201.472c-115.113 0-228.438 60.759-295.766 158.592-6.656 9.728-4.224 22.999 5.504 29.655s22.998 4.265 29.654-5.504c59.434-86.4 159.273-140.073 260.567-140.073h201.472c38.953 0 85.33 14.802 85.33 85.289v201.641c0 101.294-53.673 201.091-140.073 260.483-9.728 6.656-12.16 19.968-5.504 29.653 6.743 9.686 19.968 12.16 29.655 5.504 97.792-67.242 158.592-180.521 158.592-295.681l0.041 0.041zM426.666 575.992c0-23.552-19.114-42.667-42.666-42.667s-42.666 19.115-42.666 42.667c0 23.552 19.114 42.666 42.666 42.666s42.666-19.114 42.666-42.666zM256 575.992c0-23.552-19.114-42.667-42.666-42.667s-42.667 19.115-42.667 42.667c0 23.552 19.115 42.666 42.667 42.666s42.666-19.114 42.666-42.666zM597.335 575.992c0-23.552-19.118-42.667-42.67-42.667s-42.665 19.115-42.665 42.667c0 23.552 19.113 42.666 42.665 42.666s42.67-19.114 42.67-42.666z" />
<glyph unicode="&#xe918;" glyph-name="Property-1-3" d="M512 106.665c-23.551 0-42.665 19.072-42.665 42.67 0 98.898 58.968 185.897 166.017 244.946 97.577 53.762 148.009 160.215 128.512 271.149-18.048 102.742-102.359 187.094-205.143 205.142-77.311 13.568-152.319-6.272-211.284-55.766-58.154-48.811-91.477-120.32-91.477-196.138 0-23.552-19.115-42.667-42.667-42.667s-42.666 19.115-42.666 42.667c0 101.12 44.458 196.437 121.942 261.504 77.482 65.024 179.925 92.16 280.92 74.453 137.472-24.107 250.281-136.96 274.432-274.432 25.513-145.152-43.392-290.048-171.351-360.663-55.593-30.633-121.897-85.033-121.897-170.194 0-23.598-19.118-42.67-42.67-42.67zM448.001 0c0-35.328 28.672-64 63.999-64s64 28.672 64 64-28.672 64-64 64c-35.327 0-63.999-28.672-63.999-64z" />
<glyph unicode="&#xe919;" glyph-name="Property-119" d="M957.225 366.090c-12.754 34.007-35.072 62.551-62.761 83.967 37.929 20.522 97.536 63.146 128.041 139.35 4.398 10.922-0.937 23.338-11.904 27.69-10.834 4.394-23.337-0.896-27.73-11.862-35.2-88.021-119.168-123.776-133.422-129.322-22.016 9.002-45.65 14.378-70.226 14.592l9.984 187.562 57.216 145.494c16.896 38.058 2.345 82.602-33.070 101.547-42.834 22.827-89.088 34.091-130.304 34.901-40.617 0-83.968-10.88-126.336-32.299-38.528-19.499-55.166-65.237-38.226-103.381l57.728-146.346 10.194-187.307h-117.075v149.334c0 27.776-17.878 51.242-42.667 60.074v215.168c0 15.531-7.936 29.781-21.333 38.144-13.355 8.149-29.611 8.875-43.307 1.877l-70.016-35.029c-22.229-11.051-36.010-33.28-36.010-58.112v-162.005c-24.79-8.832-42.666-32.299-42.666-60.075v-152.448c-66.134-11.648-123.051-57.555-147.030-121.811l-55.339-148.567c-7.296-21.801-10.965-44.503-10.965-67.543 0-117.801 95.83-213.632 213.632-213.632h596.736c117.801 0 213.632 95.831 213.632 213.632 0 23.040-3.671 45.742-11.223 68.311l-55.552 148.183v-0.087zM575.959 889.61c36.306 18.39 71.552 27.861 107.090 27.691 34.606 0.683 73.559-10.24 110.126-29.824 15.785-8.405 22.016-28.885 13.824-47.402l-53.504-136.064h-141.614l-54.016 136.832c-8.064 18.176-0.128 39.552 18.094 48.768zM619.863 661.343h125.65l-9.042-170.667h-107.31l-9.298 170.667zM298.666 862.090c0 8.49 4.736 16.17 12.374 19.968l72.96 33.195v-211.243h-85.334v158.080zM256 640.010c0 11.734 9.558 21.334 21.334 21.334h128c11.776 0 21.333-9.6 21.333-21.334v-149.334h-170.666v149.334zM810.368-21.325h-596.736c-94.25 0-170.965 76.718-170.965 170.967 0 18.432 2.944 36.567 8.533 53.335l55.082 147.881c21.675 58.112 77.91 97.151 139.947 97.151h531.202c61.906 0 118.098-38.952 139.817-96.895l55.296-147.415c5.801-17.449 8.791-35.625 8.791-54.057 0-94.249-76.672-170.967-170.967-170.967z" />
<glyph unicode="&#xe91a;" glyph-name="Property-1-4" d="M810.665 789.334v149.333c0 11.776 9.559 21.333 21.335 21.333s21.335-9.557 21.335-21.333v-149.333h149.33c11.776 0 21.335-9.558 21.335-21.334s-9.559-21.334-21.335-21.334h-149.33v-149.333c0-11.776-9.559-21.334-21.335-21.334s-21.335 9.558-21.335 21.334v149.333h-149.33c-11.776 0-21.335 9.558-21.335 21.334s9.559 21.334 21.335 21.334h149.33zM682.665 533.334c0-94.125-76.544-170.669-170.665-170.669-94.122 0-170.666 76.544-170.666 170.669 0 94.122 76.544 170.666 170.666 170.666 94.121 0 170.665-76.544 170.665-170.666zM640 533.334c0 70.57-57.431 128-128 128-70.57 0-128-57.43-128-128s57.43-127.998 128-127.998c70.569 0 128 57.427 128 127.998zM1001.769 597.718c14.766-48.384 22.231-98.731 22.231-149.718 0-282.327-229.673-512-512-512s-512 229.673-512 512c0 282.326 229.674 512 512 512 53.207 0 105.687-8.107 155.817-24.149 11.223-3.584 17.408-15.573 13.824-26.795-3.625-11.222-15.657-17.45-26.834-13.824-45.952 14.677-94.039 22.144-142.85 22.144-258.731-0.043-469.291-210.602-469.291-469.376 0-165.289 86.101-310.615 215.637-394.24 16 125.865 123.562 223.575 253.696 223.575s237.696-97.71 253.696-223.575c129.495 83.625 215.639 228.951 215.639 394.24 0 46.762-6.83 92.928-20.398 137.258-3.41 11.264 2.903 23.211 14.208 26.624 11.264 3.542 23.168-2.944 26.624-14.165zM512-21.335c76.503 0 148.567 18.775 212.439 51.374-4.695 113.49-97.792 204.626-212.439 204.626s-207.786-91.090-212.438-204.626c63.872-32.599 135.936-51.374 212.438-51.374z" />
<glyph unicode="&#xe91b;" glyph-name="Property-1-21" d="M580.864 234.665c-25.769 0-51.671-9.682-69.078-28.544-17.792 18.862-44.288 28.544-70.613 28.544-50.262 0-91.179-44.032-91.179-98.176 0-69.202 81.622-155.474 121.131-186.409 24.149-18.903 57.683-18.816 81.706 0.256 38.871 30.935 119.209 117.12 119.209 186.153 0 54.144-40.914 98.176-91.177 98.176zM526.249-16.256c-8.489-6.743-20.307-6.697-28.798-0.087-42.837 33.536-104.789 107.264-104.789 152.832 0 30.592 21.76 55.511 48.512 55.511 17.109 0 49.493-8.919 49.493-42.665v-0.087c0-11.776 9.558-21.335 21.334-21.335s21.335 9.559 21.335 21.335c0 31.575 25.641 42.752 47.529 42.752 26.752 0 48.512-24.873 48.512-55.511 0-45.568-60.969-119.209-103.127-152.745zM512 448c141.184 0 256 114.816 256 256s-114.816 256-256 256c-141.184 0-256-114.816-256-256s114.816-256 256-256zM512 917.333c117.632 0 213.335-95.701 213.335-213.333s-95.703-213.334-213.335-213.334c-117.632 0-213.334 95.702-213.334 213.334s95.702 213.333 213.334 213.333zM896-21.335v-21.33c0-11.776-9.559-21.335-21.335-21.335s-21.33 9.559-21.33 21.335v21.33c0 188.206-153.134 341.335-341.335 341.335-188.202 0-341.334-153.129-341.334-341.335v-21.33c0-11.776-9.557-21.335-21.333-21.335s-21.334 9.559-21.334 21.335v21.33c0 211.712 172.246 384 384 384s384-172.288 384-384z" />
<glyph unicode="&#xe91c;" d="M756.87 960c147.532 0 267.13-119.598 267.13-267.13s-119.598-267.13-267.13-267.13c-147.532 0-267.13 119.598-267.13 267.13s119.598 267.13 267.13 267.13z" />
<glyph unicode="&#xe91d;" glyph-name="Property-1-5" d="M640 789.334h128v128c0 23.552 19.072 42.667 42.665 42.667 23.598 0 42.67-19.115 42.67-42.667v-128h128c23.593 0 42.665-19.115 42.665-42.667s-19.072-42.666-42.665-42.666h-128v-128c0-23.552-19.072-42.666-42.67-42.666-23.593 0-42.665 19.114-42.665 42.666v128h-128c-23.593 0-42.665 19.114-42.665 42.666s19.072 42.667 42.665 42.667zM1015.552 541.056c5.632-30.506 8.448-61.824 8.448-93.056 0-282.327-229.673-512-512-512s-512 229.673-512 512c0 282.326 229.674 512 512 512 31.273 0 62.592-2.816 93.056-8.448 23.168-4.267 38.487-26.496 34.263-49.664-4.311-23.168-26.199-38.57-49.664-34.262-25.39 4.651-51.502 7.040-77.614 7.040-235.305 0-426.707-191.402-426.707-426.666 0-144.599 72.448-272.384 182.784-349.568 32.768 104.832 129.706 178.903 243.882 178.903s211.113-74.071 243.927-178.903c110.29 77.225 182.738 205.015 182.738 349.568 0 26.070-2.386 52.182-7.040 77.61-4.265 23.168 11.095 45.398 34.263 49.664 23.168 4.182 45.399-11.050 49.664-34.218zM512 21.335c59.049 0 115.369 12.114 166.569 33.874-15.872 78.894-84.265 136.791-166.569 136.791s-150.698-57.856-166.57-136.791c51.2-21.801 107.477-33.874 166.57-33.874zM682.665 533.334c0-94.125-76.544-170.669-170.665-170.669-94.122 0-170.666 76.544-170.666 170.669 0 94.122 76.544 170.666 170.666 170.666 94.121 0 170.665-76.544 170.665-170.666zM597.335 533.334c0 47.061-38.272 85.333-85.335 85.333s-85.334-38.272-85.334-85.333 38.272-85.334 85.334-85.334c47.063 0 85.335 38.272 85.335 85.334z" />
<glyph unicode="&#xe91e;" d="M922.419 818.796l-199.293-192.332-52.883 56.503c-9.741 9.185-25.052 9.742-36.183 1.948-10.854-8.072-13.917-22.267-7.239-33.679l62.629-101.872c6.122-9.464 16.7-15.309 28.668-15.309 11.411 0 22.265 5.845 28.392 15.309 10.017 13.082 201.238 241.041 201.238 241.041 25.048 25.607-5.289 48.152-25.328 28.669v-0.278z" />
<glyph unicode="&#xe91f;" glyph-name="Property-1--1" d="M362.104 716.739c0.009-10.192 4.065-19.964 11.277-27.167l196.628-196.626c5.949-5.95 10.67-13.014 13.891-20.789s4.879-16.108 4.879-24.525c0-8.412-1.659-16.748-4.879-24.52-3.22-7.777-7.941-14.843-13.891-20.792l-196.372-196.367c-7.003-7.25-10.877-16.963-10.79-27.044 0.088-10.076 4.13-19.722 11.258-26.849s16.77-11.172 26.85-11.259c10.080-0.087 19.791 3.789 27.041 10.793l196.372 196.214c26.404 26.455 41.231 62.31 41.231 99.686s-14.828 73.228-41.231 99.684l-196.628 196.754c-5.377 5.38-12.228 9.044-19.687 10.529s-15.192 0.723-22.219-2.187c-7.027-2.911-13.032-7.841-17.256-14.167s-6.477-13.762-6.473-21.367z" />
<glyph unicode="&#xe920;" glyph-name="Property-120" d="M986.455 537.174l-165.12 166.827c-3.968 3.999-8.689 7.173-13.885 9.339-5.202 2.166-10.778 3.281-16.41 3.281s-11.208-1.116-16.41-3.281c-5.197-2.166-9.917-5.341-13.885-9.339-7.946-7.994-12.406-18.808-12.406-30.080s4.46-22.086 12.406-30.080l151.895-153.174h-869.973c-11.316 0-22.168-4.495-30.17-12.497s-12.497-18.854-12.497-30.17c0-11.316 4.495-22.17 12.497-30.168 8.002-8.003 18.854-12.498 30.17-12.498h872.533l-154.455-154.030c-3.999-3.963-7.173-8.684-9.339-13.88-2.166-5.202-3.282-10.778-3.282-16.41s1.116-11.213 3.282-16.41c2.166-5.202 5.34-9.917 9.339-13.885 3.968-3.999 8.689-7.173 13.885-9.339 5.202-2.166 10.778-3.282 16.41-3.282s11.208 1.116 16.41 3.282c5.197 2.166 9.917 5.34 13.885 9.339l165.12 165.545c23.967 24.003 37.432 56.535 37.432 90.455s-13.466 66.454-37.432 90.454z" />
<glyph unicode="&#xe921;" glyph-name="Property-121" d="M448 405.335h-42.666c-11.776 0-21.334-9.559-21.334-21.335s9.558-21.335 21.334-21.335h42.666c11.776 0 21.334 9.559 21.334 21.335s-9.558 21.335-21.334 21.335zM618.675 405.335h-42.665c-11.776 0-21.335-9.559-21.335-21.335s9.559-21.335 21.335-21.335h42.665c11.776 0 21.335 9.559 21.335 21.335s-9.559 21.335-21.335 21.335zM789.325 405.335h-42.665c-11.776 0-21.335-9.559-21.335-21.335s9.559-21.335 21.335-21.335h42.665c11.776 0 21.335 9.559 21.335 21.335s-9.559 21.335-21.335 21.335zM448 192h-42.666c-11.776 0-21.334-9.559-21.334-21.335s9.558-21.33 21.334-21.33h42.666c11.776 0 21.334 9.554 21.334 21.33s-9.558 21.335-21.334 21.335zM277.325 405.335h-42.666c-11.776 0-21.334-9.559-21.334-21.335s9.558-21.335 21.334-21.335h42.666c11.776 0 21.334 9.559 21.334 21.335s-9.558 21.335-21.334 21.335zM277.325 192h-42.666c-11.776 0-21.334-9.559-21.334-21.335s9.558-21.33 21.334-21.33h42.666c11.776 0 21.334 9.554 21.334 21.33s-9.558 21.335-21.334 21.335zM618.675 192h-42.665c-11.776 0-21.335-9.559-21.335-21.335s9.559-21.33 21.335-21.33h42.665c11.776 0 21.335 9.554 21.335 21.33s-9.559 21.335-21.335 21.335zM789.325 192h-42.665c-11.776 0-21.335-9.559-21.335-21.335s9.559-21.33 21.335-21.33h42.665c11.776 0 21.335 9.554 21.335 21.33s-9.559 21.335-21.335 21.335zM832 874.666h-64v64c0 11.776-9.559 21.333-21.335 21.333s-21.33-9.557-21.33-21.333v-64h-426.669v64c0 11.776-9.557 21.333-21.333 21.333s-21.334-9.557-21.334-21.333v-64h-64c-105.856 0-192-86.144-192-192v-554.666c0-105.856 86.144-192 192-192h640c105.856 0 192 86.144 192 192v554.666c0 105.856-86.144 192-192 192zM192 832h640c82.345 0 149.335-66.986 149.335-149.334v-64h-938.668v64c0 82.347 66.987 149.334 149.333 149.334zM832-21.335h-640c-82.346 0-149.333 66.99-149.333 149.335v448h938.668v-448c0-82.345-66.99-149.335-149.335-149.335z" />
<glyph unicode="&#xe922;" glyph-name="Property-122" d="M725.34 347.689v121.644c0 34.774-16.937 65.408-42.747 84.864 0 0.171 0.082 0.299 0.082 0.47v319.914c0 29.782-15.104 56.96-40.489 72.619-25.39 15.659-56.407 17.024-83.031 3.712l-135.295-67.669c-50.902-25.472-82.56-76.63-82.56-133.547v-195.029c0 0 0.085-0.298 0.085-0.47-25.813-19.498-42.752-50.090-42.752-84.864v-121.644c-50.261-24.064-85.333-75.008-85.333-134.354v-128c0-82.35 66.986-149.335 149.333-149.335h298.666c82.345 0 149.335 66.985 149.335 149.335v128c0 59.346-35.031 110.29-85.294 134.354zM384.009 749.695c0 40.662 22.571 77.227 58.966 95.36l135.299 67.67c13.568 6.699 28.626 6.101 41.513-1.877 12.672-7.808 20.265-21.376 20.265-36.309v-300.758c-6.912 1.408-14.039 2.176-21.33 2.176h-213.336c-7.296 0-14.421-0.768-21.333-2.176v175.872l-0.043 0.042zM341.343 469.333c0 35.286 28.714 64 64 64h213.332c35.287 0 64-28.714 64-64v-108.844c-7.040 1.024-14.039 2.176-21.335 2.176h-298.664c-7.296 0-14.294-1.152-21.334-2.176v108.844zM768.010 85.335c0-58.839-47.872-106.67-106.67-106.67h-298.664c-58.795 0-106.667 47.831-106.667 106.67v128c0 58.834 47.872 106.665 106.667 106.665h298.664c58.798 0 106.67-47.831 106.67-106.665v-128z" />
<glyph unicode="&#xe923;" glyph-name="Property-123" d="M718.996 223.273l-120.704 542.935 37.888 94.976c7.68 23.21 3.84 47.872-10.496 67.669-14.295 19.797-36.526 31.147-60.974 31.147h-105.428c-24.448 0-46.678-11.349-60.97-31.147s-18.134-44.459-10.027-68.907l37.462-93.738-120.106-540.8c-16.982-50.944-2.304-107.177 37.418-143.36l154.582-140.503c4.053-3.666 9.215-5.545 14.336-5.545 5.118 0 10.285 1.833 14.334 5.545l154.583 140.503c39.721 36.137 54.487 92.416 38.103 141.225zM432.914 903.85c6.23 8.576 15.83 13.483 26.41 13.483h105.432c10.578 0 20.224-4.907 26.409-13.483s7.849-19.242 4.992-28.032l-34.56-86.442h-99.115l-34.090 85.248c-3.286 10.026-1.664 20.65 4.522 29.226zM652.262 113.623l-140.201-127.447-140.203 127.447c-27.264 24.786-37.334 63.36-25.088 100.434l118.4 532.653h93.78l118.999-534.782c11.648-34.903 1.577-73.559-25.687-98.304z" />
<glyph unicode="&#xe924;" glyph-name="Property-124" d="M952.269 770.943l-589.609-589.567c-3.964-3.978-8.675-7.137-13.862-9.293s-10.749-3.261-16.367-3.261c-5.617 0-11.179 1.106-16.367 3.261s-9.898 5.315-13.862 9.293l-228.011 228.224c-3.964 3.978-8.675 7.137-13.862 9.293s-10.75 3.261-16.367 3.261c-5.617 0-11.179-1.106-16.367-3.261s-9.898-5.315-13.863-9.293c-3.98-3.963-7.138-8.673-9.292-13.865-2.155-5.187-3.264-10.747-3.264-16.364s1.109-11.182 3.264-16.369c2.155-5.187 5.313-9.897 9.292-13.86l228.096-228.055c24.062-24.018 56.67-37.504 90.666-37.504s66.605 13.486 90.667 37.504l589.57 589.439c3.973 3.963 7.122 8.672 9.272 13.855 2.156 5.184 3.261 10.741 3.261 16.353s-1.106 11.169-3.261 16.353c-2.15 5.183-5.299 9.892-9.272 13.855-3.968 3.98-8.678 7.138-13.865 9.293s-10.747 3.263-16.369 3.263c-5.617 0-11.177-1.109-16.364-3.263s-9.897-5.313-13.865-9.293z" />
<glyph unicode="&#xe925;" glyph-name="Property-1-6" d="M1002.665-21.335h-64v362.67c0 105.856-86.144 191.998-192 191.998h-213.33v129.792c60.457 10.197 106.665 62.89 106.665 126.208 0 40.277-27.177 90.666-80.727 149.717-24.105 26.624-70.398 26.624-94.547 0-34.646-38.229-80.726-95.275-80.726-149.717 0-63.318 46.208-116.011 106.666-126.208v-129.792h-213.333c-105.856 0-192-86.142-192-191.998v-118.103c0 0 0-0.169 0-0.256v-244.311h-64c-11.776 0-21.333-9.554-21.333-21.33s9.557-21.335 21.333-21.335h981.332c11.776 0 21.335 9.559 21.335 21.335s-9.559 21.33-21.335 21.33zM426.666 789.334c0 44.245 52.438 102.058 69.632 121.045 4.096 4.48 9.643 6.955 15.702 6.955 6.057 0 11.607-2.475 15.657-6.955 44.928-49.536 69.678-92.501 69.678-121.045 0-47.062-38.272-85.334-85.335-85.334s-85.334 38.272-85.334 85.334zM277.334 490.666h469.331c82.35 0 149.335-66.986 149.335-149.331v-102.487c-10.327-2.729-21.161-4.183-32-4.183-54.057 0-96 34.391-96 64 0 11.776-9.559 21.335-21.335 21.335s-21.33-9.559-21.33-21.335c0-29.609-41.943-64-96-64-54.062 0-96 34.391-96 64 0 11.776-9.559 21.335-21.335 21.335s-21.334-9.559-21.334-21.335c0-29.609-41.941-64-96-64s-96 34.391-96 64c0 11.776-9.557 21.335-21.333 21.335s-21.334-9.559-21.334-21.335c0-29.609-41.942-64-96-64-10.794 0-21.674 1.454-32 4.224v102.446c0 82.345 66.986 149.331 149.334 149.331zM128 195.072c10.454-2.048 21.12-3.072 32-3.072 48.086 0 92.288 21.12 117.334 51.543 25.045-30.423 69.248-51.543 117.333-51.543s92.331 21.12 117.334 51.543c25.001-30.423 69.289-51.543 117.335-51.543 48.041 0 92.288 21.12 117.33 51.543 25.047-30.423 69.248-51.543 117.335-51.543 10.88 0 21.591 1.024 32 3.031v-216.366h-768v216.407z" />
<glyph unicode="&#xe926;" glyph-name="Property-125" d="M897.684 859.613l-563.986-544.293-149.662 159.899c-27.569 25.994-70.892 27.569-102.4 5.514-30.72-22.843-39.385-63.013-20.48-95.31l177.231-288.297c17.329-26.783 47.261-43.32 81.132-43.32 32.295 0 63.015 16.538 80.345 43.32 28.357 37.023 569.5 682.142 569.5 682.142 70.892 72.468-14.966 136.271-71.68 81.133v-0.788z" />
<glyph unicode="&#xe927;" glyph-name="Property-126" d="M670.167 545.834l-97.838-97.834 97.838-97.833c16.681-16.686 16.681-43.648 0-60.334-8.32-8.32-19.246-12.498-30.167-12.498s-21.847 4.178-30.167 12.498l-97.833 97.838-97.834-97.838c-8.32-8.32-19.243-12.498-30.166-12.498s-21.846 4.178-30.166 12.498c-16.682 16.686-16.682 43.648 0 60.334l97.835 97.833-97.835 97.834c-16.682 16.683-16.682 43.648 0 60.331s43.648 16.682 60.331 0l97.834-97.835 97.833 97.835c16.686 16.682 43.648 16.682 60.334 0 16.681-16.683 16.681-43.648 0-60.331zM1024 448c0-282.327-229.673-512-512-512s-512 229.673-512 512c0 282.326 229.674 512 512 512s512-229.674 512-512zM938.665 448c0 235.264-191.401 426.666-426.665 426.666s-426.666-191.402-426.666-426.666c0-235.264 191.402-426.665 426.666-426.665s426.665 191.401 426.665 426.665z" />
<glyph unicode="&#xe928;" glyph-name="Property-127" d="M816.717-63.575c-2.048-0.297-4.096-0.425-6.103-0.425-20.864 0-39.127 15.319-42.153 36.608-17.879 125.097-128.128 219.392-256.43 219.392-128.297 0-238.547-94.295-256.425-219.392-3.37-23.337-25.13-39.337-48.256-36.224-23.338 3.328-39.552 24.96-36.182 48.297 23.851 166.83 170.411 292.608 340.909 292.608 170.496 0 317.056-125.778 340.905-292.608 3.369-23.337-12.841-44.969-36.183-48.297l-0.082 0.041zM255.99 618.667v308.736c0 32.171 41.728 44.843 59.606 18.048l68.394-113.451 98.006 114.347c15.786 18.389 44.243 18.389 59.987 0l98.007-114.347 68.393 113.451c17.879 26.795 59.607 14.123 59.607-18.048v-308.736c0-141.184-114.816-256.002-256-256.002s-256 114.818-256 256.002zM341.323 661.334v-42.666c0-94.122 76.544-170.666 170.666-170.666s170.665 76.544 170.665 170.666v42.666h-341.331z" />
<glyph unicode="&#xe929;" glyph-name="Property-128" d="M650.711 115.159c0-55.424-66.222-132.864-107.479-167.424-18.688-15.662-45.738-15.662-64.426 0-41.259 34.56-107.478 112-107.478 167.424 0 42.45 31.274 76.841 69.846 76.841s69.845-34.391 69.845-76.841c0 42.45 31.277 76.841 69.846 76.841s69.847-34.391 69.847-76.841zM256 704c0 141.184 114.816 256 256 256s256-114.816 256-256c0-141.184-114.816-256-256-256s-256 114.816-256 256zM341.334 704c0-94.122 76.544-170.666 170.666-170.666 94.121 0 170.665 76.544 170.665 170.666s-76.544 170.666-170.665 170.666c-94.122 0-170.666-76.544-170.666-170.666zM512 362.665c-211.754 0-384-172.288-384-384 0-23.552 19.072-42.665 42.666-42.665s42.667 19.113 42.667 42.665c0 164.695 134.016 298.67 298.666 298.67 164.649 0 298.665-133.975 298.665-298.67 0-23.552 19.072-42.665 42.67-42.665 23.593 0 42.665 19.113 42.665 42.665 0 211.712-172.247 384-384 384z" />
<glyph unicode="&#xe92a;" glyph-name="Property-129" d="M512 448c50.632 0 100.127 15.014 142.228 43.144 42.097 28.13 74.911 68.111 94.285 114.889s24.448 98.251 14.566 147.91c-9.876 49.659-34.258 95.274-70.062 131.076-35.799 35.802-81.413 60.184-131.072 70.062-49.664 9.878-101.135 4.808-147.913-14.568s-86.759-52.188-114.889-94.287c-28.13-42.099-43.144-91.594-43.144-142.226 0.068-67.875 27.061-132.95 75.056-180.944s113.070-74.988 180.944-75.056zM512 874.666c33.756 0 66.749-10.010 94.817-28.763s49.94-45.407 62.858-76.593c12.918-31.185 16.297-65.501 9.713-98.607s-22.84-63.516-46.71-87.385c-23.869-23.868-54.277-40.122-87.383-46.708s-67.421-3.205-98.607 9.712c-31.185 12.917-57.84 34.792-76.593 62.858s-28.762 61.063-28.762 94.817c0 45.263 17.981 88.673 49.987 120.679s75.416 49.987 120.679 49.987zM512 362.665c-101.809-0.113-199.415-40.607-271.404-112.594-71.99-71.992-112.483-169.595-112.596-271.406 0-11.315 4.495-22.164 12.497-30.167s18.854-12.498 30.17-12.498c11.316 0 22.169 4.495 30.17 12.498s12.497 18.852 12.497 30.167c0 79.212 31.466 155.182 87.477 211.19 56.011 56.013 131.978 87.48 211.189 87.48s155.177-31.468 211.19-87.48c56.013-56.008 87.475-131.978 87.475-211.19 0-11.315 4.495-22.164 12.498-30.167s18.857-12.498 30.172-12.498c11.315 0 22.164 4.495 30.167 12.498s12.498 18.852 12.498 30.167c-0.113 101.811-40.607 199.414-112.594 271.406-71.992 71.987-169.6 112.481-271.406 112.594z" />
<glyph unicode="&#xe92b;" glyph-name="Property-130" d="M157.467 0.937c21.155-9.042 44.545-11.494 67.116-7.045s43.278 15.601 59.418 31.995l227.999 226.765 228.004-226.765c10.629-10.783 23.296-19.354 37.258-25.216 13.967-5.857 28.959-8.888 44.099-8.914 15.57 0.046 30.976 3.164 45.332 9.18 21.33 8.632 39.557 23.496 52.311 42.644 12.749 19.154 19.43 41.708 19.169 64.712v611.323c-0.061 51.357-20.49 100.593-56.806 136.908s-85.55 56.744-136.909 56.805h-464.913c-51.357-0.061-100.593-20.49-136.908-56.805s-56.744-85.551-56.805-136.908v-611.323c-0.25-23.025 6.454-45.588 19.234-64.742s31.044-34.007 52.401-42.614z" />
<glyph unicode="&#xe92c;" glyph-name="Property-131" d="M1024 448c0-282.327-229.673-512-512-512-275.071 0-499.753 215.127-511.529 489.769-0.512 11.776 8.619 21.719 20.395 22.231 11.563-0.471 21.717-8.617 22.229-20.439 10.752-251.73 216.746-448.896 468.905-448.896 258.775 0 469.335 210.56 469.335 469.335 0 258.774-210.56 469.333-469.335 469.333-160.041 0-305.449-79.787-392.617-213.333h200.618c11.776 0 21.334-9.558 21.334-21.334s-9.558-21.333-21.334-21.333h-213.333c-35.286 0-64 28.714-64 64v213.333c0 11.776 9.557 21.333 21.333 21.333s21.334-9.557 21.334-21.333v-209.024c95.232 144.214 253.056 230.358 426.665 230.358 282.327 0 512-229.674 512-512z" />
<glyph unicode="&#xe92d;" glyph-name="Property-132" d="M512 960c-282.326 0-512-229.674-512-512s229.674-512 512-512c282.327 0 512 229.673 512 512s-229.673 512-512 512zM512-21.335c-258.774 0-469.333 210.56-469.333 469.335 0 258.774 210.56 469.333 469.333 469.333 258.775 0 469.335-210.56 469.335-469.333 0-258.775-210.56-469.335-469.335-469.335zM607.744 711.85l-295.51-295.507c-36.309-36.27-56.234-84.48-56.234-135.808v-67.2c0-11.776 9.558-21.335 21.334-21.335h67.2c51.285 0 99.541 19.968 135.808 56.233l295.507 295.511c22.446 22.442 34.816 52.31 34.816 84.054s-12.37 61.568-34.816 84.053c-44.928 44.928-123.218 44.928-168.105 0zM450.176 278.441c-28.202-28.201-65.706-43.73-105.642-43.73h-45.867v45.865c0 39.936 15.531 77.399 43.734 105.641l217.943 217.943 107.73-107.734-217.897-217.986zM745.687 573.952l-47.36-47.36-107.735 107.734 47.36 47.36c28.841 28.842 78.935 28.842 107.735 0 14.418-14.422 22.313-33.536 22.313-53.888s-7.936-39.424-22.313-53.846z" />
<glyph unicode="&#xe92e;" glyph-name="Property-1VIP" d="M971.305 741.761c-31.913 13.312-68.393 6.058-93.353-18.816l-129.879-135.894-175.744 220.032c-33.234 33.28-87.379 33.238-122.238-1.792l-174.25-218.325-130.176 134.698c-24.15 24.022-61.226 31.574-92.97 18.474-32.043-13.226-52.694-44.16-52.694-78.848v-426.626c0-117.632 95.744-213.33 213.334-213.33h597.331c117.632 0 213.335 95.698 213.335 213.33v428.248c0 34.646-20.695 65.622-52.695 78.848zM981.335 234.665c0-94.121-76.544-170.665-170.67-170.665h-597.331c-94.123 0-170.667 76.544-170.667 170.665v426.626c-1.408 36.736 47.531 57.046 72.576 30.422l146.774-151.894c8.32-9.6 24.406-8.277 32 1.536l187.818 235.563c16.64 16.64 43.693 16.554 58.75 1.792l189.399-237.312c7.593-9.942 23.849-11.051 32.087-1.451l146.386 153.174c25.262 27.050 74.112 6.742 72.878-30.166v-428.29z" />
<glyph unicode="&#xe92f;" glyph-name="Property-133" d="M384 448c-141.184 0-256 114.816-256 256s114.816 256 256 256c141.184 0 256-114.816 256-256s-114.816-256-256-256zM384 917.333c-117.632 0-213.334-95.701-213.334-213.333s95.702-213.334 213.334-213.334c117.632 0 213.335 95.702 213.335 213.334s-95.703 213.333-213.335 213.333zM42.667-42.665v21.33c0 180.608 141.099 330.286 321.237 340.736 11.776 0.686 20.736 10.752 20.054 22.528-0.683 11.735-10.71 21.422-22.528 20.055-202.667-11.735-361.43-180.096-361.43-383.319v-21.33c0-11.776 9.557-21.335 21.333-21.335s21.333 9.559 21.333 21.335zM746.665-64c-152.914 0-277.331 124.416-277.331 277.335 0 152.914 124.418 277.331 277.331 277.331 152.919 0 277.335-124.418 277.335-277.331 0-152.919-124.416-277.335-277.335-277.335zM746.665 448c-129.408 0-234.665-105.303-234.665-234.665 0-129.367 105.257-234.67 234.665-234.67s234.67 105.303 234.67 234.67c0 129.362-105.262 234.665-234.67 234.665zM773.76 129.536l115.328 111.529c8.448 8.192 8.704 21.719 0.512 30.167-8.151 8.448-21.632 8.663-30.167 0.512l-115.456-111.703c-14.336-14.121-37.76-14.208-52.178-0.169l-58.158 57.385c-8.361 8.279-21.888 8.192-30.162-0.169-8.279-8.407-8.192-21.929 0.21-30.167l58.199-57.472c15.447-15.104 35.712-22.656 55.977-22.656 20.27 0 40.535 7.598 55.895 22.743z" />
<glyph unicode="&#xe930;" glyph-name="Property-134" d="M0 448c0 0 0-0.087 0-0.128 0.085-28.713 11.349-55.639 31.829-75.776l176.725-173.952c4.139-4.096 9.558-6.144 14.976-6.144 5.504 0 11.008 2.135 15.19 6.359 8.234 8.361 8.15 21.888-0.256 30.162l-176.726 173.952c-6.997 6.912-11.989 15.191-15.189 24.151h700.116c11.776 0 21.335 9.559 21.335 21.335 0 11.774-9.559 21.331-21.335 21.331h-700.158c3.2 9.088 8.192 17.451 15.275 24.406l176.682 173.738c8.406 8.235 8.534 21.76 0.256 30.166-8.234 8.448-21.76 8.534-30.166 0.256l-176.683-173.738c-20.523-20.224-31.872-47.19-31.872-76.032 0 0 0-0.043 0-0.086zM533.335 320c11.776 0 21.33-9.559 21.33-21.335v-170.665c0-82.345 66.99-149.335 149.335-149.335h128c82.345 0 149.335 66.99 149.335 149.335v640c0 82.346-66.99 149.333-149.335 149.333h-128c-82.345 0-149.335-66.987-149.335-149.333v-170.666c0-11.776-9.554-21.334-21.33-21.334s-21.335 9.558-21.335 21.334v170.666c0 105.856 86.144 192 192 192h128c105.856 0 192-86.144 192-192v-640c0-105.856-86.144-192-192-192h-128c-105.856 0-192 86.144-192 192v170.665c0 11.776 9.559 21.335 21.335 21.335z" />
<glyph unicode="&#xe931;" glyph-name="Property-135" d="M554.67 448.001c0-23.553-19.118-42.665-42.67-42.665-23.55 0-42.665 19.113-42.665 42.665s19.114 42.666 42.665 42.666c23.552 0 42.67-19.114 42.67-42.666zM725.335 490.667c-23.552 0-42.665-19.114-42.665-42.666s19.113-42.665 42.665-42.665c23.552 0 42.665 19.113 42.665 42.665s-19.113 42.666-42.665 42.666zM298.668 490.667c-23.552 0-42.666-19.114-42.666-42.666s19.114-42.665 42.666-42.665c23.552 0 42.667 19.113 42.667 42.665s-19.115 42.666-42.667 42.666zM1024 432.855v-297.088c0-110.167-89.6-199.767-199.762-199.767h-263.936c-299.906 0-540.247 204.457-559.063 475.52-10.283 148.353 43.819 293.462 148.437 398.251s249.686 158.933 398.036 149.035c267.095-18.133 476.288-249.173 476.288-525.951zM981.335 432.855c0 254.42-191.744 466.729-436.48 483.369-10.711 0.725-21.463 1.109-32.128 1.109-124.672 0-244.438-49.237-332.8-137.685-95.958-96.086-145.536-229.163-136.107-365.185 17.493-252.503 234.709-435.799 516.482-435.799h263.936c86.61 0 157.097 70.446 157.097 157.102v297.088z" />
<glyph unicode="&#xe932;" glyph-name="Property-136" d="M127.988 106.665c0-23.552-19.114-42.665-42.666-42.665s-42.667 19.113-42.667 42.665c0 23.552 19.115 42.67 42.667 42.67s42.666-19.118 42.666-42.67zM554.655 490.667c-23.552 0-42.666-19.115-42.666-42.667s19.114-42.665 42.666-42.665c23.552 0 42.665 19.113 42.665 42.665s-19.113 42.667-42.665 42.667zM895.99 789.334c23.552 0 42.665 19.114 42.665 42.666s-19.113 42.667-42.665 42.667c-23.552 0-42.67-19.115-42.67-42.667s19.118-42.666 42.67-42.666zM996.424 703.744c-8.32 8.32-21.842 8.32-30.162 0-142.679-142.634-266.414-78.72-345.175 0-8.32 8.32-21.847 8.32-30.167 0s-8.32-21.845 0-30.165c65.367-65.366 134.062-98.048 202.752-98.048 68.695 0 137.39 32.682 202.752 98.048 8.32 8.32 8.32 21.845 0 30.165zM329.076 369.065c-8.32 8.32-21.846 8.32-30.166 0s-8.32-21.842 0-30.162c42.667-42.67 69.632-86.83 80.128-131.287 16.939-71.808-9.984-143.744-80.128-213.888-8.32-8.32-8.32-21.847 0-30.167 4.182-4.178 9.643-6.226 15.104-6.226s10.923 2.089 15.104 6.226c81.28 81.28 112.043 166.656 91.52 253.87-12.373 52.265-43.136 103.296-91.52 151.634h-0.042zM688.543 293.591c-9.001 7.593-22.441 6.4-30.080-2.519-7.593-9.001-6.487-22.441 2.519-30.080 0.594-0.512 61.097-52.521 64.21-127.104 1.966-47.529-20.050-94.72-65.536-140.16-8.32-8.32-8.32-21.847 0-30.167 4.183-4.178 9.646-6.226 15.104-6.226 5.463 0 10.926 2.089 15.104 6.226 54.231 54.231 80.471 112.174 77.998 172.119-3.886 93.097-76.247 155.305-79.319 157.911zM938.655 319.959c0-23.552 19.113-42.67 42.665-42.67s42.67 19.118 42.67 42.67c0 23.552-19.118 42.665-42.67 42.665s-42.665-19.113-42.665-42.665zM981.32 21.289c-23.552 0-42.665-19.113-42.665-42.665s19.113-42.665 42.665-42.665c23.552 0 42.67 19.113 42.67 42.665s-19.118 42.665-42.67 42.665zM566.902 754.859l-361.815-361.771c-19.541-19.584-46.293-30.423-73.77-30.423-5.078 0-10.154 0.384-15.19 1.111-31.36 4.608-57.77 22.999-72.405 50.432-77.611 144.982-51.541 320.726 64.896 437.163 116.437 116.48 292.138 142.549 437.164 64.896 27.392-14.635 45.737-41.003 50.386-72.363 4.823-32.554-6.144-65.834-29.312-89.002l0.046-0.042zM553.974 837.59c-2.647 17.878-12.974 32.854-28.334 41.046-48.169 25.77-101.075 38.272-153.769 38.272-85.461 0-170.325-32.981-233.088-95.744-101.418-101.419-125.056-260.48-57.472-386.818 8.192-15.36 23.168-25.728 41.046-28.329 19.286-2.985 38.954 3.543 52.566 17.239l361.813 361.769c13.655 13.654 20.096 33.323 17.239 52.566z" />
<glyph unicode="&#xe933;" glyph-name="Property-137" d="M765.348 722.347c-50.135 64.47-101.934 131.114-139.095 204.203-9.728 19.072-26.24 30.805-45.353 32.128-21.975 1.365-43.392-10.24-58.199-31.403-33.92-48.554-53.376-114.389-53.376-180.565 0-93.909 27.648-150.016 52.009-199.552 21.335-43.306 38.19-77.482 33.408-128.982-5.12-55.68-56.105-98.775-115.113-98.135-121.856 1.367-135.424 118.272-141.013 276.696-1.067 30.037-20.651 54.442-49.878 62.25-29.44 8.022-58.88-3.754-74.88-29.482-42.794-68.694-88.49-175.915-88.534-270.633 0-233.006 193.28-422.615 426.752-422.615 235.177 1.449 426.537 191.017 426.537 422.231 2.391 137.982-82.944 247.764-173.266 363.902v-0.042zM895.949 358.784c0-208.169-172.329-378.624-384.085-379.904-210.304 0-383.872 170.455-383.872 379.945 0 85.806 44.245 187.309 82.090 248.109 5.376 8.619 13.398 11.691 20.736 11.691 2.432 0 4.778-0.342 6.954-0.896 4.139-1.11 17.622-6.017 18.219-22.528 4.608-131.328 13.013-315.905 185.002-317.865 80.682 0 149.122 59.776 156.243 136.873 5.888 63.489-15.232 106.369-37.632 151.809-23.424 47.53-47.614 96.725-47.614 180.65 0 57.686 16.638 114.602 45.694 156.16 7.255 10.325 15.104 13.227 20.27 13.312 3.968-0.299 7.465-3.285 10.322-8.917 38.999-76.757 92.078-144.981 143.447-211.029 85.591-110.080 166.4-214.059 164.311-337.368l-0.087-0.041z" />
<glyph unicode="&#xe934;" horiz-adv-x="1178" d="M444.043 786.732l103.705-237.036 115.707 231.414c40.284 80.574-18.304 175.376-108.39 175.376-87.389 0-146.047-89.69-111.021-169.754z" />
<glyph unicode="&#xe935;" horiz-adv-x="1178" d="M444.043 109.266l103.705 237.036 115.707-231.414c40.284-80.573-18.304-175.37-108.39-175.37-87.389 0-146.047 89.687-111.021 169.748z" />
<glyph unicode="&#xe936;" horiz-adv-x="1178" d="M813.204 163.461l-144.881 214.359 257.428-25.928c89.631-9.032 138.424-109.23 90.266-185.359-46.72-73.851-153.876-75.479-202.813-3.072z" />
<glyph unicode="&#xe937;" horiz-adv-x="1178" d="M321.473 701.27l144.88-214.36-257.426 25.932c-89.631 9.028-138.425 109.224-90.266 185.354 46.719 73.854 153.876 75.478 202.812 3.074z" />
<glyph unicode="&#xe938;" horiz-adv-x="1178" d="M321.473 163.461l144.88 214.359-257.426-25.928c-89.631-9.032-138.425-109.23-90.266-185.359 46.719-73.851 153.876-75.479 202.812-3.072z" />
<glyph unicode="&#xe939;" horiz-adv-x="1178" d="M813.204 701.27l-144.881-214.36 257.428 25.932c89.631 9.028 138.424 109.224 90.266 185.354-46.72 73.854-153.876 75.478-202.813 3.074z" />
<glyph unicode="&#xe93a;" glyph-name="Property-138" d="M874.665 661.334h-154.153c78.167 37.504 132.823 100.48 132.823 192 0 11.776-9.559 21.333-21.335 21.333s-21.335-9.557-21.335-21.333c0-130.688-139.561-178.731-249.129-189.526 33.239 41.088 78.464 108.032 78.464 168.192 0 70.57-57.431 128-128 128-70.57 0-128-57.43-128-128 0-60.16 45.184-127.062 78.464-168.192-109.568 10.752-249.13 58.838-249.13 189.526 0 11.776-9.558 21.333-21.334 21.333s-21.334-9.557-21.334-21.333c0-91.52 54.656-154.496 132.822-192h-154.154c-82.347 0-149.334-66.987-149.334-149.334v-42.666c0-35.286 28.715-63.998 64-63.998h21.334v-277.335c0-105.856 86.144-192 192-192h469.331c105.856 0 192 86.144 192 192v277.335h21.335c35.287 0 64 28.713 64 63.998v42.666c0 82.346-66.985 149.334-149.335 149.334zM512 917.333c47.063 0 85.335-38.272 85.335-85.333 0-53.248-52.48-123.69-85.335-160.768-32.854 37.078-85.334 107.52-85.334 160.768 0 47.062 38.272 85.333 85.334 85.333zM42.667 469.334v42.666c0 58.794 47.872 106.666 106.667 106.666h341.333v-170.666h-426.666c-11.776 0-21.333 9.558-21.333 21.334zM128 128v277.335h362.666v-426.67h-213.333c-82.347 0-149.334 66.99-149.334 149.335zM896 128c0-82.345-66.985-149.335-149.335-149.335h-213.33v426.67h362.665v-277.335zM981.335 469.334c0-11.776-9.559-21.334-21.335-21.334h-426.665v170.666h341.33c58.798 0 106.67-47.872 106.67-106.666v-42.666z" />
<glyph unicode="&#xe93b;" glyph-name="Property-1-7" d="M676.429 496.896l-134.231-134.231 134.231-134.226c8.32-8.32 8.32-21.847 0-30.167-4.183-4.183-9.641-6.231-15.104-6.231s-10.921 2.094-15.104 6.231l-134.23 134.231-134.23-134.231c-4.182-4.183-9.642-6.231-15.104-6.231s-10.922 2.094-15.104 6.231c-8.32 8.32-8.32 21.847 0 30.167l134.23 134.226-134.23 134.231c-8.32 8.32-8.32 21.846 0 30.166s21.846 8.32 30.166 0l134.229-134.23 134.232 134.23c8.32 8.32 21.842 8.32 30.162 0s8.32-21.846 0-30.166h0.087zM981.325 768c0-11.776-9.559-21.334-21.335-21.334h-64c0-0.64 0-1.28-0.082-1.962l-58.455-634.327c-9.175-99.41-91.392-174.377-191.191-174.377h-267.604c-99.712 0-181.888 74.839-191.146 174.080l-59.392 634.582c-0.043 0.682-0.086 1.322-0.086 2.005h-64c-11.776 0-21.333 9.558-21.333 21.334s9.557 21.334 21.333 21.334h214.528c10.666 95.872 92.16 170.666 190.806 170.666h85.334c98.647 0 180.183-74.794 190.807-170.666h214.528c11.776 0 21.289-9.558 21.289-21.334zM321.527 789.334h380.927c-10.368 72.277-72.704 128-147.794 128h-85.336c-75.093 0-137.429-55.723-147.797-128zM853.238 746.666h-682.495l59.178-632.578c7.168-77.225 71.126-135.424 148.65-135.424h267.608c77.65 0 141.568 58.286 148.69 135.639l58.286 632.362h0.082z" />
<glyph unicode="&#xe93c;" glyph-name="Property-139" d="M981.335 490.666h-938.668c-23.564 0-42.667-19.103-42.667-42.666s19.103-42.665 42.667-42.665h938.668c23.562 0 42.665 19.103 42.665 42.665 0 23.564-19.103 42.666-42.665 42.666z" />
<glyph unicode="&#xe93d;" glyph-name="Property-140" d="M981.335 490.666h-426.67v426.668c0 23.564-19.103 42.666-42.665 42.666-23.564 0-42.666-19.102-42.666-42.666v-426.666h-426.668c-23.564-0.002-42.666-19.104-42.666-42.668 0-23.562 19.102-42.665 42.666-42.665h426.666v-426.665c0-23.567 19.102-42.67 42.666-42.67s42.667 19.103 42.667 42.67v426.665h426.665c23.562 0 42.665 19.103 42.665 42.665 0.005 23.564-19.098 42.666-42.66 42.666z" />
<glyph unicode="&#xe93e;" glyph-name="Property-141" d="M1017.692-27.366l-271.14 271.14c68.931 76.14 111.355 176.732 111.355 287.315 0 236.483-192.425 428.912-428.953 428.912-236.526 0-428.955-192.429-428.955-428.955 0-236.528 192.429-428.953 428.955-428.953 110.54 0 211.132 42.378 287.272 111.314l271.14-271.145c4.204-4.204 9.697-6.262 15.186-6.262s10.982 2.104 15.186 6.262c8.361 8.366 8.361 21.965 0 30.326l-0.046 0.046zM42.895 531.045c0 212.89 173.169 386.059 386.059 386.059s386.057-173.212 386.057-386.059-173.169-386.057-386.057-386.057c-212.89 0-386.059 173.21-386.059 386.057z" />
<glyph unicode="&#xe93f;" glyph-name="Property-142" d="M861.655 797.665c-5.601 5.599-13.194 8.744-21.115 8.744s-15.514-3.145-21.115-8.744l-307.425-307.423-307.423 307.423c-5.601 5.599-13.196 8.744-21.116 8.744s-15.515-3.145-21.116-8.744c-5.599-5.601-8.745-13.196-8.745-21.116s3.146-15.515 8.745-21.116l307.423-307.423-307.423-307.424c-5.599-5.601-8.745-13.194-8.745-21.115s3.146-15.514 8.745-21.115c5.601-5.601 13.196-8.745 21.116-8.745s15.515 3.144 21.116 8.745l307.423 307.42 307.425-307.42c5.601-5.601 13.194-8.745 21.115-8.745s15.514 3.144 21.115 8.745c5.601 5.601 8.745 13.194 8.745 21.115s-3.144 15.514-8.745 21.115l-307.425 307.424 307.425 307.423c5.601 5.601 8.745 13.196 8.745 21.116s-3.144 15.515-8.745 21.116z" />
<glyph unicode="&#xe940;" glyph-name="Property-1-8" d="M511.993 320c-39.082 0-75.776 15.191-103.424 42.839l-188.502 176.254c-8.576 8.022-9.045 21.546-0.981 30.166 8.021 8.576 21.546 9.045 30.165 0.981l189.014-176.767c40.15-40.064 107.819-39.593 146.987-0.512l189.481 177.237c8.622 8.022 22.144 7.594 30.167-0.982 8.023-8.618 7.593-22.144-0.983-30.165l-189.010-176.77c-27.136-27.136-63.831-42.322-102.914-42.322v0.041z" />
<glyph unicode="&#xe941;" glyph-name="Property-1-11" d="M971.648 587.903c-40.535 46.635-99.2 73.43-160.983 73.43h-207.785l34.519 120.874c24.32 128.384-165.847 189.696-219.821 68.352l-119.509-189.226h-106.027c-105.898 0-192.042-86.144-192.042-192v-255.998c0-105.856 86.144-192 192-192h588.585c105.687 0 196.48 78.889 211.246 183.552l30.080 213.33c8.617 61.228-9.728 123.052-50.263 169.687zM42.667 213.335v255.998c0 82.346 66.987 149.334 149.333 149.334h107.178l-0.469-554.666h-106.667c-82.346 0-149.333 66.985-149.333 149.335h-0.043zM979.671 424.151l-30.080-213.335c-11.822-83.712-84.439-146.816-169.006-146.816h-439.251l0.512 586.837 112.853 178.858c32.939 79.702 153.645 42.027 141.142-38.186l-41.769-145.664c-1.838-6.442-0.599-13.354 3.456-18.688 4.050-5.334 10.322-8.49 17.024-8.49h236.073c100.695 2.304 185.344-95.062 169.001-194.515h0.046z" />
<glyph unicode="&#xe942;" glyph-name="Property-1-9" d="M512-49.495c-15.36 0-30.72 5.55-42.666 16.215l-166.4 139.945h-153.6c-82.347 0-149.334 66.99-149.334 149.335v554.666c0 82.347 66.986 149.334 149.334 149.334h725.331c82.35 0 149.335-66.986 149.335-149.334v-554.666c0-82.345-66.985-149.335-149.335-149.335h-150.61l-170.24-140.37c-11.95-10.67-26.88-15.79-41.815-15.79zM149.334 917.333c-58.88 0-106.667-47.787-106.667-106.667v-554.666c0-58.88 47.787-106.665 106.667-106.665h161.706c5.12 0 9.814-1.71 13.654-5.12l172.8-145.495c8.533-7.68 20.482-7.68 28.586 0l176.64 145.92c3.84 2.985 8.535 4.695 13.655 4.695h158.29c58.88 0 106.67 47.785 106.67 106.665v554.666c0 58.88-47.79 106.667-106.67 106.667h-725.331zM372.906 276.48c-8.96 0-17.92 2.985-25.6 8.535-14.506 10.665-20.48 29.865-15.36 46.93l40.107 128.429-101.12 82.346c-14.080 11.946-18.774 30.72-12.8 47.36s22.186 27.734 40.106 27.734h128l45.226 121.6c5.974 15.786 21.76 26.453 40.107 26.453s34.131-10.24 40.106-26.453l45.225-121.6h128c17.92 0 34.135-11.094 40.11-28.16 5.97-16.64 1.28-35.414-12.375-46.934l-101.12-82.346 41.815-127.149c5.545-17.065 0-36.265-14.51-47.36-14.505-11.090-34.13-11.945-49.49-2.13l-117.335 76.37-115.626-77.225c-7.254-4.695-15.36-7.255-23.894-7.255l0.426 0.855zM298.666 575.574l111.787-90.88c6.826-5.547 9.386-14.507 6.826-23.040l-44.374-142.509 127.147 84.91c7.253 4.69 16.211 4.69 23.466 0l129.28-84.055-46.505 141.226c-2.56 8.534 0 17.494 6.825 23.040l112.215 91.307h-143.36c-8.96-0.427-17.070 5.12-20.055 13.226l-50.346 135.68-50.347-135.68c-2.986-8.534-11.093-14.080-20.053-14.080h-142.934l0.426 0.854z" />
<glyph unicode="&#xe943;" glyph-name="Property-143" d="M832 960h-640c-105.856 0-192-86.144-192-192v-384c0-105.856 86.144-192 192-192h170.666c11.776 0 21.334 9.559 21.334 21.335s-9.558 21.33-21.334 21.33h-170.666c-82.346 0-149.333 66.99-149.333 149.335v234.666h938.668v-106.666c0-11.776 9.554-21.334 21.33-21.334s21.335 9.558 21.335 21.334v256c0 105.856-86.144 192-192 192zM192 917.333h640c75.008 0 136.704-55.808 147.159-128h-934.316c10.453 72.192 72.149 128 147.157 128zM42.667 661.334v85.333h938.668v-85.333h-938.668zM125.526 405.335c0-47.063 38.272-85.335 85.333-85.335s85.334 38.272 85.334 85.335c0 47.059-38.272 85.331-85.334 85.331s-85.333-38.272-85.333-85.331zM253.526 405.335c0-23.511-19.115-42.67-42.667-42.67s-42.666 19.159-42.666 42.67c0 23.506 19.114 42.665 42.666 42.665s42.667-19.159 42.667-42.665zM746.665 490.666c-152.914 0-277.331-124.418-277.331-277.331 0-152.919 124.418-277.335 277.331-277.335 152.919 0 277.335 124.416 277.335 277.335 0 152.914-124.416 277.331-277.335 277.331zM746.665-21.335c-129.362 0-234.665 105.262-234.665 234.67s105.303 234.665 234.665 234.665c129.367 0 234.67-105.257 234.67-234.665s-105.303-234.67-234.67-234.67zM889.6 271.232c8.192-8.489 7.977-21.975-0.512-30.167l-115.328-111.529c-15.36-15.145-35.625-22.784-55.936-22.784s-40.535 7.552-55.977 22.697l-58.199 57.39c-8.361 8.274-8.448 21.801-0.169 30.162 8.233 8.407 21.76 8.494 30.162 0.215l58.112-57.344c14.295-14.080 37.76-14.080 52.142 0.169l115.497 111.662c8.448 8.146 22.057 7.977 30.167-0.512l0.041 0.041z" />
<glyph unicode="&#xe944;" glyph-name="Property-144" d="M719.171 625.023l-188.375-191.191c-18.941-18.944-43.816-28.457-68.691-28.457s-49.622 9.431-68.522 28.329l-103.339 106.028c-8.234 8.448-8.064 21.974 0.384 30.166s21.974 8.064 30.166-0.384l103.126-105.856c20.992-20.947 55.424-20.994 76.586 0.17l188.243 191.104c8.238 8.406 21.76 8.534 30.167 0.214 8.407-8.235 8.489-21.76 0.215-30.166l0.041 0.042zM1018.819 105.001c-10.496-25.344-34.048-41.088-61.527-41.088h-61.394v-61.225c0-27.479-15.79-51.072-41.134-61.527-8.489-3.538-17.234-5.248-25.856-5.248-17.152 0-33.792 6.784-46.72 19.758l-183.337 183.68c-7.040-5.888-14.249-11.648-22.615-16.256-19.968-11.054-42.368-16.599-64.765-16.599-22.4 0-44.8 5.545-64.768 16.599-8.15 4.521-15.147 10.153-22.059 15.872l-182.954-183.296c-12.886-12.974-29.526-19.758-46.72-19.758-8.618 0-17.366 1.71-25.856 5.207-25.386 10.496-41.174 34.089-41.174 61.568v61.225h-61.397c-27.435 0-50.987 15.744-61.483 41.088-10.539 25.344-4.992 53.166 14.421 72.576l151.466 151.47c0.043 9.856 0.598 19.666 2.774 29.312 5.12 22.441-5.162 46.377-25.6 59.561-19.158 12.329-34.688 29.143-46.25 49.962-10.88 19.669-16.555 42.282-16.427 65.45-0.128 22.912 5.547 45.482 16.427 65.152 11.562 20.864 27.136 37.674 46.25 50.006 20.438 13.184 30.72 37.12 25.6 59.562-5.162 22.784-4.394 46.166 2.346 69.546 12.587 43.862 47.702 78.976 91.606 91.563 23.382 6.698 46.72 7.466 69.462 2.346 22.4-5.162 46.378 5.206 59.605 25.6 12.331 19.115 29.142 34.645 49.963 46.208 40.021 22.144 89.597 22.144 129.58 0 20.818-11.563 37.632-27.093 49.961-46.208 13.184-20.438 37.207-30.72 59.607-25.6 22.697 5.162 46.080 4.394 69.417-2.346 43.904-12.587 79.017-47.702 91.607-91.563 6.738-23.381 7.506-46.762 2.345-69.504-5.12-22.442 5.161-46.378 25.6-59.562 19.159-12.33 34.688-29.142 46.249-49.962 10.88-19.627 16.558-42.24 16.471-65.366 0.087-22.998-5.591-45.568-16.471-65.194-11.561-20.866-27.136-37.674-46.249-50.003-20.439-13.184-30.72-37.12-25.6-59.566 2.089-9.298 2.56-18.77 2.688-28.242l152.535-152.535c19.41-19.415 24.914-47.191 14.418-72.576l-0.041-0.087zM395.715 170.409c-13.312 19.584-36.778 29.527-58.666 24.535-22.698-5.161-46.080-4.393-69.418 2.345-40.235 11.52-72.15 42.368-87.083 81.111l-130.986-130.985c-10.496-10.496-6.613-22.615-5.205-26.071 1.451-3.456 7.253-14.761 22.101-14.761h82.73c11.776 0 21.334-9.559 21.334-21.335v-82.56c0-14.848 11.306-20.695 14.806-22.144 3.456-1.408 15.573-5.289 26.069 5.248l184.32 184.617zM590.316 192.471c22.912 35.456 65.070 53.033 104.878 44.073 15.657-3.584 31.913-2.944 48.256 1.705 29.44 8.448 53.929 32.896 62.336 62.336 4.69 16.43 5.289 32.686 1.746 48.302-9.042 39.89 8.663 82.002 44.078 104.872 13.184 8.491 23.977 20.224 32.041 34.859 7.337 13.269 11.177 28.629 11.136 44.501 0.041 16.043-3.753 31.403-11.136 44.672-8.105 14.592-18.903 26.326-32.041 34.816-35.456 22.87-53.166 65.024-44.078 104.875 3.543 15.658 2.99 31.914-1.746 48.298-8.448 29.44-32.896 53.93-62.336 62.336-16.343 4.694-32.558 5.334-48.256 1.706-39.726-8.917-82.007 8.662-104.878 44.075-8.489 13.184-20.224 23.978-34.816 32.042-26.752 14.891-61.395 14.848-88.147 0-14.592-8.064-26.326-18.858-34.774-32.042-22.912-35.456-65.066-53.035-104.874-44.075-15.658 3.584-31.914 2.987-48.256-1.706-29.44-8.448-53.93-32.896-62.336-62.336-4.694-16.426-5.29-32.682-1.75-48.298 9.046-39.894-8.661-82.006-44.074-104.875-13.184-8.49-23.978-20.224-32.042-34.858-7.339-13.27-11.179-28.63-11.094-44.458-0.086-16.086 3.754-31.488 11.094-44.758 8.106-14.592 18.901-26.326 32.042-34.816 35.456-22.869 53.162-65.022 44.074-104.876-3.541-15.657-2.944-31.913 1.75-48.297 8.448-29.44 32.896-53.929 62.336-62.336 16.342-4.649 32.554-5.335 48.256-1.705 6.954 1.577 13.952 2.345 20.95 2.345 33.024 0 65.066-17.152 83.968-46.377 8.49-13.184 20.224-23.982 34.816-32.046 26.709-14.889 61.356-14.848 88.148 0 14.633 8.11 26.327 18.903 34.816 32.046h-0.087zM974.234 147.415l-131.63 131.625c-14.761-39.081-46.889-70.185-87.378-81.792-23.342-6.697-46.72-7.465-69.463-2.345-21.847 5.033-44.8-4.782-58.199-23.982l184.791-185.129c10.537-10.537 22.615-6.656 26.071-5.248 3.497 1.449 14.802 7.255 14.802 22.144v82.56c0 11.776 9.559 21.335 21.335 21.335h82.729c14.848 0 20.654 11.305 22.103 14.761s5.376 15.575-5.161 26.071z" />
<glyph unicode="&#xe945;" glyph-name="Property-145" d="M1008.379 691.2l-62.551 103.894c-12.969 21.717-30.679 51.413-56.745 59.648l-293.591 92.885c-54.743 17.323-112.598 17.323-167.339 0l-293.59-92.928c-24.746-7.851-45.782-24.406-59.904-47.958l-58.411-113.92c-17.621-29.227-20.949-64.342-9.131-96.342 11.776-32 37.12-56.576 69.504-67.328l8.96-2.986-0.256-324.438c-0.042-82.816 52.694-156.119 131.286-182.272l207.446-69.161c28.288-9.431 57.984-14.167 87.722-14.167 29.737 0 59.433 4.695 87.721 14.167l207.616 69.202c78.592 26.199 131.502 99.328 131.543 182.016v324.866l10.153 3.37c31.959 10.666 56.919 34.858 68.567 66.432s8.361 66.218-9.001 95.061v-0.042zM47.139 611.242c-7.296 19.798-5.248 41.515 6.358 60.843l58.41 113.962c2.816 4.694 6.23 8.96 10.112 12.714l358.742-119.978-84.224-155.264c-16.512-27.52-49.323-39.637-79.702-29.482l-226.688 75.562c-20.010 6.699-35.712 21.846-43.008 41.642zM490.147-20.224c-17.834 1.623-35.542 5.289-52.608 10.967l-207.446 69.161c-61.141 20.393-102.186 77.353-102.144 141.783l0.214 310.27 175.062-58.368c49.664-16.557 102.954 3.2 130.261 48.81l56.875 104.832-0.299-627.415 0.086-0.041zM180.003 824.363l261.034 82.602c46.294 14.635 95.277 14.635 141.613 0l261.76-82.859-332.206-110.848-332.201 111.105zM895.995 201.513c-0.046-64.297-41.175-121.17-102.359-141.568l-207.616-69.202c-17.239-5.76-35.113-9.431-53.161-11.008l0.297 627.71 57.431-105.856c20.48-34.176 56.448-53.758 94.377-53.758 11.735 0 23.68 1.875 35.415 5.801l175.657 58.538v-310.611l-0.041-0.046zM977.357 610.944c-7.122-19.37-22.441-34.218-42.025-40.746l-228.48-76.16c-30.464-10.027-63.191 1.962-79.232 28.672l-84.567 155.904 351.616 117.333c5.76-8.021 11.054-16.896 14.551-22.741l62.633-104.022c10.67-17.706 12.672-38.912 5.504-58.282v0.042z" />
<glyph unicode="&#xe946;" glyph-name="Property-146" d="M0 554.666c0 11.776 9.557 21.334 21.333 21.334h213.333c11.776 0 21.334-9.558 21.334-21.334s-9.558-21.333-21.334-21.333h-213.333c-11.776 0-21.333 9.557-21.333 21.333zM1024 511.999v-213.335c0-63.826-40.279-118.441-96.768-139.776 7.511-16.384 11.433-34.048 11.433-52.224 0-70.569-57.426-128-128-128-70.569 0-128 57.431-128 128 0 14.679 2.56 29.056 7.511 42.67h-356.352c4.95-13.614 7.51-27.991 7.51-42.67 0-70.569-57.43-128-128-128s-128 57.431-128 128c0 18.176 3.925 35.84 11.434 52.224-56.491 21.335-96.768 75.95-96.768 139.776v128c0 11.776 9.557 21.335 21.333 21.335s21.333-9.559 21.333-21.335v-128c0-58.793 47.829-106.665 106.667-106.665h533.331v533.333c0 82.346-66.985 149.333-149.33 149.333-11.776 0-21.335 9.558-21.335 21.334s9.559 21.333 21.335 21.333c105.856 0 192-86.144 192-192v-21.334h106.665c105.856 0 192-86.144 192-192zM725.335 661.333v-213.333h256v63.999c0 82.346-66.99 149.334-149.335 149.334h-106.665zM286.848 149.335h-137.514c-3.115 0-6.23 0.128-9.344 0.297-7.894-13.184-11.99-27.817-11.99-42.967 0-47.058 38.272-85.33 85.334-85.33s85.333 38.272 85.333 85.33c0 15.022-4.053 29.568-11.818 42.67zM884.009 149.632c-3.072-0.215-6.185-0.297-9.344-0.297h-137.513c-7.767-13.102-11.817-27.648-11.817-42.67 0-47.058 38.272-85.33 85.33-85.33 47.063 0 85.335 38.272 85.335 85.33 0 15.15-4.137 29.783-11.991 42.967zM981.335 298.665v106.67h-256v-213.335h149.33c58.839 0 106.67 47.872 106.67 106.665zM21.333 874.666h384c11.776 0 21.333 9.558 21.333 21.334s-9.557 21.333-21.333 21.333h-384c-11.776 0-21.333-9.557-21.333-21.333s9.557-21.334 21.333-21.334zM21.333 703.999h298.667c11.776 0 21.334 9.558 21.334 21.334s-9.558 21.333-21.334 21.333h-298.667c-11.776 0-21.333-9.557-21.333-21.333s9.557-21.334 21.333-21.334z" />
<glyph unicode="&#xe947;" glyph-name="Property-147" d="M21.344-64c-5.461 0-10.923 2.089-15.104 6.231-8.32 8.32-8.32 21.842 0 30.162l981.331 981.378c8.32 8.32 21.847 8.32 30.167 0s8.32-21.845 0-30.165l-981.29-981.375c-4.181-4.183-9.643-6.231-15.104-6.231zM384.011 746.667c0 94.122-76.544 170.667-170.667 170.667s-170.666-76.544-170.666-170.667c0-94.122 76.544-170.666 170.666-170.666s170.667 76.544 170.667 170.666zM341.344 746.667c0-70.57-57.43-128-128.001-128s-127.999 57.43-127.999 128c0 70.57 57.429 128 127.999 128s128.001-57.43 128.001-128zM981.345 149.335c0 94.121-76.544 170.665-170.67 170.665-94.121 0-170.665-76.544-170.665-170.665 0-94.126 76.544-170.67 170.665-170.67 94.126 0 170.67 76.544 170.67 170.67zM938.675 149.335c0-70.574-57.426-128-128-128-70.569 0-128 57.426-128 128 0 70.569 57.431 128 128 128 70.574 0 128-57.431 128-128z" />
<glyph unicode="&#xe948;" glyph-name="Property-1Plus" d="M512 960c-282.326 0-512-229.674-512-512s229.674-512 512-512c282.327 0 512 229.673 512 512s-229.673 512-512 512zM512-21.335c-258.774 0-469.333 210.56-469.333 469.335 0 258.774 210.56 469.333 469.333 469.333 258.775 0 469.335-210.56 469.335-469.333 0-258.775-210.56-469.335-469.335-469.335zM725.335 448c0-11.776-9.559-21.335-21.335-21.335h-170.665v-170.665c0-11.776-9.559-21.335-21.335-21.335s-21.334 9.559-21.334 21.335v170.665h-170.666c-11.776 0-21.334 9.559-21.334 21.335s9.558 21.334 21.334 21.334h170.666v170.666c0 11.776 9.558 21.334 21.334 21.334s21.335-9.558 21.335-21.334v-170.666h170.665c11.776 0 21.335-9.558 21.335-21.334z" />
<glyph unicode="&#xe949;" glyph-name="Property-1Arrow" d="M190.116 264.172c-11.581-8.11-14.396-24.074-6.287-35.656s24.073-14.397 35.654-6.287l-29.367 41.943zM817.178 649.894c2.458 13.923-6.84 27.201-20.762 29.656l-226.903 40.009c-13.921 2.455-27.203-6.842-29.655-20.766-2.458-13.924 6.84-27.202 20.767-29.657l201.687-35.563-35.564-201.687c-2.452-13.926 6.84-27.203 20.767-29.66 13.921-2.452 27.203 6.845 29.655 20.767l40.008 226.9zM204.8 243.2l14.684-20.972 587.167 411.141-29.368 41.941-587.166-411.139 14.684-20.972z" />
<glyph unicode="&#xe94a;" glyph-name="Property-148" d="M764.641 908.864h-498.995c-95.282 0-172.822-77.539-172.822-172.822v-633.105c0-46.198 32.99-95.319 73.545-109.491 11.867-4.147 24.080-6.18 36.101-6.18 28.189 0 55.61 11.059 76.425 31.913l236.227 234.998 233.503-232.274c30.991-30.874 76.119-42.168 115.098-28.534 44.82 15.596 73.738 56.11 73.738 103.235v639.438c0 95.282-77.537 172.822-172.82 172.822zM899.057 96.604c0-30.996-18.396-56.689-47.969-66.939-25.155-8.796-54.687-1.039-75.387 19.507l-247.055 245.714c-7.491 7.414-19.589 7.414-27.078 0l-249.785-248.52c-19.51-19.507-46.662-25.728-72.777-16.701-25.001 8.755-47.776 43.663-47.776 73.236v633.141c0 74.121 60.296 134.417 134.417 134.417h498.995c74.122 0 134.415-60.296 134.415-134.417v-639.438z" />
<glyph unicode="&#xe94b;" glyph-name="Property-1-10" d="M972.979 949.445c-24.32 13.995-51.113 14.123-73.641 0.085-120.617-75.221-235.735-82.816-347.136-90.155-124.031-8.149-241.194-15.914-343.253-118.442-82.090-82.474-125.952-192.17-123.562-308.82 2.176-102.441 39.893-198.057 107.093-273.449l-186.24-186.24c-8.32-8.32-8.32-21.847 0-30.167 4.181-4.183 9.643-6.231 15.104-6.231s10.923 2.094 15.104 6.231l185.984 185.943c75.563-69.632 172.118-106.88 275.414-106.88 12.842 0 25.772 0.553 38.782 1.746 127.79 11.392 246.144 77.614 324.736 181.719 98.478 130.432 153.216 350.292 162.647 653.524 1.111 35.754-19.881 73.259-50.985 91.179l-0.046-0.043zM827.274 230.472c-71.337-94.51-178.688-154.629-294.441-164.951-105.729-9.472-205.868 24.064-281.858 94.377-77.056 71.214-120.661 168.192-122.837 273.024-2.176 104.961 37.29 203.649 111.104 277.846 90.666 91.136 194.986 98.006 315.775 105.984 111.191 7.296 237.225 15.616 366.935 96.512 9.088 5.589 19.072 5.333 29.737-0.853 17.792-10.24 30.249-32.469 29.609-52.864-9.001-290.048-62.249-507.603-154.025-629.162v0.087zM640.010 659.184c-46.080 0-84.352-20.437-106.665-53.504-22.316 33.024-60.588 53.504-106.668 53.504-70.57 0-128-61.269-128-136.533 0-97.747 119.595-219.178 182.784-269.738 15.274-12.201 33.58-18.304 51.884-18.304s36.562 6.103 51.881 18.304c63.191 50.56 182.784 171.991 182.784 269.738 0 75.306-57.431 136.533-128 136.533zM558.561 286.234c-14.848-11.858-35.584-11.858-50.434 0-64.511 51.543-166.784 161.326-166.784 236.417 0 51.754 38.272 93.866 85.334 93.866 50.262 0 85.333-34.304 85.333-83.414 0-11.776 9.559-21.333 21.335-21.333s21.33 9.557 21.33 21.333c0 49.11 35.072 83.414 85.335 83.414 47.063 0 85.335-42.112 85.335-93.866 0-75.091-102.272-184.874-166.784-236.417z" />
<glyph unicode="&#xe94c;" glyph-name="Property-1--2" d="M512.015 768v170.667c0 11.776 9.559 21.333 21.335 21.333s21.335-9.557 21.335-21.333v-170.667c0-11.776-9.559-21.334-21.335-21.334s-21.335 9.558-21.335 21.334zM714.383 671.702c5.463 0 10.926 2.090 15.104 6.229l120.704 120.704c8.32 8.32 8.32 21.846 0 30.166s-21.842 8.32-30.162 0l-120.704-120.704c-8.32-8.32-8.32-21.846 0-30.166 4.178-4.181 9.6-6.229 15.058-6.229zM246.715 828.8c-8.32 8.32-21.846 8.32-30.166 0s-8.32-21.846 0-30.166l120.704-120.704c8.32-8.32 21.846-8.32 30.166 0s8.32 21.846 0 30.166l-120.704 120.704zM277.35 533.334h-170.666c-11.776 0-21.334-9.558-21.334-21.334s9.558-21.334 21.334-21.334h170.666c11.776 0 21.334 9.558 21.334 21.334s-9.558 21.334-21.334 21.334zM935.823 219.735c-7.209-22.446-26.24-38.062-49.705-40.663l-119.040-13.225 58.921-112.64c21.376-37.888 4.736-90.199-34.688-108.8-37.929-19.2-85.248-5.038-105.897 33.577l-63.529 121.001-94.592-103.168c-18.648-17.536-43.096-21.714-65.026-12.16-21.93 9.518-35.542 30.295-35.542 54.19v497.363c0 30.976 17.494 58.24 45.611 71.168 28.117 12.971 60.246 8.448 83.757-11.733l362.706-312.662c0 0 0.215-0.215 0.343-0.297 17.536-15.79 23.895-39.511 16.681-61.952zM890.685 249.856l-362.455 312.448c-10.793 9.302-25.089 11.264-38.102 5.334-13.014-5.974-20.779-18.091-20.779-32.427v-497.41c0-9.728 6.912-13.778 9.856-15.058 2.987-1.367 10.667-3.63 17.75 3.072l113.963 124.37c9.431 10.839 28.329 8.32 34.647-4.48l77.522-147.666c9.472-17.582 31.104-24.494 49.152-15.447 18.35 8.704 26.071 32.983 16.087 50.688l-73.472 140.457c-7.127 12.718 2.048 29.911 16.553 31.104l150.016 16.64c9.518 1.070 12.8 8.238 13.783 11.31 0.983 3.026 2.432 10.706-4.521 17.065z" />
<glyph unicode="&#xe94d;" glyph-name="Property-1-12" d="M1021.983 629.806c-36.931 162.438-165.724 291.277-328.207 328.205-23.608 5.336-48.026-0.171-66.939-15.198-18.57-14.814-29.24-36.97-29.24-60.706v-241.713c0-58.828 47.857-106.726 106.726-106.726h241.756c23.736 0 45.85 10.673 60.662 29.2 15.068 18.869 20.618 43.288 15.242 66.938zM973.399 589.506c-6.661-8.368-16.65-13.149-27.32-13.149h-241.756c-35.308 0-64.036 28.773-64.036 64.036v241.713c0 10.673 4.782 20.62 13.189 27.322 8.709 6.916 19.978 9.435 30.868 6.959 146.514-33.341 262.717-149.545 296.013-296.101 2.478-10.929-0.041-22.157-6.958-30.823v0.043zM835.978 448.243h-259.686c-35.302 0-64.036 28.731-64.036 64.036v259.686c0 36.543-10.501 64.207-31.206 82.18-27.621 23.992-64.121 21.9-78.508 19.808-242.653-34.707-418.922-255.503-401.333-502.64 16.436-231.040 203.078-417.725 434.12-434.12 11.398-0.809 22.711-1.193 33.981-1.193 233.093 0 435.573 171.059 468.659 402.529 2.048 14.387 4.224 50.842-19.809 78.505-17.976 20.705-45.594 31.209-82.181 31.209zM895.662 344.55c-31.549-220.585-232.581-380.718-457.303-364.795-206.579 14.689-379.902 188.052-394.631 394.634-15.966 224.892 144.251 425.751 364.833 457.299 2.177 0.298 6.105 0.769 10.886 0.769 9.904 0 23.65-1.836 33.64-10.545 10.972-9.52 16.521-26.297 16.521-49.905v-259.686c0-58.827 47.9-106.725 106.724-106.725h259.686c23.654 0 40.433-5.55 49.91-16.522 12.846-14.812 10.711-37.821 9.774-44.483l-0.041-0.041z" />
<glyph unicode="&#xe94e;" glyph-name="Property-149" d="M1024 597.334v-469.334c0-105.856-86.144-192-192-192h-640c-105.856 0-192 86.144-192 192v512c0 105.856 86.144 192 192 192h298.666c11.776 0 21.334-9.558 21.334-21.334s-9.558-21.333-21.334-21.333h-298.666c-68.736 0-126.208-46.976-143.488-110.336l357.888-357.933c56.448-56.402 154.793-56.402 211.2 0l157.783 163.074c8.146 8.448 21.76 8.662 30.162 0.512 8.448-8.192 8.704-21.717 0.512-30.165l-158.034-163.326c-36.48-36.526-84.695-56.494-136.023-56.494s-99.498 19.968-135.766 56.238l-333.568 333.609v-496.512c0-82.345 66.987-149.335 149.333-149.335h640c82.345 0 149.335 66.99 149.335 149.335v469.334c0 11.776 9.554 21.333 21.33 21.333s21.335-9.557 21.335-21.333zM597.335 833.066c0 70.016 52.608 126.934 117.33 126.934 38.656 0 74.368-19.029 96-47.061 21.632 27.989 57.344 47.061 96 47.061 64.727 0 117.335-56.918 117.335-126.934 0-84.053-92.8-188.97-151.296-235.392-18.263-14.506-40.151-21.717-62.039-21.717s-43.776 7.21-62.034 21.717c-58.496 46.422-151.296 151.339-151.296 235.392zM640 833.066c0-64.64 80.64-158.72 135.127-201.941 20.905-16.598 50.176-16.598 71.081 0 54.487 43.264 135.127 137.344 135.127 201.941 0 46.464-33.495 84.267-74.67 84.267-42.025 0-74.665-34.432-74.665-64 0-11.776-9.559-21.334-21.335-21.334s-21.33 9.558-21.33 21.334c0 29.568-32.64 64-74.67 64-41.17 0-74.665-37.803-74.665-84.267z" />
<glyph unicode="&#xe94f;" glyph-name="Property-150" d="M1019.167-23.936c16.512-25.303-15.616-53.673-37.591-32.937-341.801 322.089-666.239 647.464-974.506 974.291-20.693 21.973 7.509 54.4 32.64 37.632 280.277-187.051 685.61-528.385 979.457-978.986zM978.632 412.503c23.68-20.439 57.815 8.192 40.832 34.473-172.928 267.562-378.071 426.453-509.226 508.672-26.368 16.555-54.016-17.408-33.664-40.96 163.411-189.355 312.746-338.688 502.058-502.185zM37.192 574.037c-24.149 14.336-49.579-17.152-30.507-37.76 189.184-204.501 387.328-402.174 593.537-593.58 20.818-19.328 52.265 6.999 37.458 31.232-196.478 321.495-424.36 495.404-600.489 600.108z" />
<glyph unicode="&#xe950;" glyph-name="Property-151" d="M1022.464 434.601l-0.128 0.256-0.087 0.215-149.033 372.566c-16.297 40.746-55.168 67.072-99.031 67.072h-240.896v63.957c0 11.776-9.554 21.333-21.331 21.333-11.776 0-21.334-9.557-21.334-21.333v-64h-240.854c-43.861 0-82.73-26.325-99.029-67.072l-149.206-372.994c-1.024-2.514-1.536-46.976-1.536-46.976 0-93.737 62.166-172.416 151.168-191.314 13.398-2.862 27.050-4.311 40.534-4.311h0.341c105.814 0.169 191.958 86.313 191.958 192 0 0-0.512 48.041-1.536 50.601l-0.128 0.256-156.928 392.365c7.552 3.114 15.786 4.778 24.362 4.778h240.896v-853.335h-298.666c-11.776 0-21.334-9.554-21.334-21.33s9.558-21.335 21.334-21.335h640c11.776 0 21.335 9.559 21.335 21.335s-9.559 21.33-21.335 21.33h-298.665v853.335h240.896c8.576 0 16.85-1.664 24.361-4.778l-157.056-392.621c-1.024-2.514-1.536-50.601-1.536-50.601 0-105.687 86.144-191.831 191.959-192h0.338c13.486 0 27.136 1.449 40.494 4.311 89.042 18.944 151.209 97.618 151.209 191.314 0 0-0.512 44.462-1.536 46.976zM191.958 234.665c-12.075-0.681-21.334 1.111-31.915 3.374-69.077 14.674-117.376 76.201-117.376 149.586v17.71h298.667v-21.335c0-82.176-66.987-149.207-149.376-149.335zM331.178 448h-278.357c0 0 138.624 346.41 139.264 347.69l139.093-347.69zM831.913 795.69c0.64-1.28 139.223-347.69 139.223-347.69h-278.313l139.090 347.69zM863.913 238.039c-10.537-2.263-19.881-4.142-31.872-3.374-82.386 0.128-149.376 67.159-149.376 149.335v21.335h298.67v-17.71c0-73.385-48.302-134.912-117.422-149.586z" />
<glyph unicode="&#xe951;" glyph-name="Property-152" d="M893.865 868.336c-80.261 52.096-168.023 57.046-247.127 14.166-60.928-33.11-108.8-90.838-134.742-157.696-25.899 66.858-73.771 124.586-134.742 157.696-79.104 42.923-166.826 37.931-247.082-14.166-81.92-53.12-131.755-141.013-130.134-229.333 3.669-194.561 205.056-448.17 390.656-601.473 35.158-29.056 78.208-43.561 121.302-43.561 43.048 0 86.143 14.505 121.302 43.561 185.6 153.303 386.985 406.958 390.656 601.473 1.664 88.32-48.128 176.213-130.089 229.333zM606.162 70.385c-54.569-45.056-133.761-45.015-188.289 0-178.261 147.328-371.712 388.308-375.125 569.386-1.408 73.728 41.003 147.584 110.677 192.768 36.864 23.936 75.52 35.925 113.622 35.925 30.678 0 61.056-7.808 89.898-23.466 78.763-42.794 133.76-138.368 133.76-232.362 0-11.776 9.558-21.334 21.331-21.334 11.781 0 21.335 9.558 21.335 21.334 0 94.037 55.040 189.568 133.76 232.362 64.686 35.072 136.919 30.72 203.52-12.458 69.632-45.184 112.046-119.040 110.679-192.768-3.415-181.035-196.905-422.058-375.168-569.386z" />
<glyph unicode="&#xe952;" glyph-name="Property-153" d="M279.424 703.201c0 141.591 115.328 256.799 257.065 256.799 141.742 0 257.111-115.208 257.111-256.799s-115.328-256.798-257.111-256.798c-141.779 0-257.065 115.207-257.065 256.798zM322.090 703.201c0-118.106 96.171-214.177 214.398-214.177 118.231 0 214.446 96.071 214.446 214.177s-96.174 214.177-214.446 214.177c-118.27 0-214.398-96.071-214.398-214.177zM537.6 362.225c-211.712 0-384-172.068-384-383.601v-21.315c0-11.761 9.558-21.309 21.334-21.309s21.333 9.549 21.333 21.309v21.315c0 188.006 153.131 340.977 341.334 340.977 188.201 0 341.335-152.97 341.335-340.977v-21.315c0-11.761 9.554-21.309 21.33-21.309s21.335 9.549 21.335 21.309v21.315c0 211.533-172.288 383.601-384 383.601z" />
<glyph unicode="&#xe953;" glyph-name="Property-154" d="M896 703.521h-128c0 141.498-116.352 256.607-259.286 256.607-139.349 0-252.714-115.109-252.714-256.607h-128c-70.57 0-128-57.384-128-127.899v-447.647c0-105.769 86.144-191.846 192-191.846h640c105.856 0 192 86.077 192 191.846v447.647c0 70.515-57.431 127.899-128 127.899zM508.714 917.495c119.469 0 216.621-95.967 216.621-213.974h-426.669c0 118.008 94.208 213.974 210.048 213.974zM981.335 127.974c0-82.278-66.99-149.212-149.335-149.212h-640c-82.346 0-149.333 66.934-149.333 149.212v447.647c0 47.024 38.272 85.266 85.333 85.266h128v-149.215c0-11.766 9.558-21.316 21.334-21.316s21.333 9.55 21.333 21.316v149.215h426.669v-149.215c0-11.766 9.554-21.316 21.33-21.316s21.335 9.55 21.335 21.316v149.215h128c47.063 0 85.335-38.242 85.335-85.266v-447.647z" />
</font>
</defs>
</svg>
