<svg width="120" height="104" viewBox="0 0 120 104" fill="none" xmlns="http://www.w3.org/2000/svg">
<path fill-rule="evenodd" clip-rule="evenodd" d="M60 0.892578C61.2271 0.892578 62.2222 1.88751 62.2222 3.1148V100.893C62.2222 102.12 61.2271 103.115 60 103.115C58.7729 103.115 57.7778 102.12 57.7778 100.893V3.1148C57.7778 1.88751 58.7729 0.892578 60 0.892578Z" fill="#D3D6D7"/>
<path fill-rule="evenodd" clip-rule="evenodd" d="M44.4444 100.893C44.4444 99.6655 45.4396 98.6703 46.6667 98.6703H73.3333C74.5604 98.6703 75.5556 99.6655 75.5556 100.893C75.5556 102.12 74.5604 103.115 73.3333 103.115H46.6667C45.4396 103.115 44.4444 102.12 44.4444 100.893Z" fill="#D3D6D7"/>
<path fill-rule="evenodd" clip-rule="evenodd" d="M102.169 11.5221C102.436 12.7202 101.68 13.9072 100.482 14.1735L20.4821 31.9512C19.284 32.2175 18.0969 31.4619 17.8307 30.2641C17.5644 29.0659 18.3199 27.8788 19.518 27.6126L99.5178 9.83484C100.716 9.56862 101.903 10.324 102.169 11.5221Z" fill="#D3D6D7"/>
<path fill-rule="evenodd" clip-rule="evenodd" d="M20 27.5592C20.9087 27.5592 21.7258 28.1126 22.0633 28.9561L39.8409 73.4006C39.9462 73.6632 40 73.9432 40 74.2259C40 80.1535 36.588 84.1228 32.5077 86.5001C28.4936 88.8392 23.6461 89.7815 20 89.7815C16.3539 89.7815 11.5064 88.8392 7.49231 86.5001C3.41213 84.1228 0 80.1535 0 74.2259C0 73.9432 0.0539552 73.6632 0.158933 73.4006L17.9367 28.9561C18.2742 28.1126 19.0913 27.5592 20 27.5592ZM4.45236 74.6339C4.59662 78.3206 6.69849 80.8935 9.72991 82.6601C12.9381 84.5295 16.9794 85.337 20 85.337C23.0206 85.337 27.0619 84.5295 30.2701 82.6601C33.3015 80.8935 35.4036 78.3206 35.5476 74.6339L20 35.765L4.45236 74.6339Z" fill="#D3D6D7"/>
<path fill-rule="evenodd" clip-rule="evenodd" d="M100 9.78147C100.909 9.78147 101.726 10.3347 102.063 11.1784L119.841 55.6228C119.946 55.8855 120 56.1655 120 56.4481C120 62.3757 116.588 66.345 112.508 68.7224C108.494 71.0615 103.646 72.0037 100 72.0037C96.3538 72.0037 91.5062 71.0615 87.4925 68.7224C83.412 66.345 80 62.3757 80 56.4481C80 56.1655 80.0538 55.8855 80.1591 55.6228L97.9369 11.1784C98.2742 10.3347 99.0911 9.78147 100 9.78147ZM84.4525 56.8561C84.5965 60.5428 86.6987 63.1157 89.7298 64.8824C92.9382 66.7517 96.9796 67.5592 100 67.5592C103.02 67.5592 107.062 66.7517 110.27 64.8824C113.301 63.1157 115.404 60.5428 115.548 56.8561L100 17.9872L84.4525 56.8561Z" fill="#D3D6D7"/>
</svg>
