<svg width="124" height="124" viewBox="0 0 124 124" fill="none" xmlns="http://www.w3.org/2000/svg">
<g clip-path="url(#clip0_5124_104361)">
<path d="M77.5 90.4167C77.5 91.8427 76.3427 93 74.9167 93H49.0833C47.6573 93 46.5 91.8427 46.5 90.4167C46.5 88.9907 47.6573 87.8333 49.0833 87.8333H74.9167C76.3427 87.8333 77.5 88.9907 77.5 90.4167ZM93.8318 62.7078C89.4608 66.7378 79.5408 70.308 71.5273 62.7285C70.4888 61.7417 68.8562 61.7985 67.8745 62.8318C66.898 63.8703 66.9393 65.5082 67.9778 66.4847C72.3643 70.6283 77.4587 72.3592 82.3825 72.3592C88.0503 72.3592 93.4857 70.0652 97.34 66.5053C98.3888 65.534 98.456 63.9013 97.4847 62.8577C96.5133 61.8088 94.8858 61.7417 93.837 62.713L93.8318 62.7078ZM56.1462 62.8525C55.18 61.8037 53.5422 61.7365 52.4985 62.7078C48.1275 66.7378 38.2075 70.308 30.194 62.7285C29.1607 61.7417 27.5228 61.7985 26.5412 62.8318C25.5647 63.8703 25.606 65.5082 26.6445 66.4847C31.031 70.6283 36.1253 72.3592 41.0492 72.3592C46.717 72.3592 52.1523 70.0652 56.0067 66.5053C57.0555 65.534 57.1227 63.9013 56.1513 62.8577L56.1462 62.8525ZM124 62C124 96.1878 96.1878 124 62 124C27.8122 124 0 96.1878 0 62C0 27.8122 27.8122 0 62 0C96.1878 0 124 27.8122 124 62ZM118.833 62C118.833 30.6642 93.3358 5.16667 62 5.16667C30.6642 5.16667 5.16667 30.6642 5.16667 62C5.16667 93.3358 30.6642 118.833 62 118.833C93.3358 118.833 118.833 93.3358 118.833 62ZM101.463 41.4367C91.3673 38.5537 84.6197 30.3232 82.1913 26.9132C81.3595 25.7507 79.7527 25.4923 78.585 26.3138C77.4225 27.1457 77.159 28.7577 77.9857 29.9202C80.7343 33.7642 88.3862 43.0745 100.047 46.3967C100.285 46.469 100.528 46.5 100.76 46.5C101.887 46.5 102.92 45.756 103.24 44.6297C103.633 43.2553 102.832 41.8242 101.463 41.4367ZM46.0247 29.9202C46.8513 28.7525 46.5827 27.1457 45.4253 26.3138C44.2525 25.4923 42.6508 25.7558 41.819 26.9132C39.3855 30.318 32.643 38.5537 22.5473 41.4367C21.1782 41.8242 20.3825 43.2605 20.7752 44.6297C21.0955 45.7612 22.134 46.5 23.2552 46.5C23.4877 46.5 23.7305 46.469 23.9682 46.3967C35.6293 43.0693 43.276 33.7642 46.0298 29.9202H46.0247Z" fill="#D0D5DD"/>
</g>
<defs>
<clipPath id="clip0_5124_104361">
<rect width="124" height="124" fill="white"/>
</clipPath>
</defs>
</svg>
