<svg width="20" height="20" viewBox="0 0 20 20" fill="none" xmlns="http://www.w3.org/2000/svg">
<g clip-path="url(#clip0_1923_44746)">
<path d="M0 10C0 10 0 10.0017 0 10.0025C0.00166702 10.5633 0.221668 11.0892 0.621668 11.4825L4.07333 14.88C4.15417 14.96 4.26 15 4.36583 15C4.47333 15 4.58083 14.9583 4.6625 14.8758C4.82333 14.7125 4.82167 14.4483 4.6575 14.2867L1.20583 10.8892C1.06917 10.7542 0.971666 10.5925 0.909166 10.4175H14.5833C14.8133 10.4175 15 10.2308 15 10.0008C15 9.77083 14.8133 9.58417 14.5833 9.58417H0.908335C0.970835 9.40667 1.06833 9.24333 1.20667 9.1075L4.6575 5.71417C4.82167 5.55333 4.82417 5.28917 4.6625 5.125C4.50167 4.96 4.2375 4.95833 4.07333 5.12L0.622499 8.51333C0.221666 8.90833 0 9.435 0 9.99833C0 9.99833 0 9.99917 0 10ZM10.4167 12.5C10.6467 12.5 10.8333 12.6867 10.8333 12.9167V16.25C10.8333 17.8583 12.1417 19.1667 13.75 19.1667H16.25C17.8583 19.1667 19.1667 17.8583 19.1667 16.25V3.75C19.1667 2.14167 17.8583 0.833333 16.25 0.833333H13.75C12.1417 0.833333 10.8333 2.14167 10.8333 3.75V7.08333C10.8333 7.31333 10.6467 7.5 10.4167 7.5C10.1867 7.5 10 7.31333 10 7.08333V3.75C10 1.6825 11.6825 0 13.75 0H16.25C18.3175 0 20 1.6825 20 3.75V16.25C20 18.3175 18.3175 20 16.25 20H13.75C11.6825 20 10 18.3175 10 16.25V12.9167C10 12.6867 10.1867 12.5 10.4167 12.5Z" fill="#4B6D74"/>
</g>
<defs>
<clipPath id="clip0_1923_44746">
<rect width="20" height="20" fill="white"/>
</clipPath>
</defs>
</svg>
