<svg width="20" height="20" viewBox="0 0 20 20" fill="none" xmlns="http://www.w3.org/2000/svg">
<path d="M17.4583 1.79032C15.8907 0.772816 14.1766 0.676149 12.6316 1.51365C11.4416 2.16032 10.5066 3.28782 9.99992 4.59365C9.49408 3.28782 8.55908 2.16032 7.36825 1.51365C5.82325 0.675316 4.10992 0.772816 2.54242 1.79032C0.942416 2.82782 -0.0309168 4.54448 0.000749828 6.26948C0.0724165 10.0695 4.00575 15.0228 7.63075 18.017C8.31742 18.5845 9.15825 18.8678 9.99992 18.8678C10.8407 18.8678 11.6824 18.5845 12.3691 18.017C15.9941 15.0228 19.9274 10.0686 19.9991 6.26948C20.0316 4.54448 19.0591 2.82782 17.4583 1.79032ZM11.8391 17.3753C10.7733 18.2553 9.22658 18.2545 8.16158 17.3753C4.67992 14.4978 0.901583 9.79115 0.834917 6.25448C0.807416 4.81448 1.63575 3.37198 2.99658 2.48948C3.71658 2.02198 4.47158 1.78782 5.21575 1.78782C5.81492 1.78782 6.40825 1.94032 6.97158 2.24615C8.50992 3.08198 9.58408 4.94865 9.58408 6.78448C9.58408 7.01448 9.77075 7.20115 10.0007 7.20115C10.2308 7.20115 10.4174 7.01448 10.4174 6.78448C10.4174 4.94782 11.4924 3.08198 13.0299 2.24615C14.2933 1.56115 15.7041 1.64615 17.0049 2.48948C18.3649 3.37198 19.1933 4.81448 19.1666 6.25448C19.0999 9.79032 15.3208 14.4978 11.8391 17.3753Z" fill="#4B6D74"/>
</svg>
