<svg width="20" height="20" viewBox="0 0 20 20" fill="none" xmlns="http://www.w3.org/2000/svg">
<g clip-path="url(#clip0_2060_59890)">
<path d="M12.7092 16.5008C12.7092 17.5833 11.4158 19.0958 10.61 19.7708C10.245 20.0767 9.71667 20.0767 9.35167 19.7708C8.54583 19.0958 7.2525 17.5833 7.2525 16.5008C7.2525 15.6717 7.86333 15 8.61667 15C9.37 15 9.98083 15.6717 9.98083 16.5008C9.98083 15.6717 10.5917 15 11.345 15C12.0983 15 12.7092 15.6717 12.7092 16.5008ZM5 5C5 2.2425 7.2425 0 10 0C12.7575 0 15 2.2425 15 5C15 7.7575 12.7575 10 10 10C7.2425 10 5 7.7575 5 5ZM6.66667 5C6.66667 6.83833 8.16167 8.33333 10 8.33333C11.8383 8.33333 13.3333 6.83833 13.3333 5C13.3333 3.16167 11.8383 1.66667 10 1.66667C8.16167 1.66667 6.66667 3.16167 6.66667 5ZM10 11.6667C5.86417 11.6667 2.5 15.0317 2.5 19.1667C2.5 19.6267 2.8725 20 3.33333 20C3.79417 20 4.16667 19.6267 4.16667 19.1667C4.16667 15.95 6.78417 13.3333 10 13.3333C13.2158 13.3333 15.8333 15.95 15.8333 19.1667C15.8333 19.6267 16.2058 20 16.6667 20C17.1275 20 17.5 19.6267 17.5 19.1667C17.5 15.0317 14.1358 11.6667 10 11.6667Z" fill="#4B6D74"/>
</g>
<defs>
<clipPath id="clip0_2060_59890">
<rect width="20" height="20" fill="white"/>
</clipPath>
</defs>
</svg>
