<svg width="20" height="20" viewBox="0 0 20 20" fill="none" xmlns="http://www.w3.org/2000/svg">
<g clip-path="url(#clip0_2140_66367)">
<path d="M17.5001 10.8333V15.8333C17.5001 17.6742 16.0076 19.1667 14.1667 19.1667H5.83339C3.99256 19.1667 2.50006 17.6742 2.50006 15.8333V10.8333M10.0001 19.1667V6.66666M10.0001 6.66666C10.0001 6.66666 11.6668 4.16666 11.6668 2.49999C11.6668 1.57999 10.9202 0.833328 10.0002 0.833328C9.08016 0.833328 8.3335 1.57999 8.3335 2.49999C8.3335 4.16666 10.0001 6.66666 10.0001 6.66666ZM10.0001 6.66666C7.50006 6.66666 4.16693 5.72166 4.16693 2.49999M10.0001 6.66666C12.5001 6.66666 15.8336 5.72166 15.8336 2.49999M18.3335 10.8333H1.66683C1.20683 10.8333 0.833496 10.46 0.833496 10V9.16666C0.833496 7.78583 1.95266 6.66666 3.3335 6.66666H16.6668C18.0477 6.66666 19.1668 7.78583 19.1668 9.16666V10C19.1668 10.46 18.7935 10.8333 18.3335 10.8333Z" stroke="#4B6D74" stroke-width="1.66667" stroke-miterlimit="10" stroke-linecap="round" stroke-linejoin="round"/>
</g>
<defs>
<clipPath id="clip0_2140_66367">
<rect width="20" height="20" fill="white"/>
</clipPath>
</defs>
</svg>
