<svg width="20" height="20" viewBox="0 0 20 20" fill="none" xmlns="http://www.w3.org/2000/svg">
<g clip-path="url(#clip0_1597_45404)">
<path d="M13.2115 9.045L10.5898 11.6667L13.2115 14.2883C13.374 14.4508 13.374 14.715 13.2115 14.8775C13.1298 14.9592 13.0232 14.9992 12.9165 14.9992C12.8098 14.9992 12.7032 14.9583 12.6215 14.8775L9.99982 12.2558L7.37815 14.8775C7.29648 14.9592 7.18982 14.9992 7.08315 14.9992C6.97648 14.9992 6.86982 14.9583 6.78815 14.8775C6.62565 14.715 6.62565 14.4508 6.78815 14.2883L9.40982 11.6667L6.78815 9.045C6.62565 8.8825 6.62565 8.61833 6.78815 8.45583C6.95065 8.29333 7.21482 8.29333 7.37732 8.45583L9.99898 11.0775L12.6207 8.45583C12.7832 8.29333 13.0473 8.29333 13.2098 8.45583C13.3723 8.61833 13.3723 8.8825 13.2098 9.045H13.2115ZM19.1665 3.75C19.1665 3.98 18.9798 4.16667 18.7498 4.16667H17.4998C17.4998 4.17917 17.4998 4.19167 17.4982 4.205L16.3565 16.5942C16.1773 18.5358 14.5715 20 12.6223 20H7.39565C5.44815 20 3.84315 18.5383 3.66232 16.6L2.50232 4.20583C2.50148 4.1925 2.50065 4.18 2.50065 4.16667H1.25065C1.02065 4.16667 0.833984 3.98 0.833984 3.75C0.833984 3.52 1.02065 3.33333 1.25065 3.33333H5.44065C5.64898 1.46083 7.24065 0 9.16732 0H10.834C12.7607 0 14.3532 1.46083 14.5607 3.33333H18.7507C18.9807 3.33333 19.1665 3.52 19.1665 3.75ZM6.27982 3.33333H13.7198C13.5173 1.92167 12.2998 0.833333 10.8332 0.833333H9.16648C7.69982 0.833333 6.48232 1.92167 6.27982 3.33333ZM16.6648 4.16667H3.33482L4.49065 16.5217C4.63065 18.03 5.87982 19.1667 7.39398 19.1667H12.6207C14.1373 19.1667 15.3857 18.0283 15.5248 16.5175L16.6632 4.16667H16.6648Z" fill="#4B6D74"/>
</g>
<defs>
<clipPath id="clip0_1597_45404">
<rect width="20" height="20" fill="white"/>
</clipPath>
</defs>
</svg>
