<svg width="20" height="20" viewBox="0 0 20 20" fill="none" xmlns="http://www.w3.org/2000/svg">
<g clip-path="url(#clip0_2420_54575)">
<path d="M14.989 1.89999C13.3956 0.479162 11.2565 -0.195005 9.11398 0.0516617C5.78648 0.433328 3.03648 3.11416 2.57564 6.42416C2.22481 8.93583 3.14064 11.4325 5.02481 13.1017C6.06814 14.0258 6.66648 15.3725 6.66648 16.7942V17.0842C6.66648 18.6925 7.97481 20.0008 9.58314 20.0008H10.4165C12.0248 20.0008 13.3331 18.6925 13.3331 17.0842V16.79C13.3331 15.385 13.9598 14.0325 15.0981 12.9808C16.624 11.5692 17.4998 9.57166 17.4998 7.50083C17.4998 5.365 16.5848 3.32333 14.989 1.89999ZM12.4998 17.0833C12.4998 18.2317 11.5656 19.1667 10.4165 19.1667H9.58314C8.43398 19.1667 7.49981 18.2317 7.49981 17.0833V16.7933C7.49981 16.4692 7.47231 16.1475 7.42064 15.8333H12.5831C12.5281 16.1475 12.4998 16.4667 12.4998 16.7892V17.0833ZM14.5323 12.3683C13.7098 13.1283 13.1198 14.0292 12.7931 15H10.4156V8.715C11.5965 8.51583 12.499 7.48666 12.499 6.24999C12.499 6.01999 12.3123 5.83333 12.0823 5.83333C11.8523 5.83333 11.6656 6.01999 11.6656 6.24999C11.6656 7.16916 10.9181 7.91666 9.99898 7.91666C9.07981 7.91666 8.33231 7.16916 8.33231 6.24999C8.33231 6.01999 8.14564 5.83333 7.91564 5.83333C7.68564 5.83333 7.49898 6.01999 7.49898 6.24999C7.49898 7.48666 8.40148 8.51583 9.58231 8.715V15H7.21814C6.90648 14.0325 6.34481 13.1583 5.57731 12.4775C3.90231 10.9942 3.08898 8.77416 3.40064 6.53916C3.80981 3.59916 6.25231 1.21916 9.20814 0.879162C9.47731 0.848328 9.74481 0.833328 10.0098 0.833328C11.6498 0.833328 13.1973 1.41916 14.4356 2.5225C15.8531 3.78749 16.6673 5.60166 16.6673 7.5C16.6673 9.36666 15.9098 11.0958 14.5331 12.3683H14.5323Z" fill="#4B6D74"/>
</g>
<defs>
<clipPath id="clip0_2420_54575">
<rect width="20" height="20" fill="white"/>
</clipPath>
</defs>
</svg>
