<svg width="20" height="20" viewBox="0 0 20 20" fill="none" xmlns="http://www.w3.org/2000/svg">
<path d="M16.8292 3.17061C16.7198 3.06125 16.5715 2.99982 16.4168 2.99982C16.2621 2.99982 16.1138 3.06125 16.0044 3.17061L10 9.17497L3.99564 3.17061C3.88625 3.06125 3.7379 2.99982 3.58322 2.99982C3.42854 2.99982 3.28019 3.06125 3.1708 3.17061C3.06144 3.28001 3 3.42835 3 3.58304C3 3.73772 3.06144 3.88607 3.1708 3.99546L9.17515 9.99982L3.1708 16.0042C3.06144 16.1136 3 16.2619 3 16.4166C3 16.5713 3.06144 16.7196 3.1708 16.829C3.28019 16.9384 3.42854 16.9998 3.58322 16.9998C3.7379 16.9998 3.88625 16.9384 3.99564 16.829L10 10.8247L16.0044 16.829C16.1138 16.9384 16.2621 16.9998 16.4168 16.9998C16.5715 16.9998 16.7198 16.9384 16.8292 16.829C16.9386 16.7196 17 16.5713 17 16.4166C17 16.2619 16.9386 16.1136 16.8292 16.0042L10.8248 9.99982L16.8292 3.99546C16.9386 3.88607 17 3.73772 17 3.58304C17 3.42835 16.9386 3.28001 16.8292 3.17061Z" fill="#4B6D74"/>
</svg>
