<svg width="20" height="20" viewBox="0 0 20 20" fill="none" xmlns="http://www.w3.org/2000/svg">
<path d="M3.07553 18.7317C3.48872 18.9083 3.94554 18.9562 4.38639 18.8693C4.82724 18.7824 5.23167 18.5646 5.54689 18.2444L10 13.8154L14.4532 18.2444C14.6608 18.455 14.9082 18.6224 15.1809 18.7369C15.4537 18.8513 15.7465 18.9105 16.0422 18.911C16.3463 18.9101 16.6472 18.8492 16.9276 18.7317C17.3442 18.5631 17.7002 18.2728 17.9493 17.8988C18.1983 17.5247 18.3288 17.0842 18.3237 16.6349V4.695C18.3225 3.69193 17.9235 2.73029 17.2142 2.02101C16.5049 1.31173 15.5433 0.912731 14.5402 0.91153L5.45987 0.91153C4.4568 0.912731 3.49516 1.31173 2.78588 2.02101C2.0766 2.73029 1.6776 3.69193 1.6764 4.695V16.6349C1.67152 17.0846 1.80245 17.5253 2.05207 17.8994C2.3017 18.2735 2.6584 18.5636 3.07553 18.7317Z" fill="#4B6D74"/>
</svg>
