<svg width="20" height="20" viewBox="0 0 20 20" fill="none" xmlns="http://www.w3.org/2000/svg">
<path d="M19.2667 8.25833L16.0417 4.99999C15.9642 4.92189 15.872 4.85989 15.7705 4.81758C15.6689 4.77528 15.56 4.75349 15.45 4.75349C15.34 4.75349 15.2311 4.77528 15.1295 4.81758C15.028 4.85989 14.9358 4.92189 14.8583 4.99999C14.7031 5.15613 14.616 5.36734 14.616 5.58749C14.616 5.80765 14.7031 6.01886 14.8583 6.17499L17.825 9.16666H0.833333C0.61232 9.16666 0.400358 9.25446 0.244078 9.41074C0.0877974 9.56702 0 9.77898 0 9.99999C0 10.221 0.0877974 10.433 0.244078 10.5892C0.400358 10.7455 0.61232 10.8333 0.833333 10.8333H17.875L14.8583 13.8417C14.7802 13.9191 14.7182 14.0113 14.6759 14.1128C14.6336 14.2144 14.6118 14.3233 14.6118 14.4333C14.6118 14.5433 14.6336 14.6523 14.6759 14.7538C14.7182 14.8554 14.7802 14.9475 14.8583 15.025C14.9358 15.1031 15.028 15.1651 15.1295 15.2074C15.2311 15.2497 15.34 15.2715 15.45 15.2715C15.56 15.2715 15.6689 15.2497 15.7705 15.2074C15.872 15.1651 15.9642 15.1031 16.0417 15.025L19.2667 11.7917C19.7348 11.3229 19.9978 10.6875 19.9978 10.025C19.9978 9.36249 19.7348 8.72708 19.2667 8.25833Z" fill="#4B6D74"/>
</svg>
