<svg width="20" height="20" viewBox="0 0 20 20" fill="none" xmlns="http://www.w3.org/2000/svg">
<g clip-path="url(#clip0_2453_89115)">
<path d="M6.99261 3.36167L7.92511 4.12083L7.55678 5.22833C7.44178 5.59333 7.57094 5.9925 7.87761 6.2225C8.03511 6.34 8.22261 6.40167 8.41844 6.40167C8.59761 6.40167 8.77094 6.34917 8.92094 6.24917L10.0084 5.52083L11.1168 6.24333C11.4376 6.45167 11.8568 6.43417 12.1601 6.20167C12.4634 5.9675 12.5868 5.56583 12.4634 5.19583L12.0843 4.11583L13.0126 3.35917C13.3018 3.11583 13.4093 2.71417 13.2793 2.35917C13.1493 2.00417 12.8093 1.76583 12.4309 1.76583H11.2659L10.8468 0.589167C10.7168 0.236667 10.3768 0 10.0009 0C9.62511 0 9.28511 0.236667 9.15261 0.593333L8.73511 1.765H7.57011C7.19261 1.765 6.85261 2.0025 6.72261 2.355C6.59178 2.70833 6.69761 3.11167 6.99261 3.36167ZM7.57011 2.59833H9.02844C9.20428 2.59833 9.36178 2.4875 9.42095 2.32167L9.93761 0.873333H10.0626L10.5793 2.32167C10.6384 2.4875 10.7959 2.59833 10.9718 2.59833H12.4301L12.4801 2.71667L11.3301 3.65417C11.1943 3.765 11.1418 3.94917 11.2001 4.115L11.6759 5.47167L11.5701 5.545L10.2318 4.67333C10.0918 4.58167 9.91178 4.58417 9.77261 4.67583L8.45678 5.55667C8.44178 5.56667 8.42761 5.56833 8.41761 5.56833L8.34928 5.48417L8.80678 4.11C8.86094 3.94583 8.80844 3.76417 8.67428 3.65583L7.51845 2.71583L7.57011 2.59833ZM19.9459 4.76833C19.8159 4.41333 19.4759 4.175 19.0976 4.175H17.9326L17.5134 2.99833C17.3834 2.64583 17.0434 2.40917 16.6676 2.40917C16.2918 2.40917 15.9518 2.64583 15.8193 3.0025L15.4018 4.17417H14.2368C13.8593 4.17417 13.5184 4.4125 13.3901 4.76417C13.2593 5.11833 13.3643 5.52 13.6593 5.77L14.5918 6.52917L14.2234 7.63667C14.1084 8.00167 14.2376 8.40083 14.5434 8.63C14.7001 8.74833 14.8876 8.81 15.0851 8.81C15.2643 8.81 15.4376 8.7575 15.5876 8.6575L16.6751 7.92917L17.7834 8.65167C18.1034 8.86 18.5234 8.8425 18.8268 8.61C19.1301 8.37583 19.2534 7.97417 19.1301 7.60417L18.7509 6.52417L19.6793 5.7675C19.9684 5.52417 20.0759 5.12333 19.9459 4.76833ZM17.9976 6.06333C17.8618 6.17417 17.8093 6.35833 17.8676 6.52417L18.3434 7.88083L18.2376 7.95417L16.8993 7.0825C16.7593 6.99167 16.5784 6.99333 16.4401 7.085L15.1243 7.96583C15.1093 7.97583 15.0951 7.9775 15.0851 7.9775L15.0168 7.89333L15.4743 6.51917C15.5284 6.355 15.4759 6.17333 15.3418 6.065L14.1859 5.125L14.2376 5.00833H15.6959C15.8718 5.00833 16.0293 4.8975 16.0884 4.73167L16.6051 3.28333H16.7301L17.2468 4.73167C17.3059 4.8975 17.4634 5.00833 17.6393 5.00833H19.0976L19.1476 5.12667L17.9976 6.06333ZM4.44928 8.6525C4.77011 8.86083 5.18928 8.84333 5.49261 8.61083C5.79595 8.37667 5.91928 7.975 5.79595 7.605L5.41678 6.525L6.34511 5.76833C6.63428 5.525 6.74178 5.12333 6.61178 4.76833C6.48178 4.41333 6.14178 4.175 5.76344 4.175H4.59845L4.17928 2.99833C4.04928 2.64583 3.70928 2.40917 3.33345 2.40917C2.95761 2.40917 2.61761 2.64583 2.48511 3.0025L2.06761 4.17417H0.902612C0.525112 4.17417 0.184278 4.4125 0.0559452 4.76417C-0.0748882 5.11833 0.0301118 5.52 0.325112 5.77L1.25761 6.52917L0.889278 7.63667C0.774278 8.00167 0.903445 8.40083 1.20928 8.63C1.36595 8.74833 1.55345 8.81 1.75095 8.81C1.93011 8.81 2.10345 8.7575 2.25345 8.6575L3.34095 7.92917L4.44928 8.65167V8.6525ZM3.10595 7.085L1.79011 7.96583C1.77511 7.97583 1.76095 7.9775 1.75095 7.9775L1.68261 7.89333L2.14011 6.51917C2.19428 6.355 2.14178 6.17333 2.00761 6.065L0.851778 5.125L0.903445 5.00833H2.36178C2.53761 5.00833 2.69511 4.8975 2.75428 4.73167L3.27095 3.28333H3.39595L3.91261 4.73167C3.97178 4.8975 4.12928 5.00833 4.30511 5.00833H5.76344L5.81345 5.12667L4.66345 6.06417C4.52761 6.175 4.47511 6.35917 4.53345 6.525L5.00928 7.88167L4.90345 7.955L3.56511 7.08333C3.42595 6.9925 3.24511 6.99417 3.10595 7.08583V7.085ZM14.1668 11.6667H10.6809L11.1701 8.89167C11.1829 8.60944 11.1829 8.46139 11.1701 8.4475C11.0693 8.0775 10.8351 7.78583 10.5109 7.62667C10.1826 7.46667 9.80428 7.46 9.44344 7.61C9.23178 7.6975 9.02511 7.91583 8.87761 8.20333L7.04761 11.6658H5.83428C4.45595 11.6658 3.33428 12.7875 3.33428 14.1658V17.4992C3.33428 18.8775 4.45595 19.9992 5.83428 19.9992H12.8168C14.4001 19.9992 15.7751 18.8717 16.0859 17.3192L16.6184 14.6558C16.7659 13.9183 16.5768 13.1625 16.1001 12.5808C15.6234 11.9992 14.9193 11.6658 14.1668 11.6658V11.6667ZM4.16761 17.5V14.1667C4.16761 13.2475 4.91511 12.5 5.83428 12.5H6.66761V19.1667H5.83428C4.91511 19.1667 4.16761 18.4192 4.16761 17.5ZM15.8009 14.4933L15.2684 17.1567C15.0351 18.3208 14.0043 19.1667 12.8168 19.1667H7.50095V12.3658C7.61844 12.29 7.71678 12.1842 7.78428 12.0558L9.61761 8.58833C9.69594 8.435 9.76928 8.37917 9.76511 8.37917C9.90094 8.3225 10.0351 8.32167 10.1443 8.375C10.2276 8.41583 10.2934 8.4875 10.3501 8.6175L9.86178 11.5208C9.81844 11.7642 9.88428 12.0117 10.0434 12.2025C10.2026 12.3917 10.4351 12.5 10.6818 12.5H14.1676C14.6693 12.5 15.1384 12.7225 15.4559 13.11C15.7743 13.4975 15.8993 14.0017 15.8009 14.4933Z" fill="#4B6D74"/>
</g>
<defs>
<clipPath id="clip0_2453_89115">
<rect width="20" height="20" fill="white"/>
</clipPath>
</defs>
</svg>
