<svg width="20" height="20" viewBox="0 0 20 20" fill="none" xmlns="http://www.w3.org/2000/svg">
<g clip-path="url(#clip0_2140_44533)">
<path d="M12.5 3.33333H15V0.833333C15 0.373333 15.3725 0 15.8333 0C16.2942 0 16.6667 0.373333 16.6667 0.833333V3.33333H19.1667C19.6275 3.33333 20 3.70667 20 4.16667C20 4.62667 19.6275 5 19.1667 5H16.6667V7.5C16.6667 7.96 16.2942 8.33333 15.8333 8.33333C15.3725 8.33333 15 7.96 15 7.5V5H12.5C12.0392 5 11.6667 4.62667 11.6667 4.16667C11.6667 3.70667 12.0392 3.33333 12.5 3.33333ZM19.835 8.1825C19.945 8.77833 20 9.39 20 10C20 15.5142 15.5142 20 10 20C4.48583 20 0 15.5142 0 10C0 4.48583 4.48583 0 10 0C10.6108 0 11.2225 0.055 11.8175 0.165C12.27 0.248333 12.5692 0.6825 12.4867 1.135C12.4025 1.5875 11.975 1.88833 11.5167 1.80417C11.0208 1.71333 10.5108 1.66667 10.0008 1.66667C5.405 1.66667 1.66667 5.405 1.66667 10C1.66667 12.8242 3.08167 15.32 5.23667 16.8275C5.87667 14.78 7.77 13.3333 10 13.3333C12.23 13.3333 14.1233 14.78 14.7642 16.8275C16.9183 15.3192 18.3333 12.8233 18.3333 10C18.3333 9.49083 18.2867 8.98083 18.1958 8.48417C18.1125 8.03167 18.4125 7.5975 18.865 7.51417C19.3175 7.4325 19.7517 7.73 19.835 8.1825ZM10 18.3333C11.1533 18.3333 12.2533 18.0967 13.2533 17.6717C12.9433 16.1308 11.6075 15 10 15C8.3925 15 7.05667 16.13 6.74667 17.6717C7.74667 18.0975 8.84583 18.3333 10 18.3333ZM13.3333 8.33333C13.3333 10.1717 11.8383 11.6667 10 11.6667C8.16167 11.6667 6.66667 10.1717 6.66667 8.33333C6.66667 6.495 8.16167 5 10 5C11.8383 5 13.3333 6.495 13.3333 8.33333ZM11.6667 8.33333C11.6667 7.41417 10.9192 6.66667 10 6.66667C9.08083 6.66667 8.33333 7.41417 8.33333 8.33333C8.33333 9.2525 9.08083 10 10 10C10.9192 10 11.6667 9.2525 11.6667 8.33333Z" fill="#4B6D74"/>
</g>
<defs>
<clipPath id="clip0_2140_44533">
<rect width="20" height="20" fill="white"/>
</clipPath>
</defs>
</svg>
