<svg width="20" height="20" viewBox="0 0 20 20" fill="none" xmlns="http://www.w3.org/2000/svg">
<g clip-path="url(#clip0_1381_24114)">
<path d="M14.0463 6.54251L10.3671 10.2767C9.99715 10.6467 9.51131 10.8325 9.02548 10.8325C8.53965 10.8325 8.05631 10.6483 7.68715 10.2792L5.66881 8.20834C5.50798 8.04334 5.51131 7.77917 5.67631 7.61917C5.84131 7.45917 6.10548 7.46167 6.26548 7.62667L8.27965 9.69417C8.68965 10.1033 9.36215 10.1042 9.77548 9.69084L13.4521 5.95834C13.613 5.79417 13.8771 5.79167 14.0413 5.95417C14.2055 6.11501 14.2071 6.37917 14.0455 6.54334L14.0463 6.54251ZM19.8988 16.6992C19.6938 17.1942 19.2338 17.5017 18.6971 17.5017H17.498V18.6975C17.498 19.2342 17.1896 19.695 16.6946 19.8992C16.5288 19.9683 16.358 20.0017 16.1896 20.0017C15.8546 20.0017 15.5296 19.8692 15.2771 19.6158L11.6963 16.0283C11.5588 16.1433 11.418 16.2558 11.2546 16.3458C10.8646 16.5617 10.4271 16.67 9.98965 16.67C9.55215 16.67 9.11465 16.5617 8.72465 16.3458C8.56548 16.2575 8.42881 16.1475 8.29381 16.0358L4.72048 19.6158C4.46881 19.8692 4.14381 20.0017 3.80798 20.0017C3.63965 20.0017 3.46881 19.9683 3.30298 19.9C2.80715 19.695 2.49881 19.2342 2.49881 18.6975V17.5017H1.29965C0.763813 17.5017 0.303813 17.1942 0.0988134 16.6992C-0.10702 16.2042 0.0013134 15.6608 0.38048 15.2817L3.33881 12.3233C3.33965 12.1308 3.35048 11.9392 3.39298 11.7508C3.49298 11.3125 3.29215 10.845 2.89298 10.5875C2.51881 10.3467 2.21548 10.0183 1.98965 9.61167C1.77715 9.22751 1.66631 8.78584 1.66881 8.33334C1.66631 7.88584 1.77715 7.44501 1.98965 7.06084C2.21548 6.65334 2.51965 6.32501 2.89298 6.08417C3.29215 5.82667 3.49298 5.35917 3.39298 4.92084C3.29215 4.47584 3.30715 4.01917 3.43881 3.56251C3.68465 2.70584 4.37048 2.02001 5.22798 1.77417C5.68465 1.64334 6.14048 1.62834 6.58465 1.72834C7.02215 1.82917 7.49048 1.62667 7.74881 1.22834C7.98965 0.855006 8.31798 0.551673 8.72465 0.32584C9.50631 -0.10666 10.4746 -0.10666 11.2555 0.32584C11.6621 0.551673 11.9905 0.855006 12.2313 1.22834C12.4888 1.62751 12.958 1.82834 13.3955 1.72834C13.8388 1.62751 14.2955 1.64251 14.7513 1.77417C15.6088 2.02001 16.2946 2.70584 16.5405 3.56251C16.6721 4.01917 16.6871 4.47584 16.5863 4.92001C16.4863 5.35834 16.6871 5.82584 17.0863 6.08334C17.4605 6.32417 17.7638 6.65251 17.9896 7.05917C18.2021 7.44251 18.313 7.88417 18.3113 8.33584C18.313 8.78501 18.2021 9.22584 17.9896 9.60917C17.7638 10.0167 17.4596 10.345 17.0863 10.5858C16.6871 10.8433 16.4863 11.3108 16.5863 11.7492C16.6271 11.9308 16.6363 12.1158 16.6388 12.3008L19.618 15.28C19.9971 15.6592 20.1046 16.2017 19.8996 16.6975L19.8988 16.6992ZM7.72881 15.4217C7.46881 15.0392 7.01048 14.845 6.58298 14.9425C6.13965 15.0433 5.68298 15.0283 5.22715 14.8967C4.44131 14.6717 3.81798 14.0692 3.52631 13.3125L0.96798 15.8708C0.76298 16.0758 0.838813 16.3125 0.866313 16.38C0.894647 16.4475 1.00798 16.6683 1.29798 16.6683H2.91381C3.14381 16.6683 3.33048 16.855 3.33048 17.085V18.6975C3.33048 18.9875 3.55131 19.1017 3.61965 19.13C3.68715 19.1575 3.92381 19.2333 4.12881 19.0275L7.72881 15.4217ZM11.5296 14.9908C11.9771 14.2983 12.8005 13.955 13.578 14.13C13.8838 14.2 14.2013 14.1875 14.5205 14.0967C15.0955 13.9317 15.5738 13.4542 15.738 12.8792C15.8296 12.5583 15.8413 12.2408 15.7721 11.9358C15.5955 11.1567 15.9413 10.3342 16.633 9.88751C16.8905 9.72167 17.1013 9.49251 17.2588 9.20667C17.4021 8.94751 17.4771 8.64751 17.4763 8.33751C17.4771 8.02417 17.403 7.72417 17.2588 7.46501C17.1005 7.18001 16.8896 6.95084 16.633 6.78501C15.9405 6.33834 15.5946 5.51501 15.7721 4.73667C15.8413 4.43084 15.8305 4.11334 15.738 3.79334C15.573 3.21834 15.0955 2.74001 14.5205 2.57584C14.2013 2.48417 13.8846 2.47167 13.578 2.54251C12.8021 2.71667 11.9763 2.37334 11.5296 1.68167C11.3638 1.42417 11.1346 1.21334 10.8496 1.05584C10.3271 0.765006 9.65048 0.76584 9.12798 1.05584C8.84298 1.21334 8.61381 1.42417 8.44881 1.68167C8.00131 2.37417 7.17798 2.71751 6.40048 2.54251C6.09465 2.47251 5.77715 2.48417 5.45798 2.57584C4.88298 2.74084 4.40465 3.21834 4.24048 3.79334C4.14881 4.11417 4.13715 4.43167 4.20631 4.73667C4.38298 5.51584 4.03715 6.33834 3.34548 6.78501C3.08798 6.95084 2.87715 7.18001 2.71965 7.46584C2.57631 7.72501 2.50131 8.02501 2.50298 8.33417C2.50131 8.64834 2.57631 8.94917 2.71965 9.20834C2.87798 9.49334 3.08881 9.72251 3.34548 9.88834C4.03798 10.335 4.38381 11.1583 4.20631 11.9367C4.13715 12.2425 4.14881 12.56 4.24048 12.88C4.40548 13.455 4.88298 13.9333 5.45798 14.0975C5.77715 14.1883 6.09381 14.2017 6.40048 14.1308C6.53631 14.1 6.67298 14.085 6.80965 14.085C7.45465 14.085 8.08048 14.42 8.44965 14.9908C8.61548 15.2483 8.84465 15.4592 9.12965 15.6167C9.65131 15.9075 10.328 15.9067 10.8513 15.6167C11.1371 15.4583 11.3655 15.2475 11.5313 14.9908H11.5296ZM19.028 15.8708L16.4571 13.3C16.1688 14.0633 15.5413 14.6708 14.7505 14.8975C14.2946 15.0283 13.838 15.0433 13.3938 14.9433C12.9671 14.845 12.5188 15.0367 12.2571 15.4117L15.8663 19.0275C16.0721 19.2333 16.308 19.1575 16.3755 19.13C16.4438 19.1017 16.6646 18.9883 16.6646 18.6975V17.085C16.6646 16.855 16.8513 16.6683 17.0813 16.6683H18.6971C18.9871 16.6683 19.1005 16.4475 19.1288 16.38C19.1571 16.3125 19.2338 16.0758 19.028 15.8708Z" fill="#4B6D74"/>
</g>
<defs>
<clipPath id="clip0_1381_24114">
<rect width="20" height="20" fill="white"/>
</clipPath>
</defs>
</svg>
