<svg width="20" height="20" viewBox="0 0 20 20" fill="none" xmlns="http://www.w3.org/2000/svg">
<path d="M14.9482 4.64166C13.969 3.38249 12.9573 2.08083 12.2315 0.653327C12.0415 0.280827 11.719 0.0516606 11.3457 0.0258272C10.9165 -0.000839425 10.4982 0.225827 10.209 0.639161C9.5465 1.58749 9.1665 2.87333 9.1665 4.16583C9.1665 5.99999 9.7065 7.09583 10.1823 8.06333C10.599 8.90916 10.9282 9.57666 10.8348 10.5825C10.7348 11.67 9.739 12.5117 8.5865 12.4992C6.2065 12.4725 5.9415 10.1892 5.83234 7.09499C5.8115 6.50833 5.429 6.03166 4.85817 5.87916C4.28317 5.72249 3.70817 5.95249 3.39567 6.45499C2.55984 7.79666 1.66734 9.89083 1.6665 11.7408C1.6665 16.2917 5.4415 19.995 10.0015 19.995C14.5948 19.9667 18.3323 16.2642 18.3323 11.7483C18.379 9.05333 16.7123 6.90916 14.9482 4.64083V4.64166ZM17.499 11.7425C17.499 15.8083 14.1332 19.1375 9.99734 19.1625C5.88984 19.1625 2.49984 15.8333 2.49984 11.7417C2.49984 10.0658 3.364 8.08333 4.10317 6.89583C4.20817 6.72749 4.36484 6.66749 4.50817 6.66749C4.55567 6.66749 4.6015 6.67416 4.644 6.68499C4.72484 6.70666 4.98817 6.8025 4.99984 7.12499C5.08984 9.68999 5.254 13.295 8.61317 13.3333C10.189 13.3333 11.5257 12.1658 11.6648 10.66C11.7798 9.41999 11.3673 8.58249 10.9298 7.69499C10.4723 6.76666 9.99984 5.80583 9.99984 4.16666C9.99984 3.03999 10.3248 1.92833 10.8923 1.11666C11.034 0.914994 11.1873 0.858327 11.2882 0.856661C11.3657 0.862494 11.434 0.920827 11.4898 1.03083C12.2515 2.52999 13.2882 3.86249 14.2915 5.15249C15.9632 7.30249 17.5415 9.33333 17.5007 11.7417L17.499 11.7425Z" fill="#4B6D74"/>
</svg>
