<svg width="20" height="20" viewBox="0 0 20 20" fill="none" xmlns="http://www.w3.org/2000/svg">
<g clip-path="url(#clip0_2600_72102)">
<path d="M20 7.08333C20 5.935 19.0658 5 17.9167 5C16.7675 5 15.8333 5.935 15.8333 7.08333C15.8333 8.08917 16.55 8.93083 17.5 9.12417V13.3333C17.5 16.55 14.8825 19.1667 11.6667 19.1667C8.45083 19.1667 5.83333 16.55 5.83333 13.3333V12.4792C8.62583 12.265 10.8333 9.93 10.8333 7.08333V2.91667C10.8333 1.30833 9.525 0 7.91667 0H7.08333C6.85333 0 6.66667 0.186667 6.66667 0.416667C6.66667 0.646667 6.85333 0.833333 7.08333 0.833333H7.91667C9.06583 0.833333 10 1.76833 10 2.91667V7.08333C10 9.61083 7.94333 11.6667 5.41667 11.6667C2.89 11.6667 0.833333 9.61083 0.833333 7.08333V2.91667C0.833333 1.76833 1.7675 0.833333 2.91667 0.833333H3.75C3.98 0.833333 4.16667 0.646667 4.16667 0.416667C4.16667 0.186667 3.98 0 3.75 0H2.91667C1.30833 0 0 1.30833 0 2.91667V7.08333C0 9.92917 2.2075 12.265 5 12.4792V13.3333C5 17.0092 7.99083 20 11.6667 20C15.3425 20 18.3333 17.0092 18.3333 13.3333V9.12417C19.2833 8.93083 20 8.08917 20 7.08333ZM17.9167 8.33333C17.2275 8.33333 16.6667 7.7725 16.6667 7.08333C16.6667 6.39417 17.2275 5.83333 17.9167 5.83333C18.6058 5.83333 19.1667 6.39417 19.1667 7.08333C19.1667 7.7725 18.6058 8.33333 17.9167 8.33333Z" fill="#4B6D74"/>
</g>
<defs>
<clipPath id="clip0_2600_72102">
<rect width="20" height="20" fill="white"/>
</clipPath>
</defs>
</svg>
