<svg width="20" height="20" viewBox="0 0 20 20" fill="none" xmlns="http://www.w3.org/2000/svg">
<path d="M20 7.08333V16.25C20 18.3175 18.3175 20 16.25 20H3.75C1.6825 20 0 18.3175 0 16.25V6.25C0 4.1825 1.6825 2.5 3.75 2.5H9.58333C9.81333 2.5 10 2.68667 10 2.91667C10 3.14667 9.81333 3.33333 9.58333 3.33333H3.75C2.4075 3.33333 1.285 4.25083 0.9475 5.48833L7.9375 12.4792C9.04 13.5808 10.9608 13.5808 12.0625 12.4792L15.1442 9.29417C15.3033 9.12917 15.5692 9.125 15.7333 9.28417C15.8983 9.44417 15.9033 9.70833 15.7433 9.87333L12.6567 13.0633C11.9442 13.7767 11.0025 14.1667 10 14.1667C8.9975 14.1667 8.05667 13.7767 7.34833 13.0683L0.833333 6.5525V16.25C0.833333 17.8583 2.14167 19.1667 3.75 19.1667H16.25C17.8583 19.1667 19.1667 17.8583 19.1667 16.25V7.08333C19.1667 6.85333 19.3533 6.66667 19.5833 6.66667C19.8133 6.66667 20 6.85333 20 7.08333ZM11.6667 2.47917C11.6667 1.11167 12.6942 0 13.9583 0C14.7133 0 15.4108 0.371667 15.8333 0.919167C16.2558 0.3725 16.9533 0 17.7083 0C18.9725 0 20 1.11167 20 2.47917C20 4.12083 18.1875 6.17 17.045 7.07667C16.6883 7.36 16.2608 7.50083 15.8333 7.50083C15.4058 7.50083 14.9783 7.36 14.6217 7.07667C13.4792 6.17 11.6667 4.12083 11.6667 2.47917ZM12.5 2.47917C12.5 3.74167 14.075 5.57917 15.1392 6.42333C15.5475 6.7475 16.1192 6.7475 16.5275 6.42333C17.5917 5.57833 19.1667 3.74083 19.1667 2.47917C19.1667 1.57167 18.5125 0.833333 17.7083 0.833333C16.8875 0.833333 16.25 1.50583 16.25 2.08333C16.25 2.31333 16.0633 2.5 15.8333 2.5C15.6033 2.5 15.4167 2.31333 15.4167 2.08333C15.4167 1.50583 14.7792 0.833333 13.9583 0.833333C13.1542 0.833333 12.5 1.57167 12.5 2.47917Z" fill="#4B6D74"/>
</svg>
