<svg width="20" height="20" viewBox="0 0 20 20" fill="none" xmlns="http://www.w3.org/2000/svg">
<g clip-path="url(#clip0_2070_40190)">
<path d="M19.5833 19.1667H18.3333V12.0833C18.3333 10.0158 16.6508 8.33333 14.5833 8.33333H10.4167V5.79833C11.5975 5.59917 12.5 4.57 12.5 3.33333C12.5 2.54667 11.9692 1.5625 10.9233 0.409165C10.4525 -0.110835 9.54833 -0.110835 9.07667 0.409165C8.4 1.15583 7.5 2.27 7.5 3.33333C7.5 4.57 8.4025 5.59917 9.58333 5.79833V8.33333H5.41667C3.34917 8.33333 1.66667 10.0158 1.66667 12.0833V14.39C1.66667 14.39 1.66667 14.3933 1.66667 14.395V19.1667H0.416667C0.186667 19.1667 0 19.3533 0 19.5833C0 19.8133 0.186667 20 0.416667 20H19.5833C19.8133 20 20 19.8133 20 19.5833C20 19.3533 19.8133 19.1667 19.5833 19.1667ZM8.33333 3.33333C8.33333 2.46917 9.3575 1.34 9.69333 0.969165C9.77333 0.881665 9.88167 0.833332 10 0.833332C10.1183 0.833332 10.2267 0.881665 10.3058 0.969165C11.1833 1.93667 11.6667 2.77583 11.6667 3.33333C11.6667 4.2525 10.9192 5 10 5C9.08083 5 8.33333 4.2525 8.33333 3.33333ZM5.41667 9.16667H14.5833C16.1917 9.16667 17.5 10.475 17.5 12.0833V14.085C17.2983 14.1383 17.0867 14.1667 16.875 14.1667C15.8192 14.1667 15 13.495 15 12.9167C15 12.6867 14.8133 12.5 14.5833 12.5C14.3533 12.5 14.1667 12.6867 14.1667 12.9167C14.1667 13.495 13.3475 14.1667 12.2917 14.1667C11.2358 14.1667 10.4167 13.495 10.4167 12.9167C10.4167 12.6867 10.23 12.5 10 12.5C9.77 12.5 9.58333 12.6867 9.58333 12.9167C9.58333 13.495 8.76417 14.1667 7.70833 14.1667C6.6525 14.1667 5.83333 13.495 5.83333 12.9167C5.83333 12.6867 5.64667 12.5 5.41667 12.5C5.18667 12.5 5 12.6867 5 12.9167C5 13.495 4.18083 14.1667 3.125 14.1667C2.91417 14.1667 2.70167 14.1383 2.5 14.0842V12.0833C2.5 10.475 3.80833 9.16667 5.41667 9.16667ZM2.5 14.94C2.70417 14.98 2.9125 15 3.125 15C4.06417 15 4.9275 14.5875 5.41667 13.9933C5.90583 14.5875 6.76917 15 7.70833 15C8.6475 15 9.51167 14.5875 10 13.9933C10.4883 14.5875 11.3533 15 12.2917 15C13.23 15 14.0942 14.5875 14.5833 13.9933C15.0725 14.5875 15.9358 15 16.875 15C17.0875 15 17.2967 14.98 17.5 14.9408V19.1667H2.5V14.94Z" fill="#4B6D74"/>
</g>
<defs>
<clipPath id="clip0_2070_40190">
<rect width="20" height="20" fill="white"/>
</clipPath>
</defs>
</svg>
