<svg width="20" height="20" viewBox="0 0 20 20" fill="none" xmlns="http://www.w3.org/2000/svg">
<g clip-path="url(#clip0_1894_63102)">
<path d="M2.49977 16.6667C2.49977 17.1267 2.12644 17.5 1.66644 17.5C1.20644 17.5 0.833104 17.1267 0.833104 16.6667C0.833104 16.2067 1.20644 15.8333 1.66644 15.8333C2.12644 15.8333 2.49977 16.2067 2.49977 16.6667ZM10.8331 9.16666C10.3731 9.16666 9.99977 9.54 9.99977 10C9.99977 10.46 10.3731 10.8333 10.8331 10.8333C11.2931 10.8333 11.6664 10.46 11.6664 10C11.6664 9.54 11.2931 9.16666 10.8331 9.16666ZM17.4998 3.33333C17.9598 3.33333 18.3331 2.96 18.3331 2.5C18.3331 2.04 17.9598 1.66666 17.4998 1.66666C17.0398 1.66666 16.6664 2.04 16.6664 2.5C16.6664 2.96 17.0398 3.33333 17.4998 3.33333ZM19.4614 5.005C19.2989 4.8425 19.0348 4.8425 18.8723 5.005C16.0856 7.79083 13.6689 6.5425 12.1306 5.005C11.9681 4.8425 11.7039 4.8425 11.5414 5.005C11.3789 5.1675 11.3789 5.43166 11.5414 5.59416C12.8181 6.87083 14.1598 7.50916 15.5014 7.50916C16.8431 7.50916 18.1848 6.87083 19.4614 5.59416C19.6239 5.43166 19.6239 5.1675 19.4614 5.005ZM6.42727 11.5417C6.26477 11.3792 6.0006 11.3792 5.8381 11.5417C5.6756 11.7042 5.6756 11.9683 5.8381 12.1308C6.67144 12.9642 7.1981 13.8267 7.4031 14.695C7.73394 16.0975 7.2081 17.5025 5.8381 18.8725C5.6756 19.035 5.6756 19.2992 5.8381 19.4617C5.91977 19.5433 6.02644 19.5833 6.1331 19.5833C6.23977 19.5833 6.34644 19.5425 6.4281 19.4617C8.0156 17.8742 8.61644 16.2067 8.2156 14.5033C7.97394 13.4825 7.3731 12.4858 6.4281 11.5417H6.42727ZM13.4481 13.0158C13.2723 12.8675 13.0098 12.8908 12.8606 13.065C12.7123 13.2408 12.7339 13.5033 12.9098 13.6525C12.9214 13.6625 14.1031 14.6783 14.1639 16.135C14.2023 17.0633 13.7723 17.985 12.8839 18.8725C12.7214 19.035 12.7214 19.2992 12.8839 19.4617C12.9656 19.5433 13.0723 19.5833 13.1789 19.5833C13.2856 19.5833 13.3923 19.5425 13.4739 19.4617C14.5331 18.4025 15.0456 17.2708 14.9973 16.1C14.9214 14.2817 13.5081 13.0667 13.4481 13.0158ZM18.3331 12.5008C18.3331 12.9608 18.7064 13.3342 19.1664 13.3342C19.6264 13.3342 19.9998 12.9608 19.9998 12.5008C19.9998 12.0408 19.6264 11.6675 19.1664 11.6675C18.7064 11.6675 18.3331 12.0408 18.3331 12.5008ZM19.1664 18.3342C18.7064 18.3342 18.3331 18.7075 18.3331 19.1675C18.3331 19.6275 18.7064 20.0008 19.1664 20.0008C19.6264 20.0008 19.9998 19.6275 19.9998 19.1675C19.9998 18.7075 19.6264 18.3342 19.1664 18.3342ZM11.0723 4.00666L4.0056 11.0725C3.62394 11.455 3.10144 11.6667 2.56477 11.6667C2.4656 11.6667 2.36644 11.6592 2.2681 11.645C1.6556 11.555 1.13977 11.1958 0.853937 10.66C-0.661897 7.82833 -0.15273 4.39583 2.12144 2.12166C4.3956 -0.153338 7.82727 -0.662505 10.6598 0.854162C11.1948 1.14 11.5531 1.655 11.6439 2.2675C11.7381 2.90333 11.5239 3.55333 11.0714 4.00583L11.0723 4.00666ZM10.8198 2.39083C10.7681 2.04166 10.5664 1.74916 10.2664 1.58916C9.3256 1.08583 8.29227 0.841662 7.2631 0.841662C5.59394 0.841662 3.93644 1.48583 2.7106 2.71166C0.72977 4.6925 0.268104 7.79916 1.5881 10.2667C1.7481 10.5667 2.0406 10.7692 2.38977 10.82C2.76644 10.8783 3.1506 10.7508 3.41644 10.4833L10.4831 3.4175C10.7498 3.15083 10.8756 2.76666 10.8198 2.39083Z" fill="#4B6D74"/>
</g>
<defs>
<clipPath id="clip0_1894_63102">
<rect width="20" height="20" fill="white"/>
</clipPath>
</defs>
</svg>
