<svg width="20" height="20" viewBox="0 0 20 20" fill="none" xmlns="http://www.w3.org/2000/svg">
<g clip-path="url(#clip0_3158_55845)">
<path d="M20 8.33351C19.9675 6.52351 18.4292 5.00017 16.5467 5.00017C16.2133 5.00017 15.8783 5.04434 15.5458 5.12351C15.7208 4.64351 15.8325 4.13517 15.8325 3.58434C15.8325 1.60851 14.3375 0.00100708 12.5 0.00100708C11.5558 0.00100708 10.6683 0.426007 10.0033 1.22101C9.3675 0.443507 8.4625 0.00100708 7.5 0.00100708C5.66167 0.00100708 4.16583 1.60851 4.16583 3.58434C4.16583 4.13601 4.2775 4.64434 4.45333 5.12434C4.12 5.04517 3.785 5.00101 3.45083 5.00101C1.5475 5.00017 0 6.49601 0 8.33434C0 9.29601 0.4275 10.1993 1.1775 10.8335C0.4275 11.4693 0 12.3727 0 13.3343C0 15.1718 1.5475 16.6668 3.45167 16.6668C5.55667 16.6668 7.6925 14.9485 9.09583 13.5352C9.20333 15.5252 10.0775 18.2277 12.9133 19.8868C13.045 19.9643 13.19 20.001 13.3333 20.001C13.62 20.001 13.8983 19.8535 14.0533 19.5885C14.285 19.191 14.1517 18.681 13.755 18.4485C11.2258 16.9685 10.785 14.6118 10.7583 13.2643C12.2358 14.7102 14.595 16.6677 16.5483 16.6677C18.4525 16.6677 20.0017 15.1727 20.0017 13.3352C20.0017 12.3735 19.5733 11.4693 18.8225 10.8343C19.5733 10.2002 20.0017 9.29601 20.0017 8.33434L20 8.33351ZM3.45167 15.0002C2.4675 15.0002 1.66667 14.2527 1.66667 13.3335C1.66667 12.8568 1.88917 12.4043 2.27833 12.086C2.59 11.8793 2.91667 11.4502 2.91667 10.8335C2.91667 10.2168 2.59 9.78767 2.2775 9.58184C1.88833 9.26351 1.66667 8.81101 1.66667 8.33267C1.66667 7.41434 2.4675 6.66684 3.45167 6.66684C5.435 6.66684 8.03667 9.28851 9.26917 10.8335C8.29833 12.0752 5.56167 15.0002 3.45167 15.0002ZM8.96083 7.92684C7.4225 6.61517 5.83333 5.25851 5.83333 3.58351C5.83333 2.52601 6.58083 1.66684 7.50083 1.66684C7.98167 1.66684 8.44167 1.91101 8.7225 2.27934C8.91583 2.58767 9.35333 2.91684 10 2.91684C10.6467 2.91684 11.0833 2.58851 11.2375 2.33851C11.5592 1.91184 12.0192 1.66684 12.5008 1.66684C13.42 1.66684 14.1667 2.52684 14.1667 3.58351C14.1667 5.25851 12.5775 6.61517 11.0392 7.92684C10.6767 8.23684 10.3267 8.53517 10 8.83517C9.67333 8.53517 9.32333 8.23601 8.96083 7.92684ZM16.5475 15.0002C14.9608 15.0002 12.1925 12.491 10.7367 10.8277C11.9175 9.33434 14.5467 6.66684 16.5475 6.66684C17.5317 6.66684 18.3333 7.45601 18.3333 8.37434C18.3208 8.83601 18.1 9.27184 17.7217 9.58101C17.4108 9.78767 17.0842 10.216 17.0842 10.8335C17.0842 11.451 17.4108 11.8802 17.7217 12.086C18.1117 12.4052 18.3342 12.8577 18.3342 13.3343C18.3342 14.2535 17.5325 15.0002 16.5475 15.0002Z" fill="#4B6D74"/>
</g>
<defs>
<clipPath id="clip0_3158_55845">
<rect width="20" height="20" fill="white"/>
</clipPath>
</defs>
</svg>
