<svg width="20" height="20" viewBox="0 0 20 20" fill="none" xmlns="http://www.w3.org/2000/svg">
<g clip-path="url(#clip0_1373_21338)">
<path d="M0.416875 20C0.310208 20 0.203542 19.9592 0.121875 19.8783C-0.040625 19.7158 -0.040625 19.4517 0.121875 19.2892L19.2885 0.121661C19.451 -0.0408386 19.7152 -0.0408386 19.8777 0.121661C20.0402 0.284161 20.0402 0.548328 19.8777 0.710828L0.711875 19.8783C0.630208 19.96 0.523542 20 0.416875 20ZM7.50021 4.16666C7.50021 2.32833 6.00521 0.833328 4.16687 0.833328C2.32854 0.833328 0.833542 2.32833 0.833542 4.16666C0.833542 6.00499 2.32854 7.49999 4.16687 7.49999C6.00521 7.49999 7.50021 6.00499 7.50021 4.16666ZM6.66688 4.16666C6.66688 5.54499 5.54521 6.66666 4.16687 6.66666C2.78854 6.66666 1.66688 5.54499 1.66688 4.16666C1.66688 2.78833 2.78854 1.66666 4.16687 1.66666C5.54521 1.66666 6.66688 2.78833 6.66688 4.16666ZM19.1669 15.8333C19.1669 13.995 17.6719 12.5 15.8335 12.5C13.9952 12.5 12.5002 13.995 12.5002 15.8333C12.5002 17.6717 13.9952 19.1667 15.8335 19.1667C17.6719 19.1667 19.1669 17.6717 19.1669 15.8333ZM18.3335 15.8333C18.3335 17.2117 17.2119 18.3333 15.8335 18.3333C14.4552 18.3333 13.3335 17.2117 13.3335 15.8333C13.3335 14.455 14.4552 13.3333 15.8335 13.3333C17.2119 13.3333 18.3335 14.455 18.3335 15.8333Z" fill="#4B6D74"/>
</g>
<defs>
<clipPath id="clip0_1373_21338">
<rect width="20" height="20" fill="white"/>
</clipPath>
</defs>
</svg>
