<svg width="20" height="20" viewBox="0 0 20 20" fill="none" xmlns="http://www.w3.org/2000/svg">
<g clip-path="url(#clip0_1381_24049)">
<path d="M0 7.91668C0 7.68668 0.186667 7.50001 0.416667 7.50001H4.58333C4.81333 7.50001 5 7.68668 5 7.91668C5 8.14668 4.81333 8.33334 4.58333 8.33334H0.416667C0.186667 8.33334 0 8.14668 0 7.91668ZM20 8.75001V12.9167C20 14.1633 19.2133 15.23 18.11 15.6467C18.2567 15.9667 18.3333 16.3117 18.3333 16.6667C18.3333 18.045 17.2117 19.1667 15.8333 19.1667C14.455 19.1667 13.3333 18.045 13.3333 16.6667C13.3333 16.38 13.3833 16.0992 13.48 15.8333H6.52C6.61667 16.0992 6.66667 16.38 6.66667 16.6667C6.66667 18.045 5.545 19.1667 4.16667 19.1667C2.78833 19.1667 1.66667 18.045 1.66667 16.6667C1.66667 16.3117 1.74333 15.9667 1.89 15.6467C0.786667 15.23 0 14.1633 0 12.9167V10.4167C0 10.1867 0.186667 10 0.416667 10C0.646667 10 0.833333 10.1867 0.833333 10.4167V12.9167C0.833333 14.065 1.7675 15 2.91667 15H13.3333V4.58334C13.3333 2.97501 12.025 1.66668 10.4167 1.66668C10.1867 1.66668 10 1.48001 10 1.25001C10 1.02001 10.1867 0.833344 10.4167 0.833344C12.4842 0.833344 14.1667 2.51584 14.1667 4.58334V5.00001H16.25C18.3175 5.00001 20 6.68251 20 8.75001ZM14.1667 5.83334V10H19.1667V8.75001C19.1667 7.14168 17.8583 5.83334 16.25 5.83334H14.1667ZM5.6025 15.8333H2.91667C2.85583 15.8333 2.795 15.8308 2.73417 15.8275C2.58 16.085 2.5 16.3708 2.5 16.6667C2.5 17.5858 3.2475 18.3333 4.16667 18.3333C5.08583 18.3333 5.83333 17.5858 5.83333 16.6667C5.83333 16.3733 5.75417 16.0892 5.6025 15.8333ZM17.2658 15.8275C17.2058 15.8317 17.145 15.8333 17.0833 15.8333H14.3975C14.2458 16.0892 14.1667 16.3733 14.1667 16.6667C14.1667 17.5858 14.9142 18.3333 15.8333 18.3333C16.7525 18.3333 17.5 17.5858 17.5 16.6667C17.5 16.3708 17.4192 16.085 17.2658 15.8275ZM19.1667 12.9167V10.8333H14.1667V15H17.0833C18.2325 15 19.1667 14.065 19.1667 12.9167ZM0.416667 1.66668H7.91667C8.14667 1.66668 8.33333 1.48001 8.33333 1.25001C8.33333 1.02001 8.14667 0.833344 7.91667 0.833344H0.416667C0.186667 0.833344 0 1.02001 0 1.25001C0 1.48001 0.186667 1.66668 0.416667 1.66668ZM0.416667 5.00001H6.25C6.48 5.00001 6.66667 4.81334 6.66667 4.58334C6.66667 4.35334 6.48 4.16668 6.25 4.16668H0.416667C0.186667 4.16668 0 4.35334 0 4.58334C0 4.81334 0.186667 5.00001 0.416667 5.00001Z" fill="#4B6D74"/>
</g>
<defs>
<clipPath id="clip0_1381_24049">
<rect width="20" height="20" fill="white"/>
</clipPath>
</defs>
</svg>
