<svg width="20" height="20" viewBox="0 0 20 20" fill="none" xmlns="http://www.w3.org/2000/svg">
<g clip-path="url(#clip0_2320_71596)">
<path d="M13.3401 7.48922C13.866 7.88088 14.1668 8.44421 14.1668 9.03421V9.58255C14.1668 10.2717 14.7276 10.8325 15.4168 10.8325H16.2501C16.9393 10.8325 17.5001 10.2717 17.5001 9.58255V9.03505C17.5001 8.44588 17.8051 7.87922 18.3368 7.48088C19.3943 6.68755 20.0001 5.48005 20.0001 4.16588C20.0001 2.90422 19.4376 1.72422 18.4568 0.929215C17.4768 0.133382 16.1926 -0.170785 14.9318 0.0950485C13.2676 0.445049 11.976 1.81921 11.7168 3.51505C11.4835 5.04672 12.106 6.57005 13.3401 7.48922ZM16.2501 10H15.4168C15.1876 10 15.0001 9.81338 15.0001 9.58338V9.16672H16.6668V9.58338C16.6668 9.81338 16.4793 10 16.2501 10ZM12.5401 3.64088C12.7443 2.30838 13.7985 1.18505 15.1035 0.910882C15.3443 0.860049 15.586 0.835049 15.8251 0.835049C16.5926 0.835049 17.3343 1.09172 17.9318 1.57672C18.716 2.21338 19.166 3.15755 19.166 4.16672C19.166 5.21588 18.681 6.18088 17.836 6.81505C17.301 7.21588 16.9385 7.74922 16.7726 8.33338H16.2493V4.94088C16.966 4.75422 17.4993 4.10755 17.4993 3.33338C17.4993 3.10338 17.3126 2.91672 17.0826 2.91672C16.8526 2.91672 16.666 3.10338 16.666 3.33338C16.666 3.79255 16.2926 4.16672 15.8326 4.16672C15.3726 4.16672 14.9993 3.79255 14.9993 3.33338C14.9993 3.10338 14.8126 2.91672 14.5826 2.91672C14.3526 2.91672 14.166 3.10338 14.166 3.33338C14.166 4.10755 14.6993 4.75422 15.416 4.94088V8.33338H14.8943C14.7293 7.74838 14.3685 7.21672 13.8376 6.82172C12.836 6.07505 12.3501 4.88588 12.5393 3.64172L12.5401 3.64088ZM19.961 9.59671C19.901 11.435 19.326 13.155 18.2976 14.5717C17.776 15.2909 17.5001 16.0784 17.5001 16.8492V17.9159C17.5001 19.1425 16.6435 19.9992 15.4168 19.9992H8.75014C7.60181 19.9992 6.66681 19.0642 6.66681 17.9159V17.4992H5.84431C4.08431 17.4992 2.54098 16.2492 2.17598 14.5275L1.74598 12.4992H1.28848C0.343477 12.4992 0.000976562 11.7742 0.000976562 11.2867C0.000976562 10.2184 2.37681 5.08255 3.53181 3.65422C5.34598 1.23255 8.25848 -0.134952 11.2693 0.0108818C11.4993 0.0217152 11.6768 0.217549 11.666 0.446715C11.6551 0.676715 11.4626 0.855049 11.231 0.843382C8.47931 0.715882 5.84681 1.95505 4.18848 4.16755C3.00681 5.63005 0.83431 10.5675 0.83431 11.2884C0.840143 11.4575 0.923477 11.6675 1.28848 11.6675H2.08598C2.28264 11.6675 2.45098 11.805 2.49181 11.9975L2.99181 14.3559C3.27598 15.695 4.47598 16.6667 5.84514 16.6667H7.08431C7.31431 16.6667 7.50098 16.8534 7.50098 17.0834V17.9167C7.50098 18.6059 8.06181 19.1667 8.75098 19.1667H15.4176C15.9943 19.1667 16.6676 18.8392 16.6676 17.9167V16.85C16.6676 15.9017 16.9985 14.945 17.6243 14.0825C18.5535 12.8009 19.0735 11.2409 19.1285 9.57005C19.136 9.34088 19.2893 9.15172 19.5593 9.16755C19.7885 9.17505 19.9693 9.36755 19.9618 9.59755L19.961 9.59671Z" fill="#4B6D74"/>
</g>
<defs>
<clipPath id="clip0_2320_71596">
<rect width="20" height="20" fill="white"/>
</clipPath>
</defs>
</svg>
