<svg width="20" height="20" viewBox="0 0 20 20" fill="none" xmlns="http://www.w3.org/2000/svg">
<g clip-path="url(#clip0_3238_90115)">
<path d="M15.7109 10.955C15.8742 11.1167 15.8742 11.3817 15.7125 11.5442C15.6309 11.6267 15.5234 11.6667 15.4175 11.6667C15.3117 11.6667 15.205 11.6258 15.1234 11.545L10.4284 6.87417L10.4175 19.5825C10.4175 19.8125 10.2309 19.9992 10.0009 19.9992C9.77086 19.9992 9.58419 19.8117 9.58419 19.5825L9.59502 6.875L4.87669 11.5458C4.71336 11.7083 4.44919 11.7058 4.28752 11.5425C4.12586 11.3792 4.12752 11.115 4.29086 10.9533L9.06919 6.2225C9.57002 5.72083 10.4509 5.71917 10.9567 6.22417L15.7109 10.955ZM10 0C4.62752 0 0.23919 4.20167 0.00918989 9.56583C-0.000810112 9.79583 0.177523 9.99 0.407523 10C0.645857 10.0017 0.832523 9.83167 0.84169 9.60083C1.05252 4.68417 5.07502 0.833333 10 0.833333C14.925 0.833333 18.9475 4.68417 19.1575 9.60083C19.1675 9.825 19.3517 10 19.5742 10H19.5917C19.8209 9.98917 20 9.79583 19.9909 9.56583C19.7617 4.20167 15.3725 0 10 0Z" fill="#4B6D74"/>
</g>
<defs>
<clipPath id="clip0_3238_90115">
<rect width="20" height="20" fill="white"/>
</clipPath>
</defs>
</svg>
