<svg width="20" height="20" viewBox="0 0 20 20" fill="none" xmlns="http://www.w3.org/2000/svg">
<g clip-path="url(#clip0_3170_260376)">
<path d="M20.0001 17.0833C20.0001 18.6917 18.6918 20 17.0834 20H12.0834C11.6234 20 11.2501 19.6275 11.2501 19.1667C11.2501 18.7058 11.6234 18.3333 12.0834 18.3333H17.0834C17.7726 18.3333 18.3334 17.7725 18.3334 17.0833C18.3334 16.3942 17.7726 15.8333 17.0834 15.8333H12.5001C12.0401 15.8333 11.6668 15.4608 11.6668 15C11.6668 14.5392 12.0401 14.1667 12.5001 14.1667H15.0593C15.9451 14.1667 16.6668 13.4458 16.6668 12.5592C16.6668 10.94 15.6084 10.2017 15.6084 10.2017C15.2143 11.065 14.3426 11.6658 13.3334 11.6658C12.8734 11.6658 12.5001 11.2933 12.5001 10.8325C12.5001 10.3717 12.8734 9.99917 13.3334 9.99917C13.7934 9.99917 14.1668 9.625 14.1668 9.16583V8.74917C14.1668 8.4525 14.3251 8.1775 14.5818 8.02833C14.8393 7.87917 15.1559 7.87917 15.4134 8.02583C18.4843 9.78 18.3943 12.1067 18.3326 12.6192C18.3218 13.2283 18.1334 13.7908 17.8318 14.2758C19.0759 14.6092 19.9993 15.735 19.9993 17.0825L20.0001 17.0833ZM10.0001 15.0783V17.0833C10.0001 18.6917 8.69175 20 7.08342 20H4.58342C2.97508 20 1.66675 18.6917 1.66675 17.0833V15.0783C1.52675 14.3408 0.380085 8.19083 0.0117516 3.61167C-0.0632484 2.68167 0.255918 1.755 0.886752 1.07167C1.51508 0.390833 2.40675 0 3.33342 0H8.33342C9.26009 0 10.1518 0.39 10.7793 1.07083C11.4109 1.755 11.7301 2.68083 11.6551 3.61167C11.2868 8.19083 10.1393 14.3408 9.99925 15.0783H10.0001ZM1.67259 3.47833C1.98342 7.33917 2.86425 12.3675 3.19258 14.1667H8.47425C8.80342 12.3675 9.68425 7.33917 9.99508 3.47833C10.0326 3.00333 9.87675 2.55 9.55508 2.20167C9.23758 1.85667 8.80342 1.66667 8.33425 1.66667H3.33425C2.86508 1.66667 2.43092 1.85667 2.11259 2.20167C1.79092 2.55 1.63425 3.00333 1.67259 3.47833ZM8.33342 15.8333H3.33342V17.0833C3.33342 17.7725 3.89425 18.3333 4.58342 18.3333H7.08342C7.77258 18.3333 8.33342 17.7725 8.33342 17.0833V15.8333Z" fill="#4B6D74"/>
</g>
<defs>
<clipPath id="clip0_3170_260376">
<rect width="20" height="20" fill="white"/>
</clipPath>
</defs>
</svg>
