<svg width="20" height="20" viewBox="0 0 20 20" fill="none" xmlns="http://www.w3.org/2000/svg">
<g clip-path="url(#clip0_1937_49274)">
<path d="M10 0C4.48583 0 0 4.48583 0 10C0 15.5142 4.48583 20 10 20C15.5142 20 20 15.5142 20 10C20 4.48583 15.5142 0 10 0ZM10 19.1667C4.94583 19.1667 0.833333 15.0542 0.833333 10C0.833333 4.94583 4.94583 0.833333 10 0.833333C15.0542 0.833333 19.1667 4.94583 19.1667 10C19.1667 15.0542 15.0542 19.1667 10 19.1667ZM11.87 4.84667L6.09833 10.6183C5.38917 11.3267 5 12.2683 5 13.2708V14.5833C5 14.8133 5.18667 15 5.41667 15H6.72917C7.73083 15 8.67333 14.61 9.38167 13.9017L15.1533 8.13C15.5917 7.69167 15.8333 7.10833 15.8333 6.48833C15.8333 5.86833 15.5917 5.28583 15.1533 4.84667C14.2758 3.96917 12.7467 3.96917 11.87 4.84667ZM8.7925 13.3117C8.24167 13.8625 7.50917 14.1658 6.72917 14.1658H5.83333V13.27C5.83333 12.49 6.13667 11.7583 6.6875 11.2067L10.9442 6.95L13.0483 9.05417L8.79167 13.3108L8.7925 13.3117ZM14.5642 7.54L13.6392 8.465L11.535 6.36083L12.46 5.43583C13.0233 4.8725 14.0017 4.8725 14.5642 5.43583C14.8458 5.7175 15 6.09083 15 6.48833C15 6.88583 14.845 7.25833 14.5642 7.54Z" fill="#4B6D74"/>
</g>
<defs>
<clipPath id="clip0_1937_49274">
<rect width="20" height="20" fill="white"/>
</clipPath>
</defs>
</svg>
