<svg width="20" height="20" viewBox="0 0 20 20" fill="none" xmlns="http://www.w3.org/2000/svg">
<g clip-path="url(#clip0_2058_43319)">
<path d="M20 10C20 15.5142 15.5142 20 10 20C4.62752 20 0.23919 15.7983 0.00918989 10.4342C-0.000810112 10.2042 0.177523 10.01 0.407523 10C0.633357 10.0092 0.83169 10.1683 0.84169 10.3992C1.05169 15.3158 5.07502 19.1667 10 19.1667C15.0542 19.1667 19.1667 15.0542 19.1667 10C19.1667 4.94583 15.0542 0.833333 10 0.833333C6.87419 0.833333 4.03419 2.39167 2.33169 5H6.25002C6.48002 5 6.66669 5.18667 6.66669 5.41667C6.66669 5.64667 6.48002 5.83333 6.25002 5.83333H2.08336C1.39419 5.83333 0.833356 5.2725 0.833356 4.58333V0.416667C0.833356 0.186667 1.02002 0 1.25002 0C1.48002 0 1.66669 0.186667 1.66669 0.416667V4.49917C3.52669 1.6825 6.60919 0 10 0C15.5142 0 20 4.48583 20 10Z" fill="#4B6D74"/>
</g>
<defs>
<clipPath id="clip0_2058_43319">
<rect width="20" height="20" fill="white"/>
</clipPath>
</defs>
</svg>
