<svg width="20" height="20" viewBox="0 0 20 20" fill="none" xmlns="http://www.w3.org/2000/svg">
<g clip-path="url(#clip0_2140_66545)">
<path d="M15.8333 3.33333V0.416667C15.8333 0.186667 16.02 0 16.25 0C16.48 0 16.6667 0.186667 16.6667 0.416667V3.33333H19.5833C19.8133 3.33333 20 3.52 20 3.75C20 3.98 19.8133 4.16667 19.5833 4.16667H16.6667V7.08333C16.6667 7.31333 16.48 7.5 16.25 7.5C16.02 7.5 15.8333 7.31333 15.8333 7.08333V4.16667H12.9167C12.6867 4.16667 12.5 3.98 12.5 3.75C12.5 3.52 12.6867 3.33333 12.9167 3.33333H15.8333ZM13.3333 8.33333C13.3333 10.1717 11.8383 11.6667 10 11.6667C8.16167 11.6667 6.66667 10.1717 6.66667 8.33333C6.66667 6.495 8.16167 5 10 5C11.8383 5 13.3333 6.495 13.3333 8.33333ZM12.5 8.33333C12.5 6.955 11.3783 5.83333 10 5.83333C8.62167 5.83333 7.5 6.955 7.5 8.33333C7.5 9.71167 8.62167 10.8333 10 10.8333C11.3783 10.8333 12.5 9.71167 12.5 8.33333ZM19.5658 7.07583C19.8542 8.02083 20 9.00417 20 10C20 15.5142 15.5142 20 10 20C4.48583 20 0 15.5142 0 10C0 4.48583 4.48583 0 10 0C11.0392 0 12.0642 0.158333 13.0433 0.471667C13.2625 0.541667 13.3833 0.775833 13.3133 0.995C13.2425 1.21417 13.0075 1.33583 12.7892 1.265C11.8917 0.978333 10.9525 0.8325 9.99917 0.8325C4.94583 0.833333 0.833333 4.94583 0.833333 10C0.833333 13.2283 2.515 16.0667 5.045 17.7C5.3575 15.2417 7.45833 13.3333 10 13.3333C12.5417 13.3333 14.6425 15.2417 14.955 17.7C17.4842 16.0667 19.1667 13.2283 19.1667 10C19.1667 9.08667 19.0333 8.185 18.7683 7.31917C18.7017 7.09917 18.825 6.86583 19.0458 6.79917C19.2658 6.73 19.4983 6.85667 19.5658 7.07583ZM10 19.1667C11.4942 19.1667 12.9017 18.8 14.1492 18.1633C14.0575 15.9467 12.2392 14.1667 10 14.1667C7.76083 14.1667 5.94167 15.9458 5.85083 18.1633C7.09833 18.8 8.50583 19.1667 10 19.1667Z" fill="#4B6D74"/>
</g>
<defs>
<clipPath id="clip0_2140_66545">
<rect width="20" height="20" fill="white"/>
</clipPath>
</defs>
</svg>
