<svg width="20" height="20" viewBox="0 0 20 20" fill="none" xmlns="http://www.w3.org/2000/svg">
<g clip-path="url(#clip0_2600_49693)">
<path d="M3.32917 12.5008C3.54833 12.5508 3.77667 12.4092 3.82583 12.1833C4.19417 10.5125 4.7875 7.81833 5.14833 6.18499C5.6825 8.37083 7.6525 9.99999 10.0008 9.99999C11.3908 9.99999 12.6825 9.44333 13.6367 8.43166C13.7942 8.26416 13.7875 8.00083 13.62 7.84249C13.4525 7.68416 13.1875 7.69166 13.0308 7.85916C12.235 8.70166 11.1583 9.16583 10 9.16583C7.9875 9.16583 6.30417 7.73083 5.9175 5.83083H6.67917C9.31333 5.75249 11.5708 3.99249 12.3483 1.50666C13.4042 2.17499 14.1892 3.31083 14.5442 4.79499C14.5875 4.97416 15.63 9.70583 16.175 12.1825C16.2242 12.4083 16.4517 12.55 16.6717 12.5C16.8967 12.45 17.0383 12.2283 16.9892 12.0033C16.925 11.7108 15.41 4.83249 15.355 4.60083C14.6775 1.76249 12.6258 -0.000839233 10.0008 -0.000839233C9.73833 -0.000839233 9.48333 0.0258274 9.23167 0.0649941C6.9825 0.377494 5.25667 2.04833 4.64667 4.60083C4.59167 4.83249 3.07667 11.7108 3.0125 12.0033C2.9625 12.2283 3.105 12.45 3.33 12.5L3.32917 12.5008ZM6.66583 4.99749H5.83333C5.83333 2.70166 7.70333 0.833327 10 0.833327C10.5683 0.833327 11.1042 0.935827 11.5983 1.12499C10.9683 3.34666 8.98 4.92916 6.66583 4.99749ZM10 11.6667C5.86417 11.6667 2.5 15.0317 2.5 19.1667V19.5833C2.5 19.8133 2.68667 20 2.91667 20C3.14667 20 3.33333 19.8133 3.33333 19.5833V19.1667C3.33333 16.7058 4.6775 14.5567 6.66667 13.4017V15.8925C5.95 16.0792 5.41667 16.7258 5.41667 17.5C5.41667 18.4192 6.16417 19.1667 7.08333 19.1667C8.0025 19.1667 8.75 18.4192 8.75 17.5C8.75 16.7258 8.21667 16.0792 7.5 15.8925V12.9908C8.2725 12.6767 9.11583 12.5 10 12.5C10.8842 12.5 11.7275 12.6767 12.5 12.9908V15.8758C11.55 16.0692 10.8333 16.9108 10.8333 17.9167V19.5833C10.8333 19.8133 11.02 20 11.25 20C11.48 20 11.6667 19.8133 11.6667 19.5833V17.9167C11.6667 17.2275 12.2275 16.6667 12.9167 16.6667C13.6058 16.6667 14.1667 17.2275 14.1667 17.9167V19.5833C14.1667 19.8133 14.3533 20 14.5833 20C14.8133 20 15 19.8133 15 19.5833V17.9167C15 16.9108 14.2833 16.0692 13.3333 15.8758V13.4025C15.3225 14.5575 16.6667 16.7058 16.6667 19.1675V19.5842C16.6667 19.8142 16.8533 20.0008 17.0833 20.0008C17.3133 20.0008 17.5 19.8142 17.5 19.5842V19.1675C17.5 15.0325 14.1358 11.6675 10 11.6675V11.6667ZM7.91667 17.5C7.91667 17.9592 7.54333 18.3333 7.08333 18.3333C6.62333 18.3333 6.25 17.9592 6.25 17.5C6.25 17.0408 6.62333 16.6667 7.08333 16.6667C7.54333 16.6667 7.91667 17.0408 7.91667 17.5Z" fill="#4B6D74"/>
</g>
<defs>
<clipPath id="clip0_2600_49693">
<rect width="20" height="20" fill="white"/>
</clipPath>
</defs>
</svg>
