<svg width="20" height="20" viewBox="0 0 20 20" fill="none" xmlns="http://www.w3.org/2000/svg">
<path d="M7.07235 4.75119C7.07252 4.95026 7.15174 5.14112 7.2926 5.2818L11.133 9.12216C11.2492 9.23837 11.3414 9.37634 11.4043 9.52819C11.4672 9.68004 11.4996 9.84279 11.4996 10.0072C11.4996 10.1715 11.4672 10.3343 11.4043 10.4861C11.3414 10.638 11.2492 10.776 11.133 10.8922L7.2976 14.7275C7.16083 14.8691 7.08515 15.0588 7.08686 15.2557C7.08857 15.4525 7.16753 15.6409 7.30675 15.7801C7.44596 15.9193 7.63429 15.9983 7.83116 16C8.02803 16.0017 8.2177 15.926 8.35931 15.7892L12.1947 11.9569C12.7104 11.4402 13 10.7399 13 10.0099C13 9.27988 12.7104 8.57967 12.1947 8.06295L8.3543 4.22009C8.24929 4.11501 8.11547 4.04345 7.96978 4.01445C7.82408 3.98545 7.67306 4.00032 7.53581 4.05717C7.39857 4.11403 7.28128 4.21032 7.19878 4.33386C7.11628 4.4574 7.07228 4.60264 7.07235 4.75119Z" fill="#4B6D74"/>
</svg>
