<svg width="20" height="20" viewBox="0 0 20 20" fill="none" xmlns="http://www.w3.org/2000/svg">
<path d="M19.97 10.2617L19.9675 10.2567L19.9658 10.2525L17.055 2.97583C16.7367 2.18 15.9775 1.66583 15.1208 1.66583H10.4158V0.416667C10.4158 0.186667 10.2292 0 9.99917 0C9.76917 0 9.5825 0.186667 9.5825 0.416667V1.66667H4.87833C4.02167 1.66667 3.2625 2.18083 2.94417 2.97667L0.0341667 10.2525L0.0325 10.2567L0.03 10.2617C0.01 10.3108 0 11.1792 0 11.1792C0 13.01 1.21417 14.5467 2.9525 14.9158C3.21417 14.9717 3.48083 15 3.74417 15H3.75083C5.8175 14.9967 7.5 13.3142 7.5 11.25C7.5 11.25 7.49 10.3117 7.47 10.2617L7.4675 10.2567L7.46583 10.2525L4.4025 2.59333C4.55 2.5325 4.71083 2.5 4.87833 2.5H9.58333V19.1667H3.75C3.52 19.1667 3.33333 19.3533 3.33333 19.5833C3.33333 19.8133 3.52 20 3.75 20H16.25C16.48 20 16.6667 19.8133 16.6667 19.5833C16.6667 19.3533 16.48 19.1667 16.25 19.1667H10.4167V2.5H15.1217C15.2892 2.5 15.4508 2.5325 15.5975 2.59333L12.5342 10.2525L12.5325 10.2567L12.53 10.2617C12.51 10.3108 12.5 11.25 12.5 11.25C12.5 13.3142 14.1825 14.9967 16.2492 15H16.2558C16.5192 15 16.7858 14.9717 17.0467 14.9158C18.7858 14.5458 20 13.0092 20 11.1792C20 11.1792 19.99 10.3108 19.97 10.2617ZM3.74917 14.1667C3.51333 14.18 3.3325 14.145 3.12583 14.1008C1.77667 13.8142 0.833333 12.6125 0.833333 11.1792V10.8333H6.66667V11.25C6.66667 12.855 5.35833 14.1642 3.74917 14.1667ZM6.46833 10H1.03167C1.03167 10 3.73917 3.23417 3.75167 3.20917L6.46833 10ZM16.2483 3.20917C16.2608 3.23417 18.9675 10 18.9675 10H13.5317L16.2483 3.20917ZM16.8733 14.1008C16.6675 14.145 16.485 14.1817 16.2508 14.1667C14.6417 14.1642 13.3333 12.855 13.3333 11.25V10.8333H19.1667V11.1792C19.1667 12.6125 18.2233 13.8142 16.8733 14.1008Z" fill="#4B6D74"/>
</svg>
