<svg width="20" height="20" viewBox="0 0 20 20" fill="none" xmlns="http://www.w3.org/2000/svg">
<path d="M14.0429 14.3892L11.6854 3.785L12.4254 1.93C12.5754 1.47667 12.5004 0.995 12.2204 0.608333C11.9412 0.221667 11.507 0 11.0295 0H8.97036C8.49286 0 8.05869 0.221667 7.77953 0.608333C7.50036 0.995 7.42536 1.47667 7.58369 1.95417L8.31536 3.785L5.96953 14.3475C5.63786 15.3425 5.92453 16.4408 6.70036 17.1475L9.71953 19.8917C9.79869 19.9633 9.89952 20 9.99953 20C10.0995 20 10.2004 19.9642 10.2795 19.8917L13.2987 17.1475C14.0745 16.4417 14.3629 15.3425 14.0429 14.3892ZM8.45536 1.09667C8.57703 0.929167 8.76453 0.833333 8.97119 0.833333H11.0304C11.237 0.833333 11.4254 0.929167 11.5462 1.09667C11.667 1.26417 11.6995 1.4725 11.6437 1.64417L10.9687 3.3325H9.03286L8.36703 1.6675C8.30286 1.47167 8.33453 1.26417 8.45536 1.09667ZM12.7395 16.5308L10.0012 19.02L7.26286 16.5308C6.73036 16.0467 6.53369 15.2933 6.77286 14.5692L9.08536 4.16583H10.917L13.2412 14.6108C13.4687 15.2925 13.272 16.0475 12.7395 16.5308Z" fill="#4B6D74"/>
</svg>
