<svg width="20" height="20" viewBox="0 0 20 20" fill="none" xmlns="http://www.w3.org/2000/svg">
<path d="M5.4575 5.01561C5.4575 2.25016 7.71 0 10.4783 0C13.2467 0 15.5 2.25016 15.5 5.01561C15.5 7.78106 13.2475 10.0312 10.4783 10.0312C7.70917 10.0312 5.4575 7.78106 5.4575 5.01561ZM6.29083 5.01561C6.29083 7.32237 8.16917 9.19875 10.4783 9.19875C12.7875 9.19875 14.6667 7.32237 14.6667 5.01561C14.6667 2.70885 12.7883 0.832466 10.4783 0.832466C8.16833 0.832466 6.29083 2.70885 6.29083 5.01561ZM10.5 11.6753C6.365 11.6753 3 15.036 3 19.1675V19.5838C3 19.8135 3.18667 20 3.41667 20C3.64667 20 3.83333 19.8135 3.83333 19.5838V19.1675C3.83333 15.4955 6.82417 12.5078 10.5 12.5078C14.1758 12.5078 17.1667 15.4955 17.1667 19.1675V19.5838C17.1667 19.8135 17.3533 20 17.5833 20C17.8133 20 18 19.8135 18 19.5838V19.1675C18 15.036 14.635 11.6753 10.5 11.6753Z" fill="#4B6D74"/>
</svg>
