<svg width="20" height="20" viewBox="0 0 20 20" fill="none" xmlns="http://www.w3.org/2000/svg">
<g clip-path="url(#clip0_3240_185817)">
<path d="M14.1667 15.4164V16.2498C14.1667 18.3164 12.4833 19.9998 10.4167 19.9998H3.75C1.68333 19.9998 0 18.3164 0 16.2498V9.58311C0 7.51645 1.68333 5.83311 3.75 5.83311H5.41667C5.65 5.83311 5.83333 6.01645 5.83333 6.24978C5.83333 6.48311 5.65 6.66645 5.41667 6.66645H3.75C2.14167 6.66645 0.833333 7.97478 0.833333 9.58311V16.2498C0.833333 17.8581 2.14167 19.1664 3.75 19.1664H10.4167C12.025 19.1664 13.3333 17.8581 13.3333 16.2498V15.4164C13.3333 15.1831 13.5167 14.9998 13.75 14.9998C13.9833 14.9998 14.1667 15.1831 14.1667 15.4164ZM19.3917 4.78311L14.8833 0.12478C14.725 -0.0418867 14.4583 -0.0418867 14.2917 0.116447C14.125 0.27478 14.125 0.541447 14.2833 0.708113L18.8 5.36645C18.9417 5.50811 19.0333 5.67478 19.0917 5.85811C19.0583 5.84978 19.0167 5.83311 18.975 5.83311H10.4167C8.35 5.83311 6.66667 7.51645 6.66667 9.58311V14.5831C6.66667 14.8164 6.85 14.9998 7.08333 14.9998C7.31667 14.9998 7.5 14.8164 7.5 14.5831V9.58311C7.5 7.97478 8.80833 6.66645 10.4167 6.66645H18.975C18.975 6.66645 19.05 6.65811 19.0917 6.64145C19.0333 6.82478 18.9417 6.99145 18.8 7.13311L14.2917 11.7831C14.1333 11.9498 14.1333 12.2081 14.3 12.3748C14.3833 12.4498 14.4833 12.4914 14.5917 12.4914C14.7 12.4914 14.8083 12.4498 14.8917 12.3664L19.4 7.71645C20.2083 6.90811 20.2083 5.58311 19.4 4.77478L19.3917 4.78311Z" fill="#4B6D74"/>
</g>
<defs>
<clipPath id="clip0_3240_185817">
<rect width="20" height="20" fill="white"/>
</clipPath>
</defs>
</svg>
