<svg width="20" height="20" viewBox="0 0 20 20" fill="none" xmlns="http://www.w3.org/2000/svg">
<path d="M3.71321 13.5904C3.48701 13.7488 3.43204 14.0606 3.59042 14.2868C3.74881 14.513 4.06059 14.568 4.28679 14.4096L3.71321 13.5904ZM15.9605 6.05675C16.0085 5.78481 15.8269 5.52548 15.555 5.47753L11.1233 4.69611C10.8514 4.64816 10.592 4.82974 10.5441 5.10169C10.4961 5.37364 10.6777 5.63297 10.9497 5.68092L14.8889 6.37551L14.1943 10.3147C14.1464 10.5867 14.3279 10.846 14.5999 10.894C14.8718 10.9419 15.1312 10.7603 15.1791 10.4884L15.9605 6.05675ZM4 14L4.28679 14.4096L15.7549 6.37951L15.4681 5.96993L15.1813 5.56035L3.71321 13.5904L4 14Z" fill="#4B6D74"/>
</svg>
