<svg width="20" height="20" viewBox="0 0 20 20" fill="none" xmlns="http://www.w3.org/2000/svg">
<g clip-path="url(#clip0_1405_17957)">
<path d="M10 19.7167C9.7 19.7167 9.4 19.6083 9.16667 19.4L5.91667 16.6667H2.91667C1.30833 16.6667 0 15.3583 0 13.75V2.91667C0 1.30833 1.30833 0 2.91667 0H17.0833C18.6917 0 20 1.30833 20 2.91667V13.75C20 15.3583 18.6917 16.6667 17.0833 16.6667H14.1417L10.8167 19.4083C10.5833 19.6167 10.2917 19.7167 10 19.7167ZM2.91667 0.833333C1.76667 0.833333 0.833333 1.76667 0.833333 2.91667V13.75C0.833333 14.9 1.76667 15.8333 2.91667 15.8333H6.075C6.175 15.8333 6.26667 15.8667 6.34167 15.9333L9.71667 18.775C9.88333 18.925 10.1167 18.925 10.275 18.775L13.725 15.925C13.8 15.8667 13.8917 15.8333 13.9917 15.8333H17.0833C18.2333 15.8333 19.1667 14.9 19.1667 13.75V2.91667C19.1667 1.76667 18.2333 0.833333 17.0833 0.833333H2.91667ZM7.28333 13.35C7.10833 13.35 6.93333 13.2917 6.78333 13.1833C6.5 12.975 6.38333 12.6 6.48333 12.2667L7.26667 9.75833L5.29167 8.15C5.01667 7.91667 4.925 7.55 5.04167 7.225C5.15833 6.9 5.475 6.68333 5.825 6.68333H8.325L9.20833 4.30833C9.325 4 9.63333 3.79167 9.99167 3.79167C10.35 3.79167 10.6583 3.99167 10.775 4.30833L11.6583 6.68333H14.1583C14.5083 6.68333 14.825 6.9 14.9417 7.23333C15.0583 7.55833 14.9667 7.925 14.7 8.15L12.725 9.75833L13.5417 12.2417C13.65 12.575 13.5417 12.95 13.2583 13.1667C12.975 13.3833 12.5917 13.4 12.2917 13.2083L10 11.7167L7.74167 13.225C7.6 13.3167 7.44167 13.3667 7.275 13.3667L7.28333 13.35ZM5.83333 7.50833L8.01667 9.28333C8.15 9.39167 8.2 9.56667 8.15 9.73333L7.28333 12.5167L9.76667 10.8583C9.90833 10.7667 10.0833 10.7667 10.225 10.8583L12.75 12.5L11.8417 9.74167C11.7917 9.575 11.8417 9.4 11.975 9.29167L14.1667 7.50833H11.3667C11.1917 7.51667 11.0333 7.40833 10.975 7.25L9.99167 4.6L9.00833 7.25C8.95 7.41667 8.79167 7.525 8.61667 7.525H5.825L5.83333 7.50833Z" fill="#4B6D74"/>
</g>
<defs>
<clipPath id="clip0_1405_17957">
<rect width="20" height="20" fill="white"/>
</clipPath>
</defs>
</svg>
