<svg width="20" height="20" viewBox="0 0 20 20" fill="none" xmlns="http://www.w3.org/2000/svg">
<g clip-path="url(#clip0_2060_59896)">
<path d="M15.9515 19.9917C15.9115 19.9975 15.8715 20 15.8323 20C15.4248 20 15.0681 19.7008 15.009 19.285C14.6598 16.8417 12.5065 15 10.0006 15C7.4948 15 5.34147 16.8417 4.9923 19.285C4.92647 19.7408 4.50147 20.0533 4.0498 19.9925C3.59397 19.9275 3.2773 19.505 3.34313 19.0492C3.80897 15.7908 6.67147 13.3342 10.0015 13.3342C13.3315 13.3342 16.194 15.7908 16.6598 19.0492C16.7256 19.505 16.409 19.9275 15.9531 19.9925L15.9515 19.9917ZM4.9998 6.66666V0.636659C4.9998 0.0083256 5.8148 -0.239174 6.16397 0.284159L7.4998 2.49999L9.41397 0.266659C9.7223 -0.0925077 10.2781 -0.0925077 10.5856 0.266659L12.4998 2.49999L13.8356 0.284159C14.1848 -0.239174 14.9998 0.0083256 14.9998 0.636659V6.66666C14.9998 9.42416 12.7573 11.6667 9.9998 11.6667C7.2423 11.6667 4.9998 9.42416 4.9998 6.66666ZM6.66647 5.83333V6.66666C6.66647 8.50499 8.16147 9.99999 9.9998 9.99999C11.8381 9.99999 13.3331 8.50499 13.3331 6.66666V5.83333H6.66647Z" fill="#4B6D74"/>
</g>
<defs>
<clipPath id="clip0_2060_59896">
<rect width="20" height="20" fill="white"/>
</clipPath>
</defs>
</svg>
