<svg width="20" height="20" viewBox="0 0 20 20" fill="none" xmlns="http://www.w3.org/2000/svg">
<g clip-path="url(#clip0_3170_260380)">
<path d="M11.9833 1.66649C12.6433 1.66649 13.2842 1.85983 13.8283 2.22316L15.3983 3.28566C15.7792 3.54316 16.2967 3.44483 16.5558 3.06233C16.8142 2.68149 16.7133 2.16316 16.3325 1.90483L14.7575 0.838993C13.9333 0.289826 12.9733 -0.00100708 11.9833 -0.00100708H7.08333C5.475 -0.00100708 4.16667 1.30733 4.16667 2.91566V4.38233C1.67417 5.51733 0 8.04483 0 10.8332V15.8332C0 18.1307 1.86917 19.9998 4.16667 19.9998H9.16667C11.4642 19.9998 13.3333 18.1307 13.3333 15.8332V10.8332C13.3333 8.04483 11.6592 5.51733 9.16667 4.38316V1.66649H11.9833ZM5.83333 2.91649C5.83333 2.22733 6.39417 1.66649 7.08333 1.66649H7.5V4.16649H5.83333V2.91649ZM11.6667 10.8332V15.8332C11.6667 17.2115 10.545 18.3332 9.16667 18.3332H4.16667C2.78833 18.3332 1.66667 17.2115 1.66667 15.8332V10.8332C1.66667 8.63316 3.03583 6.65649 5.0425 5.83316H8.29083C10.2975 6.65649 11.6667 8.63316 11.6667 10.8332ZM7.9225 10.0615C7.2175 9.37399 6.11583 9.37316 5.41083 10.0615L4.60417 10.8507C3.46667 11.9873 3.46667 13.839 4.60417 14.9757C5.155 15.5265 5.8875 15.8298 6.66667 15.8298C7.44583 15.8298 8.1775 15.5265 8.72917 14.9757C9.86667 13.839 9.86667 11.9873 8.7225 10.844L7.9225 10.0615ZM7.55083 13.7982C7.07917 14.2698 6.255 14.2698 5.78333 13.7982C5.29583 13.3107 5.29583 12.5173 5.77667 12.0365L6.57667 11.2548C6.62667 11.2048 6.70667 11.2048 6.7575 11.2548L7.55083 12.0307C8.03833 12.5182 8.03833 13.3107 7.55083 13.7982ZM17.5 6.66649C18.4208 6.66649 19.1667 7.41233 19.1667 8.33316C19.1667 9.25399 18.4208 9.99983 17.5 9.99983C16.5792 9.99983 15.8333 9.25399 15.8333 8.33316C15.8333 7.41233 16.5792 6.66649 17.5 6.66649ZM17.7733 14.2582C17.865 14.0373 17.9167 13.7957 17.9167 13.5415C17.9167 12.5057 17.0775 11.6665 16.0417 11.6665C15.0058 11.6665 14.1667 12.5057 14.1667 13.5415C14.1667 14.1798 14.4867 14.7415 14.9742 15.0798C14.4775 15.6032 14.1667 16.3057 14.1667 17.0832C14.1667 18.6915 15.475 19.9998 17.0833 19.9998C18.6917 19.9998 20 18.6915 20 17.0832C20 15.714 19.0475 14.5698 17.7733 14.2582ZM17.0833 18.3332C16.3942 18.3332 15.8333 17.7723 15.8333 17.0832C15.8333 16.394 16.3942 15.8332 17.0833 15.8332C17.7725 15.8332 18.3333 16.394 18.3333 17.0832C18.3333 17.7723 17.7725 18.3332 17.0833 18.3332Z" fill="#4B6D74"/>
</g>
<defs>
<clipPath id="clip0_3170_260380">
<rect width="20" height="20" fill="white"/>
</clipPath>
</defs>
</svg>
