<svg width="23" height="20" viewBox="0 0 23 20" fill="none" xmlns="http://www.w3.org/2000/svg">
<path d="M8.67272 3.38414L10.6982 8.01374L12.9581 3.49394C13.7449 1.92023 12.6006 0.068634 10.8411 0.068634C9.13429 0.068634 7.98862 1.82039 8.67272 3.38414Z" fill="#4B6D74" fill-opacity="0.35"/>
<path d="M8.67272 16.6159L10.6982 11.9863L12.9581 16.5061C13.7449 18.0798 12.6006 19.9313 10.8411 19.9313C9.13429 19.9313 7.98862 18.1796 8.67272 16.6159Z" fill="#4B6D74"/>
<path d="M15.8829 15.5574L13.0532 11.3707L18.0811 11.8771C19.8317 12.0535 20.7847 14.0105 19.8441 15.4974C18.9316 16.9398 16.8387 16.9716 15.8829 15.5574Z" fill="#4B6D74" fill-opacity="0.8"/>
<path d="M6.27876 5.05333L9.10844 9.24005L4.08058 8.73356C2.32998 8.55724 1.37696 6.60027 2.31758 5.11336C3.23007 3.6709 5.32297 3.63918 6.27876 5.05333Z" fill="#4B6D74" fill-opacity="0.3"/>
<path d="M6.27876 15.5574L9.10844 11.3707L4.08058 11.8771C2.32998 12.0535 1.37696 14.0105 2.31758 15.4974C3.23007 16.9398 5.32297 16.9716 6.27876 15.5574Z" fill="#4B6D74" fill-opacity="0.2"/>
<path d="M15.8829 5.05333L13.0532 9.24005L18.0811 8.73356C19.8317 8.55724 20.7847 6.60027 19.8441 5.11336C18.9316 3.6709 16.8387 3.63918 15.8829 5.05333Z" fill="#4B6D74" fill-opacity="0.6"/>
</svg>
