<svg width="20" height="20" viewBox="0 0 20 20" fill="none" xmlns="http://www.w3.org/2000/svg">
<g clip-path="url(#clip0_1597_45568)">
<path d="M17.0833 5.83333H14.0725C15.5992 5.10083 16.6667 3.87083 16.6667 2.08333C16.6667 1.85333 16.48 1.66667 16.25 1.66667C16.02 1.66667 15.8333 1.85333 15.8333 2.08333C15.8333 4.63583 13.1075 5.57417 10.9675 5.785C11.6167 4.9825 12.5 3.675 12.5 2.5C12.5 1.12167 11.3783 0 10 0C8.62167 0 7.5 1.12167 7.5 2.5C7.5 3.675 8.3825 4.98167 9.0325 5.785C6.8925 5.575 4.16667 4.63583 4.16667 2.08333C4.16667 1.85333 3.98 1.66667 3.75 1.66667C3.52 1.66667 3.33333 1.85333 3.33333 2.08333C3.33333 3.87083 4.40083 5.10083 5.9275 5.83333H2.91667C1.30833 5.83333 0 7.14167 0 8.75V9.58333C0 10.2725 0.560833 10.8333 1.25 10.8333H1.66667V16.25C1.66667 18.3175 3.34917 20 5.41667 20H14.5833C16.6508 20 18.3333 18.3175 18.3333 16.25V10.8333H18.75C19.4392 10.8333 20 10.2725 20 9.58333V8.75C20 7.14167 18.6917 5.83333 17.0833 5.83333ZM10 0.833333C10.9192 0.833333 11.6667 1.58083 11.6667 2.5C11.6667 3.54 10.6417 4.91583 10 5.64C9.35833 4.91583 8.33333 3.54 8.33333 2.5C8.33333 1.58083 9.08083 0.833333 10 0.833333ZM0.833333 9.58333V8.75C0.833333 7.60167 1.76833 6.66667 2.91667 6.66667H9.58333V10H1.25C1.02 10 0.833333 9.81333 0.833333 9.58333ZM2.5 16.25V10.8333H9.58333V19.1667H5.41667C3.80833 19.1667 2.5 17.8583 2.5 16.25ZM17.5 16.25C17.5 17.8583 16.1917 19.1667 14.5833 19.1667H10.4167V10.8333H17.5V16.25ZM19.1667 9.58333C19.1667 9.81333 18.98 10 18.75 10H10.4167V6.66667H17.0833C18.2317 6.66667 19.1667 7.60167 19.1667 8.75V9.58333Z" fill="#4B6D74"/>
</g>
<defs>
<clipPath id="clip0_1597_45568">
<rect width="20" height="20" fill="white"/>
</clipPath>
</defs>
</svg>
