<svg width="20" height="20" viewBox="0 0 20 20" fill="none" xmlns="http://www.w3.org/2000/svg">
<g clip-path="url(#clip0_2320_49565)">
<path d="M14.9808 8.06182C15.135 5.87849 14.3383 3.74099 12.7958 2.19849C11.2533 0.655986 9.12333 -0.129014 6.95667 0.0184861C3.18583 0.285986 0 3.83099 0 7.76015V12.0835C0 13.9918 1.00833 15.0002 2.91667 15.0002H7.2375C11.1692 15.0002 14.7158 11.8235 14.9808 8.06182ZM7.2375 14.1668H2.91667C1.47583 14.1668 0.833333 13.5243 0.833333 12.0835V7.76015C0.833333 4.08349 3.9325 0.800153 7.48667 0.833486C11.255 0.750986 14.4992 4.24349 14.1492 8.00349C13.9133 11.3452 10.7475 14.1668 7.23667 14.1668H7.2375ZM20 13.5627V17.501C20 19.0427 19.0425 20.0002 17.5 20.0002H13.565C11.3167 20.0002 9.10333 18.8135 7.78833 16.9027C7.65833 16.7127 7.70583 16.4535 7.89583 16.3235C8.08583 16.1935 8.345 16.2402 8.475 16.431C9.63583 18.1185 11.5858 19.1668 13.5642 19.1668H17.4992C18.26 19.1668 19.1658 18.8777 19.1658 17.501V13.5627C19.1658 11.5843 18.1175 9.63515 16.43 8.47515C16.24 8.34515 16.1925 8.08515 16.3225 7.89599C16.4542 7.70682 16.7125 7.65849 16.9017 7.78849C18.8117 9.10182 19.9992 11.3143 19.9992 13.5635L20 13.5627ZM8.33333 7.50015C8.33333 7.96015 7.96 8.33349 7.5 8.33349C7.04 8.33349 6.66667 7.96015 6.66667 7.50015C6.66667 7.04015 7.04 6.66682 7.5 6.66682C7.96 6.66682 8.33333 7.04015 8.33333 7.50015ZM5 7.50015C5 7.96015 4.62667 8.33349 4.16667 8.33349C3.70667 8.33349 3.33333 7.96015 3.33333 7.50015C3.33333 7.04015 3.70667 6.66682 4.16667 6.66682C4.62667 6.66682 5 7.04015 5 7.50015ZM11.6667 7.50015C11.6667 7.96015 11.2933 8.33349 10.8333 8.33349C10.3733 8.33349 10 7.96015 10 7.50015C10 7.04015 10.3733 6.66682 10.8333 6.66682C11.2933 6.66682 11.6667 7.04015 11.6667 7.50015Z" fill="#4B6D74"/>
</g>
<defs>
<clipPath id="clip0_2320_49565">
<rect width="20" height="20" fill="white"/>
</clipPath>
</defs>
</svg>
