<svg width="20" height="20" viewBox="0 0 20 20" fill="none" xmlns="http://www.w3.org/2000/svg">
<g clip-path="url(#clip0_2600_72107)">
<path d="M20.0001 6.65832C20.0001 5.71166 19.4743 4.84416 18.5593 4.31916L12.096 1.36749C10.8235 0.634991 9.17764 0.635824 7.93764 1.34999L1.44098 4.31999C1.42931 4.32582 1.41764 4.33166 1.40681 4.33749C0.525976 4.84416 0.000976562 5.71166 0.000976562 6.65832C0.000976562 7.60499 0.52681 8.47249 1.44181 8.99749L3.33431 9.86166V15.0142C3.33431 16.6225 4.33014 18.04 5.81264 18.5417C7.03848 18.9567 8.44764 19.1667 10.001 19.1667C11.5543 19.1667 12.9643 18.9567 14.1893 18.5417C15.671 18.0392 16.6676 16.6217 16.6676 15.0142V9.86082L18.5943 8.97999C18.8068 8.85749 18.9985 8.71249 19.1676 8.55249V17.0842C19.1676 17.3142 19.3543 17.5008 19.5843 17.5008C19.8143 17.5008 20.001 17.3142 20.001 17.0842V6.66749C20.001 6.66749 20.001 6.66582 20.001 6.66499C20.001 6.66332 20.001 6.66082 20.001 6.65916L20.0001 6.65832ZM15.8335 15.0133C15.8335 16.2642 15.0651 17.3642 13.9218 17.7517C12.7826 18.1375 11.4626 18.3325 10.0001 18.3325C8.53764 18.3325 7.21764 18.1375 6.07848 17.7517C4.93514 17.3642 4.16681 16.2642 4.16681 15.0133V10.2417L7.90348 11.9475C8.54431 12.3158 9.27848 12.4992 10.0085 12.4992C10.7293 12.4992 11.446 12.32 12.0618 11.965L15.8326 10.2408L15.8335 15.0133ZM18.2126 8.23832L11.681 11.225C10.6585 11.8133 9.33848 11.8133 8.28431 11.2075L1.82098 8.25666C1.19348 7.89499 0.832643 7.31249 0.832643 6.65832C0.832643 6.00999 1.18681 5.43082 1.80514 5.06916L8.31764 2.09082C9.34014 1.50166 10.6601 1.50332 11.7143 2.10832L18.1776 5.05999C18.8051 5.42166 19.166 6.00416 19.166 6.65832C19.166 7.31249 18.806 7.89499 18.2126 8.23832Z" fill="#4B6D74"/>
</g>
<defs>
<clipPath id="clip0_2600_72107">
<rect width="20" height="20" fill="white"/>
</clipPath>
</defs>
</svg>
