<svg width="20" height="20" viewBox="0 0 20 20" fill="none" xmlns="http://www.w3.org/2000/svg">
<g clip-path="url(#clip0_2140_66530)">
<path d="M11.345 14.1667C10.8417 14.1667 10.3358 14.3558 9.99583 14.7242C9.64833 14.3558 9.13083 14.1667 8.61667 14.1667C7.635 14.1667 6.83583 15.0267 6.83583 16.0842C6.83583 17.4358 8.43 19.1208 9.20167 19.725C9.67333 20.0942 10.3283 20.0925 10.7975 19.72C11.5567 19.1158 13.1258 17.4325 13.1258 16.0842C13.1258 15.0267 12.3267 14.1667 11.345 14.1667ZM10.2783 19.0675C10.1125 19.1992 9.88167 19.1983 9.71583 19.0692C8.87917 18.4142 7.66917 16.9742 7.66917 16.0842C7.66917 15.4867 8.09417 15 8.61667 15C8.95083 15 9.58333 15.1742 9.58333 15.8333V15.835C9.58333 16.065 9.77 16.2517 10 16.2517C10.23 16.2517 10.4167 16.065 10.4167 15.835C10.4167 15.2183 10.9175 15 11.345 15C11.8675 15 12.2925 15.4858 12.2925 16.0842C12.2925 16.9742 11.1017 18.4125 10.2783 19.0675ZM10 10C12.7575 10 15 7.7575 15 5C15 2.2425 12.7575 0 10 0C7.2425 0 5 2.2425 5 5C5 7.7575 7.2425 10 10 10ZM10 0.833333C12.2975 0.833333 14.1667 2.7025 14.1667 5C14.1667 7.2975 12.2975 9.16667 10 9.16667C7.7025 9.16667 5.83333 7.2975 5.83333 5C5.83333 2.7025 7.7025 0.833333 10 0.833333ZM17.5 19.1667V19.5833C17.5 19.8133 17.3133 20 17.0833 20C16.8533 20 16.6667 19.8133 16.6667 19.5833V19.1667C16.6667 15.4908 13.6758 12.5 10 12.5C6.32417 12.5 3.33333 15.4908 3.33333 19.1667V19.5833C3.33333 19.8133 3.14667 20 2.91667 20C2.68667 20 2.5 19.8133 2.5 19.5833V19.1667C2.5 15.0317 5.86417 11.6667 10 11.6667C14.1358 11.6667 17.5 15.0317 17.5 19.1667Z" fill="#4B6D74"/>
</g>
<defs>
<clipPath id="clip0_2140_66530">
<rect width="20" height="20" fill="white"/>
</clipPath>
</defs>
</svg>
