<svg width="20" height="20" viewBox="0 0 20 20" fill="none" xmlns="http://www.w3.org/2000/svg">
<g clip-path="url(#clip0_1264_25105)">
<path d="M10.0003 3.75V0.416667C10.0003 0.186667 10.187 0 10.417 0C10.647 0 10.8337 0.186667 10.8337 0.416667V3.75C10.8337 3.98 10.647 4.16667 10.417 4.16667C10.187 4.16667 10.0003 3.98 10.0003 3.75ZM13.9528 5.63083C14.0595 5.63083 14.1662 5.59 14.2478 5.50917L16.6053 3.15167C16.7678 2.98917 16.7678 2.725 16.6053 2.5625C16.4428 2.4 16.1787 2.4 16.0162 2.5625L13.6587 4.92C13.4962 5.0825 13.4962 5.34667 13.6587 5.50917C13.7403 5.59083 13.8462 5.63083 13.9528 5.63083ZM4.81866 2.5625C4.65616 2.4 4.39199 2.4 4.22949 2.5625C4.06699 2.725 4.06699 2.98917 4.22949 3.15167L6.58699 5.50917C6.74949 5.67167 7.01366 5.67167 7.17616 5.50917C7.33866 5.34667 7.33866 5.0825 7.17616 4.92L4.81866 2.5625ZM5.41699 8.33333H2.08366C1.85366 8.33333 1.66699 8.52 1.66699 8.75C1.66699 8.98 1.85366 9.16667 2.08366 9.16667H5.41699C5.64699 9.16667 5.83366 8.98 5.83366 8.75C5.83366 8.52 5.64699 8.33333 5.41699 8.33333ZM18.2778 14.4583C18.137 14.8967 17.7653 15.2017 17.307 15.2525L14.982 15.5108L16.1328 17.7108C16.5503 18.4508 16.2253 19.4725 15.4553 19.8358C14.7145 20.2108 13.7903 19.9342 13.387 19.18L12.1462 16.8167L10.2987 18.8317C9.93449 19.1742 9.45699 19.2558 9.02866 19.0692C8.60033 18.8833 8.33449 18.4775 8.33449 18.0108V8.29667C8.33449 7.69167 8.67616 7.15917 9.22533 6.90667C9.77449 6.65333 10.402 6.74167 10.8612 7.13583L17.9453 13.2425C17.9453 13.2425 17.9495 13.2467 17.952 13.2483C18.2945 13.5567 18.4187 14.02 18.2778 14.4583ZM17.3962 13.87L10.317 7.7675C10.1062 7.58583 9.82699 7.5475 9.57283 7.66333C9.31866 7.78 9.16699 8.01667 9.16699 8.29667V18.0117C9.16699 18.2017 9.30199 18.2808 9.35949 18.3058C9.41783 18.3325 9.56783 18.3767 9.70616 18.2458L11.932 15.8167C12.1162 15.605 12.4853 15.6542 12.6087 15.9042L14.1228 18.7883C14.3078 19.1317 14.7303 19.2667 15.0828 19.09C15.4412 18.92 15.592 18.4458 15.397 18.1L13.962 15.3567C13.8228 15.1083 14.002 14.7725 14.2853 14.7492L17.2153 14.4242C17.4012 14.4033 17.4653 14.2633 17.4845 14.2033C17.5037 14.1442 17.532 13.9942 17.3962 13.87Z" fill="#4B6D74"/>
</g>
<defs>
<clipPath id="clip0_1264_25105">
<rect width="20" height="20" fill="white"/>
</clipPath>
</defs>
</svg>
