<svg width="20" height="20" viewBox="0 0 20 20" fill="none" xmlns="http://www.w3.org/2000/svg">
<path d="M19.9606 6.44911C19.2393 3.2765 16.7238 0.760099 13.5503 0.0388628C13.0892 -0.065362 12.6123 0.042198 12.2429 0.335695C11.8802 0.625023 11.6718 1.05776 11.6718 1.52136V6.24232C11.6718 7.3913 12.6065 8.32682 13.7563 8.32682H18.4772H18.4781C18.9417 8.32682 19.3736 8.11837 19.6629 7.7565C19.9572 7.38796 20.0656 6.91103 19.9606 6.44911ZM19.0117 7.23621C18.8816 7.39964 18.6865 7.49302 18.4781 7.49302H13.7563C13.0667 7.49302 12.5056 6.93104 12.5056 6.24232V1.52136C12.5056 1.31291 12.599 1.11863 12.7632 0.987726C12.9333 0.85265 13.1534 0.803456 13.3661 0.851816C16.2277 1.50301 18.4973 3.77261 19.1476 6.63504C19.196 6.8485 19.1468 7.06779 19.0117 7.23705V7.23621ZM16.3277 9.99525H11.2557C10.5662 9.99525 10.005 9.4341 10.005 8.74455V3.67256C10.005 2.95883 9.7999 2.41852 9.39551 2.06749C8.85604 1.5989 8.14314 1.63976 7.86215 1.68061C3.12284 2.35849 -0.319911 6.6709 0.0236135 11.4978C0.344626 16.0103 3.98999 19.6565 8.50251 19.9767C8.72513 19.9925 8.94609 20 9.16621 20C13.7188 20 17.6735 16.659 18.3197 12.1381C18.3597 11.8571 18.4022 11.1451 17.9328 10.6048C17.5817 10.2004 17.0423 9.99525 16.3277 9.99525ZM17.4934 12.0205C16.8772 16.3288 12.9508 19.4564 8.56171 19.1454C4.52696 18.8585 1.14174 15.4725 0.854077 11.4377C0.542236 7.04527 3.67148 3.12225 7.97972 2.50607C8.02224 2.50024 8.09895 2.49106 8.19234 2.49106C8.38578 2.49106 8.65426 2.52692 8.84937 2.69701C9.06366 2.88295 9.17205 3.21063 9.17205 3.67172V8.74372C9.17205 9.89269 10.1076 10.8282 11.2565 10.8282H16.3285C16.7905 10.8282 17.1182 10.9366 17.3033 11.1509C17.5542 11.4402 17.5125 11.8896 17.4942 12.0197L17.4934 12.0205Z" fill="#4B6D74"/>
</svg>
