<svg width="20" height="20" viewBox="0 0 20 20" fill="none" xmlns="http://www.w3.org/2000/svg">
<g clip-path="url(#clip0_1381_24064)">
<path d="M19.6949 5.25L18.4732 3.22083C18.2199 2.79667 17.874 2.21667 17.3649 2.05583L11.6307 0.241665C10.5615 -0.0966683 9.43152 -0.0966683 8.36236 0.241665L2.62819 2.05666C2.14486 2.21 1.73402 2.53333 1.45819 2.99333L0.317356 5.21833C-0.0268109 5.78917 -0.091811 6.475 0.139022 7.1C0.369022 7.725 0.864022 8.205 1.49652 8.415L1.67152 8.47333L1.66652 14.81C1.66569 16.4275 2.69569 17.8592 4.23069 18.37L8.28236 19.7208C8.83486 19.905 9.41486 19.9975 9.99569 19.9975C10.5765 19.9975 11.1565 19.9058 11.709 19.7208L15.764 18.3692C17.299 17.8575 18.3324 16.4292 18.3332 14.8142V8.46916L18.5315 8.40333C19.1557 8.195 19.6432 7.7225 19.8707 7.10583C20.0982 6.48917 20.034 5.8125 19.6949 5.24917V5.25ZM0.920689 6.81167C0.778189 6.425 0.818189 6.00083 1.04486 5.62333L2.18569 3.3975C2.24069 3.30583 2.30736 3.2225 2.38319 3.14917L9.38986 5.4925L7.74486 8.525C7.42236 9.0625 6.78152 9.29916 6.18819 9.10083L1.76069 7.625C1.36986 7.49416 1.06319 7.19833 0.920689 6.81167ZM9.57319 19.145C9.22486 19.1133 8.87902 19.0417 8.54569 18.9308L4.49402 17.58C3.29986 17.1817 2.49819 16.0692 2.49902 14.8108L2.50319 8.75083L5.92236 9.89083C6.89236 10.2142 7.93319 9.82833 8.46652 8.9375L9.57736 6.89L9.57152 19.1442L9.57319 19.145ZM3.51569 2.64916L8.61402 1.03583C9.51819 0.749998 10.4749 0.749998 11.3799 1.03583L16.4924 2.65417L10.004 4.81917L3.51569 2.64916ZM17.4999 14.8142C17.499 16.07 16.6957 17.1808 15.5007 17.5792L11.4457 18.9308C11.109 19.0433 10.7599 19.115 10.4074 19.1458L10.4132 6.88583L11.5349 8.95333C11.9349 9.62083 12.6374 10.0033 13.3782 10.0033C13.6074 10.0033 13.8407 9.96667 14.0699 9.89L17.5007 8.74667V14.8133L17.4999 14.8142ZM19.089 6.8175C18.9499 7.19583 18.6507 7.48583 18.2682 7.61333L13.8057 9.10083C13.2107 9.29667 12.5715 9.0625 12.2582 8.54083L10.6065 5.49583L17.474 3.20417C17.5865 3.36083 17.6899 3.53417 17.7582 3.64833L18.9815 5.68C19.1899 6.02583 19.229 6.44 19.089 6.81833V6.8175Z" fill="#4B6D74"/>
</g>
<defs>
<clipPath id="clip0_1381_24064">
<rect width="20" height="20" fill="white"/>
</clipPath>
</defs>
</svg>
