<svg width="20" height="20" viewBox="0 0 20 20" fill="none" xmlns="http://www.w3.org/2000/svg">
<g clip-path="url(#clip0_2086_42789)">
<path d="M8.75 10.8333H7.91667C7.68667 10.8333 7.5 11.02 7.5 11.25C7.5 11.48 7.68667 11.6667 7.91667 11.6667H8.75C8.98 11.6667 9.16667 11.48 9.16667 11.25C9.16667 11.02 8.98 10.8333 8.75 10.8333Z" fill="#4B6D74"/>
<path d="M12.0835 10.8333H11.2502C11.0202 10.8333 10.8335 11.02 10.8335 11.25C10.8335 11.48 11.0202 11.6667 11.2502 11.6667H12.0835C12.3135 11.6667 12.5002 11.48 12.5002 11.25C12.5002 11.02 12.3135 10.8333 12.0835 10.8333Z" fill="#4B6D74"/>
<path d="M15.4165 10.8333H14.5832C14.3532 10.8333 14.1665 11.02 14.1665 11.25C14.1665 11.48 14.3532 11.6667 14.5832 11.6667H15.4165C15.6465 11.6667 15.8332 11.48 15.8332 11.25C15.8332 11.02 15.6465 10.8333 15.4165 10.8333Z" fill="#4B6D74"/>
<path d="M8.75 15H7.91667C7.68667 15 7.5 15.1867 7.5 15.4167C7.5 15.6467 7.68667 15.8333 7.91667 15.8333H8.75C8.98 15.8333 9.16667 15.6467 9.16667 15.4167C9.16667 15.1867 8.98 15 8.75 15Z" fill="#4B6D74"/>
<path d="M5.4165 10.8333H4.58317C4.35317 10.8333 4.1665 11.02 4.1665 11.25C4.1665 11.48 4.35317 11.6667 4.58317 11.6667H5.4165C5.6465 11.6667 5.83317 11.48 5.83317 11.25C5.83317 11.02 5.6465 10.8333 5.4165 10.8333Z" fill="#4B6D74"/>
<path d="M5.4165 15H4.58317C4.35317 15 4.1665 15.1867 4.1665 15.4167C4.1665 15.6467 4.35317 15.8333 4.58317 15.8333H5.4165C5.6465 15.8333 5.83317 15.6467 5.83317 15.4167C5.83317 15.1867 5.6465 15 5.4165 15Z" fill="#4B6D74"/>
<path d="M12.0835 15H11.2502C11.0202 15 10.8335 15.1867 10.8335 15.4167C10.8335 15.6467 11.0202 15.8333 11.2502 15.8333H12.0835C12.3135 15.8333 12.5002 15.6467 12.5002 15.4167C12.5002 15.1867 12.3135 15 12.0835 15Z" fill="#4B6D74"/>
<path d="M15.4165 15H14.5832C14.3532 15 14.1665 15.1867 14.1665 15.4167C14.1665 15.6467 14.3532 15.8333 14.5832 15.8333H15.4165C15.6465 15.8333 15.8332 15.6467 15.8332 15.4167C15.8332 15.1867 15.6465 15 15.4165 15Z" fill="#4B6D74"/>
<path d="M16.25 1.66667H15V0.416667C15 0.186667 14.8133 0 14.5833 0C14.3533 0 14.1667 0.186667 14.1667 0.416667V1.66667H5.83333V0.416667C5.83333 0.186667 5.64667 0 5.41667 0C5.18667 0 5 0.186667 5 0.416667V1.66667H3.75C1.6825 1.66667 0 3.34917 0 5.41667V16.25C0 18.3175 1.6825 20 3.75 20H16.25C18.3175 20 20 18.3175 20 16.25V5.41667C20 3.34917 18.3175 1.66667 16.25 1.66667ZM3.75 2.5H16.25C17.8583 2.5 19.1667 3.80833 19.1667 5.41667V6.66667H0.833333V5.41667C0.833333 3.80833 2.14167 2.5 3.75 2.5ZM16.25 19.1667H3.75C2.14167 19.1667 0.833333 17.8583 0.833333 16.25V7.5H19.1667V16.25C19.1667 17.8583 17.8583 19.1667 16.25 19.1667Z" fill="#4B6D74"/>
</g>
<defs>
<clipPath id="clip0_2086_42789">
<rect width="20" height="20" fill="white"/>
</clipPath>
</defs>
</svg>
