<svg width="20" height="20" viewBox="0 0 20 20" fill="none" xmlns="http://www.w3.org/2000/svg">
<g clip-path="url(#clip0_1264_25024)">
<path d="M19.9056 19.2175C20.2281 19.7117 19.6006 20.2658 19.1714 19.8608C12.4956 13.57 6.15891 7.21501 0.138073 0.831675C-0.266094 0.402508 0.28474 -0.230825 0.775573 0.0966749C6.24974 3.75001 14.1664 10.4167 19.9056 19.2175ZM19.1139 10.6933C19.5764 11.0925 20.2431 10.5333 19.9114 10.02C16.5339 4.79418 12.5272 1.69084 9.96557 0.0850082C9.45057 -0.238325 8.91057 0.425008 9.30807 0.885008C12.4997 4.58334 15.4164 7.50001 19.1139 10.6933ZM0.726406 7.53834C0.25474 7.25834 -0.241927 7.87334 0.130573 8.27584C3.82557 12.27 7.69557 16.1308 11.7231 19.8692C12.1297 20.2467 12.7439 19.7325 12.4547 19.2592C8.61724 12.98 4.16641 9.58334 0.726406 7.53834Z" fill="#4B6D74"/>
</g>
<defs>
<clipPath id="clip0_1264_25024">
<rect width="20" height="20" fill="white"/>
</clipPath>
</defs>
</svg>
