<svg width="20" height="20" viewBox="0 0 20 20" fill="none" xmlns="http://www.w3.org/2000/svg">
<path d="M18.9708 4.26249C18.3475 4.00249 17.635 4.14416 17.1475 4.62999L14.6108 7.28416L11.1783 2.98666C10.5292 2.33666 9.47167 2.33749 8.79083 3.02166L5.3875 7.28582L2.845 4.65499C2.37333 4.18582 1.64917 4.03832 1.02917 4.29416C0.403333 4.55249 0 5.15666 0 5.83416V14.1667C0 16.4642 1.87 18.3333 4.16667 18.3333H15.8333C18.1308 18.3333 20 16.4642 20 14.1667V5.80249C20 5.12582 19.5958 4.52082 18.9708 4.26249ZM19.1667 14.1667C19.1667 16.005 17.6717 17.5 15.8333 17.5H4.16667C2.32833 17.5 0.833333 16.005 0.833333 14.1667V5.83416C0.805833 5.11666 1.76167 4.71999 2.25083 5.23999L5.1175 8.20666C5.28 8.39416 5.59417 8.36832 5.7425 8.17666L9.41083 3.57582C9.73583 3.25082 10.2642 3.25249 10.5583 3.54082L14.2575 8.17582C14.4058 8.36999 14.7233 8.39166 14.8842 8.20416L17.7433 5.21249C18.2367 4.68416 19.1908 5.08082 19.1667 5.80166V14.1667Z" fill="#4B6D74"/>
</svg>
