<svg width="20" height="20" viewBox="0 0 20 20" fill="none" xmlns="http://www.w3.org/2000/svg">
<path d="M19.8768 19.2845L14.5811 13.9888C15.9274 12.5017 16.756 10.537 16.756 8.37718C16.756 3.75838 12.9977 0 8.37802 0C3.75838 0 0 3.75838 0 8.37802C0 12.9977 3.75838 16.756 8.37802 16.756C10.537 16.756 12.5017 15.9283 13.9888 14.5819L19.2845 19.8777C19.3666 19.9598 19.4739 20 19.5811 20C19.6883 20 19.7956 19.9589 19.8777 19.8777C20.041 19.7143 20.041 19.4487 19.8777 19.2854L19.8768 19.2845ZM0.837802 8.37802C0.837802 4.22001 4.22001 0.837802 8.37802 0.837802C12.536 0.837802 15.9182 4.22084 15.9182 8.37802C15.9182 12.5352 12.536 15.9182 8.37802 15.9182C4.22001 15.9182 0.837802 12.5352 0.837802 8.37802Z" fill="#4B6D74"/>
</svg>
