<svg width="20" height="20" viewBox="0 0 20 20" fill="none" xmlns="http://www.w3.org/2000/svg">
<g clip-path="url(#clip0_2901_49411)">
<path d="M13.089 9.75583L11.1782 11.6667L13.089 13.5775C13.4148 13.9033 13.4148 14.43 13.089 14.7558C12.9265 14.9183 12.7132 15 12.4998 15C12.2865 15 12.0732 14.9183 11.9107 14.7558L9.99982 12.845L8.08898 14.7558C7.92648 14.9183 7.71315 15 7.49982 15C7.28648 15 7.07315 14.9183 6.91065 14.7558C6.58482 14.43 6.58482 13.9033 6.91065 13.5775L8.82148 11.6667L6.91065 9.75583C6.58482 9.43 6.58482 8.90333 6.91065 8.5775C7.23649 8.25167 7.76315 8.25167 8.08898 8.5775L9.99982 10.4883L11.9107 8.5775C12.2365 8.25167 12.7632 8.25167 13.089 8.5775C13.4148 8.90333 13.4148 9.43 13.089 9.75583ZM19.1665 4.16667C19.1665 4.6275 18.7932 5 18.3332 5H17.5957L16.5323 16.2267C16.3282 18.3775 14.5448 20 12.384 20H7.61148C5.45398 20 3.67065 18.3808 3.46398 16.2325L2.38398 5H1.66732C1.20732 5 0.833984 4.6275 0.833984 4.16667C0.833984 3.70583 1.20732 3.33333 1.66732 3.33333H5.08482C5.47232 1.43417 7.15565 0 9.16732 0H10.834C12.8457 0 14.5298 1.43417 14.9165 3.33333H18.334C18.794 3.33333 19.1665 3.70583 19.1665 4.16667ZM6.80982 3.33333H13.1898C12.8457 2.36333 11.9198 1.66667 10.8332 1.66667H9.16648C8.07982 1.66667 7.15398 2.36333 6.80982 3.33333ZM15.9215 5H4.05815L5.12315 16.0725C5.24648 17.3617 6.31648 18.3333 7.61148 18.3333H12.384C13.6807 18.3333 14.7507 17.36 14.8732 16.0683L15.9215 5Z" fill="#4B6D74"/>
</g>
<defs>
<clipPath id="clip0_2901_49411">
<rect width="20" height="20" fill="white"/>
</clipPath>
</defs>
</svg>
