<svg width="20" height="20" viewBox="0 0 20 20" fill="none" xmlns="http://www.w3.org/2000/svg">
<g clip-path="url(#clip0_2323_71807)">
<path d="M16.1107 2.45L17.1691 2.82417L17.5216 3.88167C17.5782 4.05167 17.7382 4.16667 17.9174 4.16667C18.0966 4.16667 18.2557 4.05167 18.3132 3.88167L18.6641 2.82917L19.7166 2.47833C19.8866 2.42167 20.0016 2.2625 20.0016 2.08333C20.0016 1.90417 19.8866 1.745 19.7166 1.68833L18.6641 1.3375L18.3132 0.284999C18.1991 -0.0550012 17.6366 -0.0550012 17.5224 0.284999L17.1732 1.3325L16.1266 1.66C15.9557 1.71333 15.8374 1.87 15.8341 2.05C15.8307 2.23 15.9416 2.39083 16.1107 2.45Z" fill="#4B6D74"/>
<path d="M19.7386 15.8633L17.5236 14.9775L16.6377 12.7625C16.5127 12.4458 15.9902 12.4458 15.8644 12.7625L14.9794 14.9733L12.7702 15.8092C12.6111 15.87 12.5044 16.0208 12.5011 16.1908C12.4977 16.3608 12.5986 16.5167 12.7561 16.5825L14.9769 17.5183L15.8644 19.7375C15.9269 19.8958 16.0811 19.9992 16.2511 19.9992C16.4211 19.9992 16.5752 19.895 16.6377 19.7375L17.5236 17.5225L19.7386 16.6367C19.8969 16.5733 20.0002 16.42 20.0002 16.25C20.0002 16.08 19.8969 15.9267 19.7386 15.8633ZM17.0477 16.8158C16.9419 16.8583 16.8577 16.9425 16.8161 17.0483L16.2502 18.4617L15.6844 17.0483C15.6436 16.945 15.5627 16.8625 15.4594 16.8192L14.0386 16.22L15.4452 15.6875C15.5544 15.6458 15.6411 15.5608 15.6844 15.4525L16.2502 14.0392L16.8161 15.4525C16.8586 15.5583 16.9419 15.6425 17.0477 15.685L18.4611 16.2508L17.0477 16.8158Z" fill="#4B6D74"/>
<path d="M15.7793 10.3825C16.3185 10.21 16.6668 9.7325 16.6668 9.16667C16.6668 8.60083 16.3185 8.12333 15.7693 7.9475L10.9635 6.5375L9.56512 1.73833C9.40012 1.19667 8.92679 0.841667 8.36095 0.834167C7.80595 0.857501 7.31345 1.16917 7.12845 1.72L5.70429 6.53667L0.904287 7.93583C0.362621 8.10083 0.00762071 8.57417 0.000120711 9.14C-0.00737929 9.70583 0.335121 10.1875 0.885954 10.3725L5.70429 11.7967L7.11762 16.6133C7.29012 17.1525 7.76762 17.5008 8.33345 17.5008C8.89929 17.5008 9.37679 17.1525 9.55262 16.6033L10.9635 11.7975L15.7693 10.3875L15.7793 10.3842V10.3825ZM15.5293 9.5875L10.511 11.0608C10.3743 11.1008 10.2685 11.2075 10.2285 11.3433L8.75679 16.3583C8.66512 16.6442 8.41012 16.6667 8.33429 16.6667C8.25846 16.6667 8.00345 16.6442 7.91512 16.3683L6.44012 11.3442C6.40012 11.2083 6.29429 11.1017 6.15845 11.0617L1.13762 9.5775C0.852621 9.4825 0.834287 9.22667 0.835121 9.15083C0.835954 9.075 0.861787 8.82 1.14429 8.73417L6.15845 7.27333C6.29512 7.23417 6.40179 7.1275 6.44179 6.99167L7.92595 1.97083C8.01929 1.6925 8.26512 1.66833 8.34679 1.66833H8.35179C8.42762 1.66917 8.68262 1.695 8.76845 1.9775L10.2293 6.99083C10.2693 7.1275 10.3751 7.23417 10.5118 7.27417L15.5268 8.74583C15.8135 8.8375 15.8351 9.0925 15.8351 9.16833C15.8351 9.24417 15.8135 9.49667 15.531 9.58917L15.5293 9.5875Z" fill="#4B6D74"/>
</g>
<defs>
<clipPath id="clip0_2323_71807">
<rect width="20" height="20" fill="white"/>
</clipPath>
</defs>
</svg>
