<svg width="20" height="20" viewBox="0 0 20 20" fill="none" xmlns="http://www.w3.org/2000/svg">
<g clip-path="url(#clip0_1381_24151)">
<path d="M16.25 0H3.75C1.6825 0 0 1.6825 0 3.75V11.25C0 13.3175 1.6825 15 3.75 15H7.08333C7.31333 15 7.5 14.8133 7.5 14.5833C7.5 14.3533 7.31333 14.1667 7.08333 14.1667H3.75C2.14167 14.1667 0.833333 12.8583 0.833333 11.25V6.66667H19.1667V8.75C19.1667 8.98 19.3533 9.16667 19.5833 9.16667C19.8133 9.16667 20 8.98 20 8.75V3.75C20 1.6825 18.3175 0 16.25 0ZM3.75 0.833333H16.25C17.715 0.833333 18.92 1.92333 19.1242 3.33333H0.875833C1.08 1.92333 2.285 0.833333 3.75 0.833333ZM0.833333 5.83333V4.16667H19.1667V5.83333H0.833333ZM2.45167 10.8333C2.45167 11.7525 3.19917 12.5 4.11833 12.5C5.0375 12.5 5.785 11.7525 5.785 10.8333C5.785 9.91417 5.0375 9.16667 4.11833 9.16667C3.19917 9.16667 2.45167 9.91417 2.45167 10.8333ZM4.95167 10.8333C4.95167 11.2925 4.57833 11.6667 4.11833 11.6667C3.65833 11.6667 3.285 11.2925 3.285 10.8333C3.285 10.3742 3.65833 10 4.11833 10C4.57833 10 4.95167 10.3742 4.95167 10.8333ZM14.5833 9.16667C11.5967 9.16667 9.16667 11.5967 9.16667 14.5833C9.16667 17.57 11.5967 20 14.5833 20C17.57 20 20 17.57 20 14.5833C20 11.5967 17.57 9.16667 14.5833 9.16667ZM14.5833 19.1667C12.0567 19.1667 10 17.1108 10 14.5833C10 12.0558 12.0567 10 14.5833 10C17.11 10 19.1667 12.0558 19.1667 14.5833C19.1667 17.1108 17.11 19.1667 14.5833 19.1667ZM17.375 13.4525C17.535 13.6183 17.5308 13.8817 17.365 14.0417L15.1125 16.22C14.8125 16.5158 14.4167 16.665 14.02 16.665C13.6233 16.665 13.2283 16.5175 12.9267 16.2217L11.79 15.1008C11.6267 14.9392 11.625 14.675 11.7867 14.5117C11.9475 14.3475 12.2117 14.3458 12.3758 14.5075L13.5108 15.6275C13.79 15.9025 14.2483 15.9025 14.5292 15.6242L16.785 13.4433C16.95 13.2842 17.2158 13.2875 17.3742 13.4533L17.375 13.4525Z" fill="#4B6D74"/>
</g>
<defs>
<clipPath id="clip0_1381_24151">
<rect width="20" height="20" fill="white"/>
</clipPath>
</defs>
</svg>
