<svg width="20" height="20" viewBox="0 0 20 20" fill="none" xmlns="http://www.w3.org/2000/svg">
<g clip-path="url(#clip0_1264_25109)">
<path d="M19.0035 0.206149C18.5285 -0.0671845 18.0052 -0.0696845 17.5652 0.204482C15.2094 1.67365 12.961 1.82198 10.7852 1.96532C8.36271 2.12448 6.07437 2.27615 4.08104 4.27865C2.47771 5.88948 1.62104 8.03198 1.66771 10.3103C1.71021 12.3111 2.44687 14.1786 3.75937 15.6511L0.121875 19.2886C-0.040625 19.4511 -0.040625 19.7153 0.121875 19.8778C0.203542 19.9595 0.310208 19.9995 0.416875 19.9995C0.523542 19.9995 0.630208 19.9586 0.711875 19.8778L4.34437 16.2461C5.82021 17.6061 7.70604 18.3336 9.72354 18.3336C9.97437 18.3336 10.2269 18.3228 10.481 18.2995C12.9769 18.077 15.2885 16.7836 16.8235 14.7503C18.7469 12.2028 19.816 7.90865 20.0002 1.98615C20.0219 1.28782 19.6119 0.555315 19.0044 0.205315L19.0035 0.206149ZM16.1577 14.2486C14.7644 16.0945 12.6677 17.2687 10.4069 17.4703C8.34188 17.6553 6.38604 17.0003 4.90187 15.627C3.39687 14.2361 2.54521 12.342 2.50271 10.2945C2.46021 8.24448 3.23104 6.31698 4.67271 4.86782C6.44354 3.08782 8.48104 2.95365 10.8402 2.79782C13.0119 2.65532 15.4735 2.49282 18.0069 0.912816C18.1844 0.803649 18.3794 0.808649 18.5877 0.929482C18.9352 1.12948 19.1785 1.56365 19.166 1.96198C18.9902 7.62698 17.9502 11.8761 16.1577 14.2503V14.2486ZM12.5002 5.87532C11.6002 5.87532 10.8527 6.27448 10.4169 6.92032C9.98104 6.27532 9.23354 5.87532 8.33354 5.87532C6.95521 5.87532 5.83354 7.07198 5.83354 8.54198C5.83354 10.4511 8.16938 12.8228 9.40354 13.8103C9.70187 14.0486 10.0594 14.1678 10.4169 14.1678C10.7744 14.1678 11.131 14.0486 11.4302 13.8103C12.6644 12.8228 15.0002 10.4511 15.0002 8.54198C15.0002 7.07115 13.8785 5.87532 12.5002 5.87532ZM10.9094 13.1595C10.6194 13.3911 10.2144 13.3911 9.92437 13.1595C8.66438 12.1528 6.66687 10.0086 6.66687 8.54198C6.66687 7.53115 7.41437 6.70865 8.33354 6.70865C9.31521 6.70865 10.0002 7.37865 10.0002 8.33782C10.0002 8.56782 10.1869 8.75448 10.4169 8.75448C10.6469 8.75448 10.8335 8.56782 10.8335 8.33782C10.8335 7.37865 11.5185 6.70865 12.5002 6.70865C13.4194 6.70865 14.1669 7.53115 14.1669 8.54198C14.1669 10.0086 12.1694 12.1528 10.9094 13.1595Z" fill="#4B6D74"/>
</g>
<defs>
<clipPath id="clip0_1264_25109">
<rect width="20" height="20" fill="white"/>
</clipPath>
</defs>
</svg>
