<svg width="20" height="20" viewBox="0 0 20 20" fill="none" xmlns="http://www.w3.org/2000/svg">
<path d="M13.3333 7.15167C15.7767 8.14084 17.5 10.5358 17.5 13.3333V15C17.5 17.3017 15.635 19.1667 13.3333 19.1667H6.66667C4.365 19.1667 2.5 17.3017 2.5 15V13.3333C2.5 10.5358 4.22333 8.14084 6.66667 7.15167M8.33344 4.16668V2.50001C8.33344 1.58001 9.0801 0.833344 10.0001 0.833344H15.8334M8.33344 4.16668C7.41344 4.16668 6.66656 4.91334 6.66656 5.83334V7.50001M8.33344 4.16668H11.6666M11.6666 0.833344V4.16668M11.6666 4.16668C12.5866 4.16668 13.3332 4.91334 13.3332 5.83334V7.50001M13.75 7.50001H6.25M12.5001 15.8333H7.5001C6.5801 15.8333 5.83344 15.0867 5.83344 14.1667C5.83344 13.2467 6.5801 12.5 7.5001 12.5H12.5001C13.4201 12.5 14.1668 13.2467 14.1668 14.1667C14.1668 15.0867 13.4201 15.8333 12.5001 15.8333Z" stroke="#4B6D74" stroke-width="1.66667" stroke-miterlimit="10" stroke-linecap="round" stroke-linejoin="round"/>
</svg>
