<svg width="20" height="20" viewBox="0 0 20 20" fill="none" xmlns="http://www.w3.org/2000/svg">
<g clip-path="url(#clip0_2073_58210)">
<path d="M18.599 3.69251L7.08319 15.2075C7.00577 15.2852 6.91375 15.3469 6.81244 15.389C6.71112 15.4311 6.60249 15.4527 6.49277 15.4527C6.38306 15.4527 6.27443 15.4311 6.17311 15.389C6.07179 15.3469 5.97978 15.2852 5.90236 15.2075L1.44902 10.75C1.3716 10.6723 1.27959 10.6106 1.17827 10.5685C1.07695 10.5264 0.968318 10.5048 0.858607 10.5048C0.748895 10.5048 0.640264 10.5264 0.538945 10.5685C0.437626 10.6106 0.345615 10.6723 0.26819 10.75C0.19046 10.8274 0.128783 10.9194 0.0866978 11.0208C0.0446131 11.1221 0.0229492 11.2307 0.0229492 11.3404C0.0229492 11.4501 0.0446131 11.5588 0.0866978 11.6601C0.128783 11.7614 0.19046 11.8534 0.26819 11.9308L4.72319 16.385C5.19315 16.8541 5.83002 17.1175 6.49402 17.1175C7.15803 17.1175 7.7949 16.8541 8.26486 16.385L19.7799 4.87251C19.8575 4.7951 19.919 4.70314 19.961 4.6019C20.0031 4.50065 20.0247 4.39212 20.0247 4.28251C20.0247 4.17289 20.0031 4.06436 19.961 3.96312C19.919 3.86188 19.8575 3.76992 19.7799 3.69251C19.7024 3.61478 19.6104 3.5531 19.5091 3.51101C19.4078 3.46893 19.2992 3.44727 19.1894 3.44727C19.0797 3.44727 18.9711 3.46893 18.8698 3.51101C18.7685 3.5531 18.6765 3.61478 18.599 3.69251Z" fill="#4B6D74"/>
</g>
<defs>
<clipPath id="clip0_2073_58210">
<rect width="20" height="20" fill="white"/>
</clipPath>
</defs>
</svg>
