<svg width="20" height="20" viewBox="0 0 20 20" fill="none" xmlns="http://www.w3.org/2000/svg">
<g clip-path="url(#clip0_3170_260372)">
<mask id="mask0_3170_260372" style="mask-type:luminance" maskUnits="userSpaceOnUse" x="0" y="0" width="20" height="20">
<path d="M0 0H20V20H0V0Z" fill="white"/>
</mask>
<g mask="url(#mask0_3170_260372)">
<path d="M15.8335 19.1667H4.16683C2.326 19.1667 0.833496 17.6742 0.833496 15.8333V12.5C0.833496 11.58 1.58016 10.8333 2.50016 10.8333H17.5002C18.4202 10.8333 19.1668 11.58 19.1668 12.5V15.8333C19.1668 17.6742 17.6743 19.1667 15.8335 19.1667Z" stroke="#4B6D74" stroke-width="1.66667" stroke-miterlimit="10" stroke-linecap="round" stroke-linejoin="round"/>
<path d="M2.5 10.8333V9.16668C2.5 8.24668 3.24667 7.50001 4.16667 7.50001H15.8333C16.7533 7.50001 17.5 8.24668 17.5 9.16668V10.8333" stroke="#4B6D74" stroke-width="1.66667" stroke-miterlimit="10" stroke-linecap="round" stroke-linejoin="round"/>
<path d="M15.8337 7.5V6.66667C15.8337 4.43417 15.1162 2.08667 14.4503 1.16167C14.0828 0.6525 13.3395 0.735 13.0387 1.28583C12.3787 2.5 11.5387 3.33333 9.96866 3.33333H8.33366C4.16699 3.33333 4.16699 7.5 4.16699 7.5" stroke="#4B6D74" stroke-width="1.66667" stroke-miterlimit="10" stroke-linecap="round" stroke-linejoin="round"/>
</g>
</g>
<defs>
<clipPath id="clip0_3170_260372">
<rect width="20" height="20" fill="white"/>
</clipPath>
</defs>
</svg>
