<svg width="20" height="20" viewBox="0 0 20 20" fill="none" xmlns="http://www.w3.org/2000/svg">
<g clip-path="url(#clip0_3170_260384)">
<path d="M16.25 0C14.1825 0 12.5 1.6825 12.5 3.75C12.5 4.01083 12.5275 4.265 12.5783 4.51083C11.6617 5.01083 10.8767 5.32167 10 5.4175V4.5825C10 3.43417 9.06583 2.49917 7.91667 2.49917H7.08333C5.93417 2.49917 5 3.43417 5 4.5825V7.1C4.18667 7.38667 3.42083 7.81 2.74 8.36917C0.998334 9.80083 0 11.9133 0 14.165C0 15.47 0.335 16.7692 0.97 17.9208C1.67583 19.2025 3.05833 19.9983 4.57833 19.9983H10.42C11.9467 19.9983 13.335 19.1933 14.0433 17.8983C15.525 15.1867 15.2867 11.9925 13.4217 9.56083C12.5375 8.40833 11.345 7.5575 10.0008 7.08917C11.1342 6.98833 12.1575 6.62417 13.2883 6.02083C13.9742 6.9125 15.0408 7.49833 16.2508 7.49833C18.3183 7.49833 20.0008 5.81583 20.0008 3.74833C20.0008 1.68083 18.3175 0 16.25 0ZM6.66667 4.58333C6.66667 4.35333 6.85417 4.16667 7.08333 4.16667H7.91667C8.14583 4.16667 8.33333 4.35333 8.33333 4.58333V6.71917C7.77333 6.65917 7.215 6.66083 6.66667 6.7225V4.58333ZM12.1 10.5775C13.8425 12.8483 13.4908 15.4367 12.58 17.1008C12.165 17.8608 11.3375 18.3333 10.42 18.3333H4.57833C3.665 18.3333 2.8425 17.8675 2.43 17.1183C1.93 16.2117 1.66667 15.1908 1.66667 14.1667C1.66667 12.415 2.44417 10.7717 3.79833 9.65833C4.85 8.79417 6.16 8.33583 7.51583 8.33583C7.9075 8.33583 8.30167 8.37417 8.69583 8.45167C10.0233 8.71333 11.2633 9.48833 12.1 10.5775ZM16.25 5.83333C15.1008 5.83333 14.1667 4.89833 14.1667 3.75C14.1667 2.60167 15.1008 1.66667 16.25 1.66667C17.3992 1.66667 18.3333 2.60167 18.3333 3.75C18.3333 4.89833 17.3992 5.83333 16.25 5.83333Z" fill="#4B6D74"/>
</g>
<defs>
<clipPath id="clip0_3170_260384">
<rect width="20" height="20" fill="white"/>
</clipPath>
</defs>
</svg>
