<svg width="20" height="20" viewBox="0 0 20 20" fill="none" xmlns="http://www.w3.org/2000/svg">
<g clip-path="url(#clip0_1365_20110)">
<path d="M10 0C4.48583 0 0 4.48583 0 10C0 15.5142 4.48583 20 10 20C15.5142 20 20 15.5142 20 10C20 4.48583 15.5142 0 10 0ZM10 19.1667C4.94583 19.1667 0.833333 15.0542 0.833333 10C0.833333 4.94583 4.94583 0.833333 10 0.833333C15.0542 0.833333 19.1667 4.94583 19.1667 10C19.1667 15.0542 15.0542 19.1667 10 19.1667ZM14.1667 10C14.1667 10.23 13.98 10.4167 13.75 10.4167H10.4167V13.75C10.4167 13.98 10.23 14.1667 10 14.1667C9.77 14.1667 9.58333 13.98 9.58333 13.75V10.4167H6.25C6.02 10.4167 5.83333 10.23 5.83333 10C5.83333 9.77 6.02 9.58333 6.25 9.58333H9.58333V6.25C9.58333 6.02 9.77 5.83333 10 5.83333C10.23 5.83333 10.4167 6.02 10.4167 6.25V9.58333H13.75C13.98 9.58333 14.1667 9.77 14.1667 10Z" fill="#4B6D74"/>
</g>
<defs>
<clipPath id="clip0_1365_20110">
<rect width="20" height="20" fill="white"/>
</clipPath>
</defs>
</svg>
