<svg width="20" height="20" viewBox="0 0 20 20" fill="none" xmlns="http://www.w3.org/2000/svg">
<path d="M18.9775 7.26751C18.1858 6.35667 17.04 5.83334 15.8333 5.83334H11.775L12.4492 3.47251C12.9242 0.965006 9.21 -0.232494 8.15583 2.13751L5.82167 5.83334H3.75083C1.6825 5.83334 0 7.51584 0 9.58334V14.5833C0 16.6508 1.6825 18.3333 3.75 18.3333H15.2458C17.31 18.3333 19.0833 16.7925 19.3717 14.7483L19.9592 10.5817C20.1275 9.38584 19.7692 8.17834 18.9775 7.26751ZM0.833333 14.5833V9.58334C0.833333 7.97501 2.14167 6.66667 3.75 6.66667H5.84333L5.83417 17.5H3.75083C2.1425 17.5 0.834167 16.1917 0.834167 14.5833H0.833333ZM19.1342 10.4658L18.5467 14.6325C18.3158 16.2675 16.8975 17.5 15.2458 17.5H6.66667L6.67667 6.03834L8.88083 2.54501C9.52417 0.988339 11.8817 1.72417 11.6375 3.29084L10.8217 6.13584C10.7858 6.26167 10.81 6.39667 10.8892 6.50084C10.9683 6.60501 11.0908 6.66667 11.2217 6.66667H15.8325C17.7992 6.62167 19.4525 8.52334 19.1333 10.4658H19.1342Z" fill="#4B6D74"/>
</svg>
