<svg width="20" height="20" viewBox="0 0 20 20" fill="none" xmlns="http://www.w3.org/2000/svg">
<g clip-path="url(#clip0_2140_66565)">
<path d="M18.6958 11.5998C18.4467 10.9356 18.0108 10.3781 17.47 9.95981C18.2108 9.55898 19.375 8.72648 19.9708 7.23814C20.0567 7.02481 19.9525 6.78231 19.7383 6.69731C19.5267 6.61148 19.2825 6.71481 19.1967 6.92898C18.5092 8.64814 16.8692 9.34648 16.5908 9.45481C16.1608 9.27898 15.6992 9.17398 15.2192 9.16981L15.4142 5.50648L16.5317 2.66481C16.8617 1.92148 16.5775 1.05148 15.8858 0.681475C15.0492 0.235642 14.1458 0.015642 13.3408 -0.000191304C12.5475 -0.000191304 11.7008 0.212309 10.8733 0.630642C10.1208 1.01148 9.79583 1.90481 10.1267 2.64981L11.2542 5.50814L11.4533 9.16648H9.16667V6.24981C9.16667 5.70731 8.8175 5.24898 8.33333 5.07648V0.873975C8.33333 0.570642 8.17833 0.292309 7.91667 0.128975C7.65583 -0.0301913 7.33833 -0.044358 7.07083 0.0923087L5.70333 0.776475C5.26917 0.992309 5 1.42648 5 1.91148V5.07564C4.51583 5.24814 4.16667 5.70648 4.16667 6.24898V9.22648C2.875 9.45398 1.76333 10.3506 1.295 11.6056L0.214167 14.5073C0.0716667 14.9331 0 15.3765 0 15.8265C0 18.1273 1.87167 19.999 4.1725 19.999H15.8275C18.1283 19.999 20 18.1273 20 15.8265C20 15.3765 19.9283 14.9331 19.7808 14.4923L18.6958 11.5981V11.5998ZM11.2492 1.37481C11.9583 1.01564 12.6467 0.830642 13.3408 0.833975C14.0167 0.820642 14.7775 1.03398 15.4917 1.41648C15.8 1.58064 15.9217 1.98064 15.7617 2.34231L14.7167 4.99981H11.9508L10.8958 2.32731C10.7383 1.97231 10.8933 1.55481 11.2492 1.37481ZM12.1067 5.83314H14.5608L14.3842 9.16648H12.2883L12.1067 5.83314ZM5.83333 1.91231C5.83333 1.74648 5.92583 1.59648 6.075 1.52231L7.5 0.873975V4.99981H5.83333V1.91231ZM5 6.24981C5 6.02064 5.18667 5.83314 5.41667 5.83314H7.91667C8.14667 5.83314 8.33333 6.02064 8.33333 6.24981V9.16648H5V6.24981ZM15.8275 19.1665H4.1725C2.33167 19.1665 0.833333 17.6681 0.833333 15.8273C0.833333 15.4673 0.890833 15.1131 1 14.7856L2.07583 11.8973C2.49917 10.7623 3.5975 9.99981 4.80917 9.99981H15.1842C16.3933 9.99981 17.4908 10.7606 17.915 11.8923L18.995 14.7715C19.1083 15.1123 19.1667 15.4673 19.1667 15.8273C19.1667 17.6681 17.6692 19.1665 15.8275 19.1665Z" fill="#4B6D74"/>
</g>
<defs>
<clipPath id="clip0_2140_66565">
<rect width="20" height="20" fill="white"/>
</clipPath>
</defs>
</svg>
