<svg width="20" height="20" viewBox="0 0 20 20" fill="none" xmlns="http://www.w3.org/2000/svg">
<g clip-path="url(#clip0_2079_58113)">
<path d="M14.1668 11.9592V9.58334C14.1668 8.90417 13.836 8.30584 13.3319 7.92584C13.3319 7.9225 13.3335 7.92 13.3335 7.91667V1.66834C13.3335 1.08667 13.0385 0.555839 12.5427 0.250005C12.0468 -0.0558282 11.441 -0.0824948 10.921 0.177505L8.27852 1.49917C7.28435 1.99667 6.66602 2.99584 6.66602 4.10751V7.91667C6.66602 7.91667 6.66768 7.9225 6.66768 7.92584C6.16352 8.30667 5.83268 8.90417 5.83268 9.58334V11.9592C4.85102 12.4292 4.16602 13.4242 4.16602 14.5833V17.0833C4.16602 18.6917 5.47435 20 7.08268 20H12.916C14.5243 20 15.8327 18.6917 15.8327 17.0833V14.5833C15.8327 13.4242 15.1485 12.4292 14.1668 11.9592ZM7.50018 4.10751C7.50018 3.31334 7.94102 2.59917 8.65185 2.24501L11.2944 0.923339C11.5594 0.792505 11.8535 0.804172 12.1052 0.960005C12.3527 1.11251 12.501 1.37751 12.501 1.66917V7.54334C12.366 7.51584 12.2268 7.50084 12.0844 7.50084H7.91768C7.77518 7.50084 7.63602 7.51584 7.50102 7.54334V4.10834L7.50018 4.10751ZM6.66685 9.58334C6.66685 8.89417 7.22768 8.33334 7.91685 8.33334H12.0835C12.7727 8.33334 13.3335 8.89417 13.3335 9.58334V11.7092C13.196 11.6892 13.0593 11.6667 12.9168 11.6667H7.08352C6.94102 11.6667 6.80435 11.6892 6.66685 11.7092V9.58334ZM15.0002 17.0833C15.0002 18.2325 14.0652 19.1667 12.9168 19.1667H7.08352C5.93518 19.1667 5.00018 18.2325 5.00018 17.0833V14.5833C5.00018 13.4342 5.93518 12.5 7.08352 12.5H12.9168C14.0652 12.5 15.0002 13.4342 15.0002 14.5833V17.0833Z" fill="#4B6D74"/>
</g>
<defs>
<clipPath id="clip0_2079_58113">
<rect width="20" height="20" fill="white"/>
</clipPath>
</defs>
</svg>
