<svg width="20" height="20" viewBox="0 0 20 20" fill="none" xmlns="http://www.w3.org/2000/svg">
<g clip-path="url(#clip0_2320_71602)">
<path d="M20 6.66666C20 7.88666 19.5808 9.21916 18.755 10.6275C18.6767 10.76 18.5375 10.8333 18.395 10.8333C18.3225 10.8333 18.25 10.815 18.1842 10.7758C17.9858 10.6592 17.9192 10.4042 18.035 10.2058C18.785 8.92666 19.1658 7.73666 19.1658 6.66666C19.1658 4.04999 16.9817 1.66666 14.5825 1.66666C12.6208 1.66666 11.6167 2.43916 10.68 3.29916L7.10417 6.83916C6.61333 7.33 6.52167 8.08999 6.89333 8.60583C7.12917 8.93333 7.47583 9.13083 7.87 9.1625C8.25833 9.19166 8.64 9.05416 8.915 8.77916L12.6233 5.12083C12.7867 4.95916 13.0517 4.96083 13.2125 5.125C13.3742 5.28833 13.3725 5.5525 13.2092 5.71416L12.0125 6.895L16.4433 10.7842C17.2467 11.4883 17.4483 12.665 16.9125 13.5217C16.5825 14.05 16.0425 14.405 15.4333 14.4942C15.2375 14.5233 15.04 14.525 14.8467 14.4975C14.955 15.0108 14.8775 15.5525 14.595 16.005C14.2642 16.5342 13.7242 16.8883 13.115 16.9775C12.8258 17.02 12.5367 17.0017 12.2633 16.9267C12.2967 17.355 12.2042 17.7883 11.97 18.1608C11.64 18.6892 11.1 19.0442 10.4908 19.1333C10.3883 19.1483 10.2867 19.1558 10.185 19.1558C9.67917 19.1558 9.1875 18.9733 8.8025 18.635L6.10167 16.2117C1.99583 12.5008 0 9.37916 0 6.66666C0 3.55916 2.53167 0.833328 5.41667 0.833328C6.38333 0.833328 7.34917 1.14666 8.21167 1.74C8.40167 1.87083 8.44917 2.12999 8.31917 2.31916C8.18917 2.50999 7.93 2.55749 7.74 2.42666C7.0175 1.92916 6.21417 1.66666 5.4175 1.66666C3.01917 1.66666 0.834167 4.04999 0.834167 6.66666C0.834167 9.09583 2.79417 12.0992 6.66 15.5925L9.35583 18.0117C9.63167 18.2542 10.0017 18.3617 10.3708 18.3092C10.7433 18.255 11.0617 18.045 11.265 17.7192C11.5867 17.2058 11.4525 16.4875 10.9525 16.0492L8.1725 13.4067C8.00583 13.2483 7.99917 12.985 8.1575 12.8183C8.315 12.6508 8.57917 12.6442 8.74583 12.8017L11.9883 15.8625C12.2558 16.0975 12.6267 16.2092 12.995 16.1533C13.3675 16.0992 13.6858 15.8892 13.89 15.5633C14.2108 15.0508 14.0767 14.3325 13.5767 13.8942L10.4808 11.0917C10.3108 10.9375 10.2967 10.675 10.45 10.5042C10.6025 10.3325 10.865 10.3183 11.0375 10.4708L14.2967 13.3717C14.5742 13.6142 14.9425 13.7233 15.3133 13.67C15.6858 13.615 16.0033 13.4058 16.2075 13.08C16.5283 12.5667 16.3942 11.8483 15.8942 11.4108L11.4183 7.48166L9.50333 9.37083C9.05667 9.8175 8.43667 10.0417 7.80417 9.99416C7.17167 9.9425 6.59333 9.615 6.21833 9.09333C5.61083 8.25 5.73917 7.0275 6.5175 6.24916L10.1058 2.69749C11.1375 1.74916 12.3233 0.834162 14.5833 0.834162C17.4692 0.834162 20 3.56 20 6.6675V6.66666Z" fill="#4B6D74"/>
</g>
<defs>
<clipPath id="clip0_2320_71602">
<rect width="20" height="20" fill="white"/>
</clipPath>
</defs>
</svg>
