<svg width="20" height="20" viewBox="0 0 20 20" fill="none" xmlns="http://www.w3.org/2000/svg">
<path d="M10 16.6667C9.54002 16.6667 9.16669 16.2942 9.16669 15.8333C9.16669 13.9017 10.3184 12.2025 12.4092 11.0492C14.315 9.99917 15.3 7.92 14.9192 5.75333C14.5667 3.74666 12.92 2.09916 10.9125 1.74666C9.40252 1.48166 7.93752 1.86916 6.78585 2.83583C5.65002 3.78917 4.99919 5.18583 4.99919 6.66666C4.99919 7.12666 4.62585 7.5 4.16585 7.5C3.70585 7.5 3.33252 7.12666 3.33252 6.66666C3.33252 4.69166 4.20085 2.83 5.71419 1.55916C7.22752 0.289165 9.22835 -0.240835 11.2009 0.104998C13.8859 0.575831 16.0892 2.78 16.5609 5.465C17.0592 8.3 15.7134 11.13 13.2142 12.5092C12.1284 13.1075 10.8334 14.17 10.8334 15.8333C10.8334 16.2942 10.46 16.6667 10 16.6667ZM8.75002 18.75C8.75002 19.44 9.31002 20 10 20C10.69 20 11.25 19.44 11.25 18.75C11.25 18.06 10.69 17.5 10 17.5C9.31002 17.5 8.75002 18.06 8.75002 18.75Z" fill="#4B6D74"/>
</svg>
