<svg width="20" height="20" viewBox="0 0 20 20" fill="none" xmlns="http://www.w3.org/2000/svg">
<g clip-path="url(#clip0_3170_260703)">
<path d="M19.7542 13.931L18.6692 11.0377C18.4383 10.4235 18.0683 9.88687 17.6042 9.45603C18.38 9.0102 19.37 8.23687 19.9217 7.0077C20.11 6.5877 19.9217 6.09437 19.5025 5.90687C19.0842 5.71853 18.5892 5.90687 18.4008 6.32603C17.5825 7.99437 16.2125 8.41937 15.6467 8.4402L15.8217 5.14853L16.5967 2.6377C16.7442 1.92687 16.4742 1.19687 15.91 0.7752C15.1792 0.2302 14.0925 0.0135331 13.3375 0.000199752C12.5867 0.00519975 11.4783 0.2327 10.7442 0.7827C10.1817 1.2052 9.91333 1.93603 10.0808 2.7227L10.8342 5.14853L11.0075 8.3327H9.16083V5.8327C9.16083 5.21853 8.82333 4.68687 8.3275 4.3977V0.873533C8.3275 0.568533 8.1725 0.291033 7.91333 0.131033C7.65333 -0.0281336 7.33583 -0.0439669 7.06417 0.0926998L5.69667 0.776866C5.26333 0.9927 4.99417 1.42853 4.99417 1.9127V4.39853C4.49833 4.6877 4.16083 5.21937 4.16083 5.83353V8.48437C2.87833 8.8277 1.79833 9.76603 1.32167 11.0444L0.235 13.9602C0.0783333 14.4285 0 14.9169 0 15.411C0 17.941 2.05833 20.0002 4.58917 20.0002H15.4108C17.9417 20.0002 20 17.941 20 15.411C20 14.916 19.9208 14.4277 19.7542 13.931ZM11.7442 2.11687C12.0875 1.85937 12.8192 1.64437 13.3383 1.66687C13.8992 1.6877 14.5725 1.8577 14.9133 2.11103C14.9617 2.14687 14.9817 2.22853 14.985 2.22103L14.3808 4.16687H12.2742L11.6933 2.30603C11.6775 2.2302 11.6983 2.1502 11.7442 2.11687ZM14.115 5.83353L13.9825 8.33353H12.6767L12.54 5.83353H14.115ZM5.8275 5.83353H7.49417V8.33353H5.8275V5.83353ZM15.4108 18.3335H4.58917C2.9775 18.3335 1.66667 17.0227 1.66667 15.411C1.66667 15.096 1.7175 14.7852 1.80667 14.5152L2.88333 11.6269C3.24667 10.6535 4.1875 10.0002 5.22583 10.0002H14.7675C15.8042 10.0002 16.7442 10.6519 17.1083 11.6227L18.1842 14.4877C18.2833 14.7852 18.3342 15.096 18.3342 15.411C18.3342 17.0227 17.0225 18.3335 15.4108 18.3335Z" fill="#4B6D74"/>
</g>
<defs>
<clipPath id="clip0_3170_260703">
<rect width="20" height="20" fill="white"/>
</clipPath>
</defs>
</svg>
