<svg width="20" height="20" viewBox="0 0 20 20" fill="none" xmlns="http://www.w3.org/2000/svg">
<g clip-path="url(#clip0_1935_33409)">
<path d="M7.5 10C4.7425 10 2.5 7.7575 2.5 5C2.5 2.2425 4.7425 0 7.5 0C10.2575 0 12.5 2.2425 12.5 5C12.5 7.7575 10.2575 10 7.5 10ZM7.5 0.833333C5.2025 0.833333 3.33333 2.7025 3.33333 5C3.33333 7.2975 5.2025 9.16667 7.5 9.16667C9.7975 9.16667 11.6667 7.2975 11.6667 5C11.6667 2.7025 9.7975 0.833333 7.5 0.833333ZM0.833333 19.5833V19.1667C0.833333 15.6392 3.58917 12.7158 7.1075 12.5117C7.3375 12.4983 7.5125 12.3017 7.49917 12.0717C7.48583 11.8425 7.29 11.6533 7.05917 11.68C3.10083 11.9092 0 15.1975 0 19.1667V19.5833C0 19.8133 0.186667 20 0.416667 20C0.646667 20 0.833333 19.8133 0.833333 19.5833ZM14.5833 20C11.5967 20 9.16667 17.57 9.16667 14.5833C9.16667 11.5967 11.5967 9.16667 14.5833 9.16667C17.57 9.16667 20 11.5967 20 14.5833C20 17.57 17.57 20 14.5833 20ZM14.5833 10C12.0558 10 10 12.0567 10 14.5833C10 17.11 12.0558 19.1667 14.5833 19.1667C17.1108 19.1667 19.1667 17.11 19.1667 14.5833C19.1667 12.0567 17.1108 10 14.5833 10ZM15.1125 16.22L17.365 14.0417C17.53 13.8817 17.535 13.6175 17.375 13.4525C17.2158 13.2875 16.9525 13.2833 16.7858 13.4425L14.5308 15.6242C14.2508 15.9 13.7933 15.9017 13.5117 15.6275L12.3758 14.5067C12.2125 14.345 11.9483 14.3467 11.7867 14.51C11.625 14.6742 11.6267 14.9383 11.7908 15.0992L12.9275 16.2217C13.2292 16.5167 13.625 16.6642 14.0208 16.6642C14.4167 16.6642 14.8125 16.5158 15.1125 16.22Z" fill="#4B6D74"/>
</g>
<defs>
<clipPath id="clip0_1935_33409">
<rect width="20" height="20" fill="white"/>
</clipPath>
</defs>
</svg>
