<svg width="20" height="20" viewBox="0 0 20 20" fill="none" xmlns="http://www.w3.org/2000/svg">
<path d="M14.9344 0.998749H5.18841C3.32743 0.998749 1.81299 2.51319 1.81299 4.37417V16.7395C1.81299 17.6418 2.45732 18.6012 3.24942 18.878C3.4812 18.959 3.71973 18.9987 3.95451 18.9987C4.50507 18.9987 5.04064 18.7827 5.44719 18.3754L10.061 13.7856L14.6216 18.3222C15.2269 18.9252 16.1083 19.1458 16.8696 18.8795C17.745 18.5749 18.3098 17.7836 18.3098 16.8632V4.37417C18.3098 2.51319 16.7954 0.998749 14.9344 0.998749ZM17.5597 16.8632C17.5597 17.4686 17.2004 17.9704 16.6228 18.1706C16.1315 18.3424 15.5547 18.1909 15.1504 17.7896L10.3251 12.9905C10.1788 12.8457 9.94251 12.8457 9.79624 12.9905L4.91763 17.8444C4.53658 18.2254 4.00626 18.3469 3.4962 18.1706C3.00789 17.9996 2.56308 17.3178 2.56308 16.7402V4.37417C2.56308 2.92649 3.74073 1.74884 5.18841 1.74884H14.9344C16.3821 1.74884 17.5597 2.92649 17.5597 4.37417V16.8632Z" fill="#4B6D74"/>
</svg>
