<svg width="20" height="20" viewBox="0 0 20 20" fill="none" xmlns="http://www.w3.org/2000/svg">
<g clip-path="url(#clip0_1908_46721)">
<path d="M10.8334 9.99999C10.8334 10.46 10.46 10.8333 10 10.8333C9.54003 10.8333 9.1667 10.46 9.1667 9.99999C9.1667 9.53999 9.54003 9.16666 10 9.16666C10.46 9.16666 10.8334 9.53999 10.8334 9.99999ZM14.1667 9.16666C13.7067 9.16666 13.3334 9.53999 13.3334 9.99999C13.3334 10.46 13.7067 10.8333 14.1667 10.8333C14.6267 10.8333 15 10.46 15 9.99999C15 9.53999 14.6267 9.16666 14.1667 9.16666ZM5.83336 9.16666C5.37336 9.16666 5.00003 9.53999 5.00003 9.99999C5.00003 10.46 5.37336 10.8333 5.83336 10.8333C6.29336 10.8333 6.6667 10.46 6.6667 9.99999C6.6667 9.53999 6.29336 9.16666 5.83336 9.16666ZM20 10.2958V16.0983C20 18.25 18.25 20 16.0984 20H10.9434C5.08586 20 0.391696 16.0067 0.0241958 10.7125C-0.176638 7.81499 0.880029 4.98083 2.92336 2.93416C4.9667 0.887494 7.80003 -0.170006 10.6975 0.0233274C15.9142 0.377494 20 4.88999 20 10.2958ZM19.1667 10.2958C19.1667 5.32666 15.4217 1.17999 10.6417 0.854994C10.4325 0.840828 10.2225 0.833327 10.0142 0.833327C7.5792 0.833327 5.24003 1.79499 3.5142 3.52249C1.64003 5.39916 0.671696 7.99833 0.855862 10.655C1.19753 15.5867 5.44003 19.1667 10.9434 19.1667H16.0984C17.79 19.1667 19.1667 17.7908 19.1667 16.0983V10.2958Z" fill="#4B6D74"/>
</g>
<defs>
<clipPath id="clip0_1908_46721">
<rect width="20" height="20" fill="white"/>
</clipPath>
</defs>
</svg>
