<svg width="20" height="20" viewBox="0 0 20 20" fill="none" xmlns="http://www.w3.org/2000/svg">
<path d="M17.5 5.00936H15C15 2.24572 12.7275 -0.00250244 9.93583 -0.00250244C7.21417 -0.00250244 5 2.24572 5 5.00936H2.5C1.12167 5.00936 0 6.13014 0 7.50739V16.2505C0 18.3163 1.6825 19.9975 3.75 19.9975H16.25C18.3175 19.9975 20 18.3163 20 16.2505V7.50739C20 6.13014 18.8783 5.00936 17.5 5.00936ZM9.93583 0.830172C12.2692 0.830172 14.1667 2.70452 14.1667 5.00936H5.83333C5.83333 2.70452 7.67333 0.830172 9.93583 0.830172ZM19.1667 16.2505C19.1667 17.8575 17.8583 19.1648 16.25 19.1648H3.75C2.14167 19.1648 0.833333 17.8575 0.833333 16.2505V7.50739C0.833333 6.58895 1.58083 5.84204 2.5 5.84204H5V8.7564C5 8.98621 5.18667 9.17273 5.41667 9.17273C5.64667 9.17273 5.83333 8.98621 5.83333 8.7564V5.84204H14.1667V8.7564C14.1667 8.98621 14.3533 9.17273 14.5833 9.17273C14.8133 9.17273 15 8.98621 15 8.7564V5.84204H17.5C18.4192 5.84204 19.1667 6.58895 19.1667 7.50739V16.2505Z" fill="#4B6D74"/>
</svg>
