<svg width="26" height="24" viewBox="0 0 26 24" fill="none" xmlns="http://www.w3.org/2000/svg">
<path d="M6.62857 0.000303667C7.08074 0.0259207 7.70449 0.00854799 8.16597 0.00774368L10.9803 0.00285731L20.2167 0.00255571L23.2408 0.00275698C23.8756 0.00277709 24.5463 -0.00991097 25.1769 0.0189836C25.0378 0.274893 24.8456 0.920407 24.7356 1.22435L23.7826 3.84126C22.617 7.07468 21.4114 10.2935 20.1661 13.497C18.8156 16.8923 17.5584 20.4477 14.3273 22.5373C12.2354 23.8736 9.69636 24.3182 7.27516 23.7721C4.87033 23.2366 2.77559 21.7698 1.4496 19.6929C1.19056 19.2891 0.963015 18.866 0.768963 18.4273C-0.202217 16.201 -0.255509 13.6813 0.620706 11.416C1.4426 9.30123 3.00794 7.55927 5.02285 6.51713C5.56679 6.2345 5.98893 6.1189 6.50146 5.8904C6.64809 6.11822 6.79388 6.48345 6.90595 6.7399L7.47355 8.0289L8.26037 9.79664C8.49213 10.3075 8.74323 10.8236 8.92599 11.353C7.80534 11.3603 6.61884 12.3335 6.17291 13.3362C5.80274 14.1609 5.77523 15.0989 6.09648 15.9438C6.78676 17.7191 8.70544 18.5884 10.4918 17.9369C12.1819 17.3204 12.9806 15.5792 12.6137 13.8665C12.4394 13.052 12.0534 12.2451 11.7077 11.4886L11.0033 9.91272L7.86284 2.8151C7.47074 1.9164 6.97896 0.908624 6.62857 0.000303667Z" fill="#FEBF0B"/>
</svg>
